SplineFontDB: 3.2
FontName: UbuntuMono-Regular
FullName: Ubuntu Mono
FamilyName: Ubuntu Mono
Weight: Book
Copyright: Copyright 2011 Canonical Ltd.  Licensed under the Ubuntu Font Licence 1.0
Version: 0.80
ItalicAngle: 0
UnderlinePosition: -133
UnderlineWidth: 20
Ascent: 800
Descent: 200
InvalidEm: 0
sfntRevision: 0x0000cccc
LayerCount: 2
Layer: 0 1 "Back" 1
Layer: 1 1 "Fore" 0
XUID: [1021 235 -1216451338 7932884]
StyleMap: 0x0040
FSType: 0
OS2Version: 3
OS2_WeightWidthSlopeOnly: 0
OS2_UseTypoMetrics: 0
CreationTime: 1304432203
ModificationTime: 1640508809
PfmFamily: 17
TTFWeight: 400
TTFWidth: 5
LineGap: 0
VLineGap: 0
Panose: 2 11 5 9 3 6 2 3 2 4
OS2TypoAscent: 693
OS2TypoAOffset: 0
OS2TypoDescent: -165
OS2TypoDOffset: 0
OS2TypoLinegap: 49
OS2WinAscent: 830
OS2WinAOffset: 0
OS2WinDescent: 170
OS2WinDOffset: 0
HheadAscent: 830
HheadAOffset: 0
HheadDescent: -170
HheadDOffset: 0
OS2SubXSize: 700
OS2SubYSize: 650
OS2SubXOff: 0
OS2SubYOff: 140
OS2SupXSize: 700
OS2SupYSize: 650
OS2SupXOff: 0
OS2SupYOff: 477
OS2StrikeYSize: 50
OS2StrikeYPos: 250
OS2CapHeight: 693
OS2XHeight: 520
OS2Vendor: 'DAMA'
OS2CodePages: 2000009f.56010000
OS2UnicodeRanges: e00002ff.5000205b.00000000.00000000
Lookup: 1 0 0 "'locl' Localized Forms in Latin lookup 0" { "'locl' Localized Forms in Latin lookup 0 subtable"  } ['locl' ('latn' <'AZE ' > ) ]
Lookup: 1 0 0 "'locl' Localized Forms in Latin lookup 1" { "'locl' Localized Forms in Latin lookup 1 subtable"  } ['locl' ('latn' <'TRK ' > ) ]
Lookup: 1 0 0 "'locl' Localized Forms in Latin lookup 2" { "'locl' Localized Forms in Latin lookup 2 subtable"  } ['locl' ('latn' <'CRT ' > ) ]
Lookup: 1 0 0 "'locl' Localized Forms in Cyrillic lookup 3" { "'locl' Localized Forms in Cyrillic lookup 3 subtable"  } ['locl' ('cyrl' <'BGR ' > ) ]
Lookup: 1 0 0 "'locl' Localized Forms in Cyrillic lookup 4" { "'locl' Localized Forms in Cyrillic lookup 4 subtable"  } ['locl' ('cyrl' <'MKD ' > ) ]

StartChar: .notdef
Encoding: 65536 -1 0
Width: 500
Flags: W
LayerCount: 2
Fore
SplineSet
50 0 m 1,0,-1
 50 750 l 1,1,-1
 450 750 l 1,2,-1
 450 0 l 1,3,-1
 50 0 l 1,0,-1
400 50 m 1,4,-1
 400 700 l 1,5,-1
 100 700 l 1,6,-1
 100 50 l 1,7,-1
 400 50 l 1,4,-1
EndSplineSet
EndChar

StartChar: exclam
Encoding: 33 33 4
Width: 500
Flags: W
LayerCount: 2
Fore
SplineSet
293 451 m 2,0,1
 293 414 293 414 292 383 c 128,-1,2
 291 352 291 352 288.5 324 c 128,-1,3
 286 296 286 296 283 268.5 c 128,-1,4
 280 241 280 241 277 211 c 1,5,-1
 220 211 l 1,6,7
 217 241 217 241 214 268.5 c 128,-1,8
 211 296 211 296 208.5 324 c 128,-1,9
 206 352 206 352 205 383 c 128,-1,10
 204 414 204 414 204 451 c 2,11,-1
 204 619 l 1,12,-1
 293 619 l 1,13,-1
 293 451 l 2,0,1
248 -12 m 0,14,15
 221 -12 221 -12 201 6.5 c 128,-1,16
 181 25 181 25 181 56 c 256,17,18
 181 87 181 87 201 105.5 c 128,-1,19
 221 124 221 124 248 124 c 0,20,21
 276 124 276 124 295.5 105.5 c 128,-1,22
 315 87 315 87 315 56 c 256,23,24
 315 25 315 25 295.5 6.5 c 128,-1,25
 276 -12 276 -12 248 -12 c 0,14,15
EndSplineSet
EndChar

StartChar: quotedbl
Encoding: 34 34 5
Width: 500
Flags: W
LayerCount: 2
Fore
SplineSet
206 679 m 1,0,-1
 206 634 l 2,1,2
 206 590 206 590 201 533.5 c 128,-1,3
 196 477 196 477 188 430 c 1,4,-1
 146 430 l 1,5,6
 139 477 139 477 134 533.5 c 128,-1,7
 129 590 129 590 129 635 c 2,8,-1
 129 679 l 1,9,-1
 206 679 l 1,0,-1
371 679 m 1,10,-1
 371 634 l 2,11,12
 371 590 371 590 366 533.5 c 128,-1,13
 361 477 361 477 354 430 c 1,14,-1
 312 430 l 1,15,16
 304 477 304 477 299 533.5 c 128,-1,17
 294 590 294 590 294 635 c 2,18,-1
 294 679 l 1,19,-1
 371 679 l 1,10,-1
EndSplineSet
EndChar

StartChar: numbersign
Encoding: 35 35 6
Width: 500
Flags: W
LayerCount: 2
Fore
SplineSet
321 0 m 1,0,-1
 246 0 l 1,1,-1
 277 163 l 1,2,-1
 166 163 l 1,3,-1
 135 0 l 1,4,-1
 60 0 l 1,5,-1
 91 163 l 1,6,-1
 27 163 l 1,7,-1
 27 230 l 1,8,-1
 104 230 l 1,9,-1
 134 389 l 1,10,-1
 27 389 l 1,11,-1
 27 455 l 1,12,-1
 148 455 l 1,13,-1
 179 619 l 1,14,-1
 254 619 l 1,15,-1
 223 455 l 1,16,-1
 334 455 l 1,17,-1
 364 619 l 1,18,-1
 439 619 l 1,19,-1
 409 455 l 1,20,-1
 473 455 l 1,21,-1
 473 389 l 1,22,-1
 396 389 l 1,23,-1
 365 230 l 1,24,-1
 473 230 l 1,25,-1
 473 163 l 1,26,-1
 352 163 l 1,27,-1
 321 0 l 1,0,-1
320 389 m 1,28,-1
 210 389 l 1,29,-1
 179 230 l 1,30,-1
 289 230 l 1,31,-1
 320 389 l 1,28,-1
EndSplineSet
EndChar

StartChar: dollar
Encoding: 36 36 7
Width: 500
Flags: W
LayerCount: 2
Fore
SplineSet
233 85 m 0,0,1
 269 85 269 85 293.5 90.5 c 128,-1,2
 318 96 318 96 332 106.5 c 128,-1,3
 346 117 346 117 352 131.5 c 128,-1,4
 358 146 358 146 358 163 c 0,5,6
 358 188 358 188 346 205.5 c 128,-1,7
 334 223 334 223 313.5 236.5 c 128,-1,8
 293 250 293 250 267 260.5 c 128,-1,9
 241 271 241 271 213 281 c 0,10,11
 186 291 186 291 159.5 303 c 128,-1,12
 133 315 133 315 112.5 332.5 c 128,-1,13
 92 350 92 350 79 374.5 c 128,-1,14
 66 399 66 399 66 435 c 0,15,16
 66 499 66 499 104 539 c 128,-1,17
 142 579 142 579 214 590 c 1,18,-1
 214 693 l 1,19,-1
 288 693 l 1,20,-1
 288 593 l 1,21,22
 328 591 328 591 361.5 583.5 c 128,-1,23
 395 576 395 576 415 568 c 1,24,-1
 398 498 l 1,25,26
 377 506 377 506 345 514.5 c 128,-1,27
 313 523 313 523 264 523 c 0,28,29
 210 523 210 523 181.5 503 c 128,-1,30
 153 483 153 483 153 445 c 0,31,32
 153 424 153 424 161.5 410 c 128,-1,33
 170 396 170 396 186 385 c 128,-1,34
 202 374 202 374 223.5 365 c 128,-1,35
 245 356 245 356 272 346 c 0,36,37
 306 333 306 333 338 318.5 c 128,-1,38
 370 304 370 304 394 284 c 128,-1,39
 418 264 418 264 432.5 236 c 128,-1,40
 447 208 447 208 447 169 c 0,41,42
 447 110 447 110 408 69 c 128,-1,43
 369 28 369 28 288 18 c 1,44,-1
 288 -97 l 1,45,-1
 214 -97 l 1,46,-1
 214 15 l 1,47,48
 151 17 151 17 112 29 c 128,-1,49
 73 41 73 41 54 52 c 1,50,-1
 76 121 l 1,51,52
 103 108 103 108 140 96.5 c 128,-1,53
 177 85 177 85 233 85 c 0,0,1
EndSplineSet
EndChar

StartChar: percent
Encoding: 37 37 8
Width: 500
Flags: W
LayerCount: 2
Fore
SplineSet
95 0 m 1,0,-1
 25 0 l 1,1,-1
 404 619 l 1,2,-1
 474 619 l 1,3,-1
 95 0 l 1,0,-1
18 477 m 256,4,5
 18 553 18 553 47 592.5 c 128,-1,6
 76 632 76 632 127 632 c 256,7,8
 178 632 178 632 207 592.5 c 128,-1,9
 236 553 236 553 236 477 c 256,10,11
 236 401 236 401 207 361 c 128,-1,12
 178 321 178 321 127 321 c 256,13,14
 76 321 76 321 47 361 c 128,-1,15
 18 401 18 401 18 477 c 256,4,5
174 477 m 256,16,17
 174 522 174 522 162 551 c 128,-1,18
 150 580 150 580 127 580 c 256,19,20
 104 580 104 580 91.5 551 c 128,-1,21
 79 522 79 522 79 477 c 256,22,23
 79 432 79 432 91.5 403 c 128,-1,24
 104 374 104 374 127 374 c 256,25,26
 150 374 150 374 162 403 c 128,-1,27
 174 432 174 432 174 477 c 256,16,17
265 142 m 256,28,29
 265 218 265 218 293.5 257.5 c 128,-1,30
 322 297 322 297 373 297 c 256,31,32
 424 297 424 297 453 257.5 c 128,-1,33
 482 218 482 218 482 142 c 256,34,35
 482 66 482 66 453 26.5 c 128,-1,36
 424 -13 424 -13 373 -13 c 256,37,38
 322 -13 322 -13 293.5 26.5 c 128,-1,39
 265 66 265 66 265 142 c 256,28,29
421 142 m 256,40,41
 421 187 421 187 408.5 216 c 128,-1,42
 396 245 396 245 373 245 c 256,43,44
 350 245 350 245 338 216 c 128,-1,45
 326 187 326 187 326 142 c 256,46,47
 326 97 326 97 338 68 c 128,-1,48
 350 39 350 39 373 39 c 256,49,50
 396 39 396 39 408.5 68 c 128,-1,51
 421 97 421 97 421 142 c 256,40,41
EndSplineSet
EndChar

StartChar: ampersand
Encoding: 38 38 9
Width: 500
Flags: W
LayerCount: 2
Fore
SplineSet
272 283 m 2,0,1
 289 263 289 263 307.5 242.5 c 128,-1,2
 326 222 326 222 345 199 c 1,3,4
 353 227 353 227 359 260 c 128,-1,5
 365 293 365 293 368 333 c 1,6,-1
 437 324 l 1,7,8
 431 266 431 266 419.5 220.5 c 128,-1,9
 408 175 408 175 391 138 c 1,10,11
 414 106 414 106 435 72 c 128,-1,12
 456 38 456 38 473 0 c 1,13,-1
 386 0 l 1,14,15
 369 35 369 35 348 67 c 1,16,17
 316 27 316 27 276.5 9.5 c 128,-1,18
 237 -8 237 -8 194 -8 c 0,19,20
 156 -8 156 -8 126 4.5 c 128,-1,21
 96 17 96 17 75 39 c 128,-1,22
 54 61 54 61 42.5 90 c 128,-1,23
 31 119 31 119 31 151 c 0,24,25
 31 198 31 198 55.5 246 c 128,-1,26
 80 294 80 294 133 335 c 1,27,28
 107 370 107 370 91 406 c 128,-1,29
 75 442 75 442 75 480 c 0,30,31
 75 519 75 519 87.5 548 c 128,-1,32
 100 577 100 577 121 595.5 c 128,-1,33
 142 614 142 614 169.5 623.5 c 128,-1,34
 197 633 197 633 226 633 c 0,35,36
 252 633 252 633 277 625 c 128,-1,37
 302 617 302 617 321 600.5 c 128,-1,38
 340 584 340 584 351.5 560 c 128,-1,39
 363 536 363 536 363 505 c 0,40,41
 363 459 363 459 333 410.5 c 128,-1,42
 303 362 303 362 238 321 c 1,43,-1
 272 283 l 2,0,1
172 285 m 1,44,45
 143 259 143 259 128.5 225 c 128,-1,46
 114 191 114 191 114 159 c 0,47,48
 114 120 114 120 134 94.5 c 128,-1,49
 154 69 154 69 183 62.5 c 128,-1,50
 212 56 212 56 246 70.5 c 128,-1,51
 280 85 280 85 308 125 c 1,52,53
 275 170 275 170 239.5 208.5 c 128,-1,54
 204 247 204 247 172 285 c 1,44,45
288 496 m 0,55,56
 288 532 288 532 268.5 550 c 128,-1,57
 249 568 249 568 224 568 c 0,58,59
 198 568 198 568 175.5 547.5 c 128,-1,60
 153 527 153 527 153 486 c 0,61,62
 153 457 153 457 162 432 c 128,-1,63
 171 407 171 407 200 369 c 1,64,65
 248 399 248 399 268 433 c 128,-1,66
 288 467 288 467 288 496 c 0,55,56
EndSplineSet
EndChar

StartChar: quotesingle
Encoding: 39 39 10
Width: 500
Flags: W
LayerCount: 2
Fore
SplineSet
293 679 m 1,0,-1
 293 634 l 2,1,2
 293 612 293 612 291.5 583.5 c 128,-1,3
 290 555 290 555 287.5 524.5 c 128,-1,4
 285 494 285 494 282 464.5 c 128,-1,5
 279 435 279 435 275 412 c 1,6,-1
 224 412 l 1,7,8
 220 435 220 435 217 464.5 c 128,-1,9
 214 494 214 494 211.5 524.5 c 128,-1,10
 209 555 209 555 207.5 584 c 128,-1,11
 206 613 206 613 206 635 c 2,12,-1
 206 679 l 1,13,-1
 293 679 l 1,0,-1
EndSplineSet
EndChar

StartChar: parenleft
Encoding: 40 40 11
Width: 500
Flags: W
LayerCount: 2
Fore
SplineSet
384 641 m 1,0,1
 291 569 291 569 242 475 c 128,-1,2
 193 381 193 381 193 270 c 0,3,4
 193 214 193 214 204.5 164 c 128,-1,5
 216 114 216 114 239.5 68 c 128,-1,6
 263 22 263 22 299.5 -21 c 128,-1,7
 336 -64 336 -64 386 -107 c 1,8,-1
 341 -167 l 1,9,10
 226 -82 226 -82 169.5 30.5 c 128,-1,11
 113 143 113 143 113 268 c 0,12,13
 113 392 113 392 170 505 c 128,-1,14
 227 618 227 618 341 701 c 1,15,-1
 385 641 l 1,16,-1
 384 641 l 1,0,1
EndSplineSet
Substitution2: "'case' Case-Sensitive Forms lookup 17 subtable" Parenleft
EndChar

StartChar: parenright
Encoding: 41 41 12
Width: 500
Flags: W
LayerCount: 2
Fore
SplineSet
115 -107 m 1,0,1
 208 -35 208 -35 257.5 59 c 128,-1,2
 307 153 307 153 307 264 c 0,3,4
 307 320 307 320 295.5 370 c 128,-1,5
 284 420 284 420 260 466 c 128,-1,6
 236 512 236 512 199.5 555 c 128,-1,7
 163 598 163 598 113 641 c 1,8,-1
 158 701 l 1,9,10
 273 616 273 616 329.5 503.5 c 128,-1,11
 386 391 386 391 386 266 c 0,12,13
 386 204 386 204 371.5 144 c 128,-1,14
 357 84 357 84 328.5 28.5 c 128,-1,15
 300 -27 300 -27 257.5 -76.5 c 128,-1,16
 215 -126 215 -126 158 -167 c 1,17,-1
 114 -107 l 1,18,-1
 115 -107 l 1,0,1
EndSplineSet
Substitution2: "'case' Case-Sensitive Forms lookup 17 subtable" Parenright
EndChar

StartChar: asterisk
Encoding: 42 42 13
Width: 500
Flags: W
LayerCount: 2
Fore
SplineSet
287 417 m 1,0,1
 314 392 314 392 343 364.5 c 128,-1,2
 372 337 372 337 392 306 c 2,3,-1
 396 301 l 1,4,-1
 326 250 l 1,5,-1
 321 256 l 2,6,7
 300 286 300 286 283 321.5 c 128,-1,8
 266 357 266 357 251 390 c 1,9,10
 235 357 235 357 218 321.5 c 128,-1,11
 201 286 201 286 178 256 c 1,12,-1
 173 251 l 1,13,-1
 104 301 l 1,14,-1
 109 307 l 2,15,16
 131 338 131 338 159 365 c 128,-1,17
 187 392 187 392 214 417 c 1,18,19
 177 422 177 422 138 427.5 c 128,-1,20
 99 433 99 433 64 445 c 2,21,-1
 57 447 l 1,22,-1
 84 529 l 1,23,-1
 91 526 l 2,24,25
 126 512 126 512 161.5 495 c 128,-1,26
 197 478 197 478 229 460 c 1,27,28
 221 496 221 496 214.5 535 c 128,-1,29
 208 574 208 574 208 612 c 2,30,-1
 208 619 l 1,31,-1
 294 619 l 1,32,-1
 294 612 l 2,33,34
 294 574 294 574 287.5 535 c 128,-1,35
 281 496 281 496 273 460 c 1,36,37
 305 479 305 479 340 495.5 c 128,-1,38
 375 512 375 512 410 525 c 2,39,-1
 417 528 l 1,40,-1
 443 446 l 1,41,-1
 437 444 l 2,42,43
 401 433 401 433 362.5 427 c 128,-1,44
 324 421 324 421 287 417 c 1,0,1
EndSplineSet
EndChar

StartChar: plus
Encoding: 43 43 14
Width: 500
Flags: W
LayerCount: 2
Fore
SplineSet
46 298 m 1,0,-1
 214 298 l 1,1,-1
 214 482 l 1,2,-1
 286 482 l 1,3,-1
 286 298 l 1,4,-1
 455 298 l 1,5,-1
 455 228 l 1,6,-1
 286 228 l 1,7,-1
 286 43 l 1,8,-1
 214 43 l 1,9,-1
 214 228 l 1,10,-1
 46 228 l 1,11,-1
 46 298 l 1,0,-1
EndSplineSet
EndChar

StartChar: comma
Encoding: 44 44 15
Width: 500
Flags: W
LayerCount: 2
Fore
SplineSet
149 -79 m 1,0,1
 167 -75 167 -75 184.5 -71 c 128,-1,2
 202 -67 202 -67 217 -59.5 c 128,-1,3
 232 -52 232 -52 244 -40.5 c 128,-1,4
 256 -29 256 -29 263 -9 c 1,5,6
 231 -6 231 -6 216.5 15.5 c 128,-1,7
 202 37 202 37 202 58 c 0,8,9
 202 98 202 98 224.5 118.5 c 128,-1,10
 247 139 247 139 276 139 c 0,11,12
 313 139 313 139 332 112.5 c 128,-1,13
 351 86 351 86 351 48 c 0,14,15
 351 19 351 19 339.5 -12.5 c 128,-1,16
 328 -44 328 -44 304.5 -71.5 c 128,-1,17
 281 -99 281 -99 246 -118.5 c 128,-1,18
 211 -138 211 -138 163 -144 c 1,19,-1
 149 -79 l 1,0,1
EndSplineSet
EndChar

StartChar: hyphen
Encoding: 45 45 16
Width: 500
Flags: W
LayerCount: 2
Fore
SplineSet
140 293 m 1,0,-1
 360 293 l 1,1,-1
 360 215 l 1,2,-1
 140 215 l 1,3,-1
 140 293 l 1,0,-1
EndSplineSet
Substitution2: "'case' Case-Sensitive Forms lookup 17 subtable" Hyphen
EndChar

StartChar: period
Encoding: 46 46 17
Width: 500
Flags: W
LayerCount: 2
Fore
SplineSet
324 64 m 0,0,1
 324 34 324 34 304 11 c 128,-1,2
 284 -12 284 -12 251 -12 c 0,3,4
 217 -12 217 -12 197 11 c 128,-1,5
 177 34 177 34 177 64 c 0,6,7
 177 95 177 95 197 118 c 128,-1,8
 217 141 217 141 251 141 c 0,9,10
 284 141 284 141 304 118 c 128,-1,11
 324 95 324 95 324 64 c 0,0,1
EndSplineSet
EndChar

StartChar: slash
Encoding: 47 47 18
Width: 500
Flags: W
LayerCount: 2
Fore
SplineSet
154 -165 m 1,0,-1
 69 -165 l 1,1,-1
 348 699 l 1,2,-1
 431 699 l 1,3,-1
 154 -165 l 1,0,-1
EndSplineSet
Substitution2: "'case' Case-Sensitive Forms lookup 17 subtable" Slash
Substitution2: "'ss02' Style Set 2 lookup 14 subtable" fraction
Substitution2: "'frac' Diagonal Fractions lookup 12 subtable" fraction
EndChar

StartChar: zero
Encoding: 48 48 19
Width: 500
Flags: W
LayerCount: 2
Fore
SplineSet
308 321 m 256,0,1
 308 295 308 295 292.5 276 c 128,-1,2
 277 257 277 257 252 257 c 0,3,4
 226 257 226 257 210 276 c 128,-1,5
 194 295 194 295 194 321 c 256,6,7
 194 347 194 347 210 367 c 128,-1,8
 226 387 226 387 252 387 c 0,9,10
 277 387 277 387 292.5 367 c 128,-1,11
 308 347 308 347 308 321 c 256,0,1
46 310 m 256,12,13
 46 466 46 466 99.5 549.5 c 128,-1,14
 153 633 153 633 250 633 c 0,15,16
 348 633 348 633 401 549.5 c 128,-1,17
 454 466 454 466 454 310 c 256,18,19
 454 154 454 154 401 70.5 c 128,-1,20
 348 -13 348 -13 250 -13 c 0,21,22
 153 -13 153 -13 99.5 70.5 c 128,-1,23
 46 154 46 154 46 310 c 256,12,13
370 310 m 256,24,25
 370 361 370 361 364 406.5 c 128,-1,26
 358 452 358 452 344 486 c 128,-1,27
 330 520 330 520 307 540 c 128,-1,28
 284 560 284 560 250 560 c 256,29,30
 216 560 216 560 193 540 c 128,-1,31
 170 520 170 520 156 486 c 128,-1,32
 142 452 142 452 136 406.5 c 128,-1,33
 130 361 130 361 130 310 c 256,34,35
 130 259 130 259 136 213.5 c 128,-1,36
 142 168 142 168 156 134 c 128,-1,37
 170 100 170 100 193 80 c 128,-1,38
 216 60 216 60 250 60 c 256,39,40
 284 60 284 60 307 80 c 128,-1,41
 330 100 330 100 344 134 c 128,-1,42
 358 168 358 168 364 213.5 c 128,-1,43
 370 259 370 259 370 310 c 256,24,25
EndSplineSet
Substitution2: "'ss02' Style Set 2 lookup 15 subtable" zerosuperior
Substitution2: "'sinf' Scientific Inferiors lookup 11 subtable" zero.sinf
Substitution2: "'subs' Subscript lookup 10 subtable" zero.sinf
Substitution2: "'sups' Superscript lookup 9 subtable" zero.sups
Substitution2: "'dnom' Denominators lookup 8 subtable" zeroinferior
Substitution2: "'numr' Numerators lookup 6 subtable" zerosuperior
EndChar

StartChar: one
Encoding: 49 49 20
Width: 500
Flags: W
LayerCount: 2
Fore
SplineSet
75 491 m 1,0,1
 126 511 126 511 174 541.5 c 128,-1,2
 222 572 222 572 263 619 c 1,3,-1
 321 619 l 1,4,-1
 321 70 l 1,5,-1
 438 70 l 1,6,-1
 438 0 l 1,7,-1
 105 0 l 1,8,-1
 105 70 l 1,9,-1
 239 70 l 1,10,-1
 239 504 l 1,11,12
 228 494 228 494 212.5 483.5 c 128,-1,13
 197 473 197 473 178.5 463 c 128,-1,14
 160 453 160 453 140 444 c 128,-1,15
 120 435 120 435 101 429 c 1,16,-1
 75 491 l 1,0,1
EndSplineSet
Substitution2: "'ss02' Style Set 2 lookup 15 subtable" onesuperior
Substitution2: "'sinf' Scientific Inferiors lookup 11 subtable" one.sinf
Substitution2: "'subs' Subscript lookup 10 subtable" one.sinf
Substitution2: "'sups' Superscript lookup 9 subtable" one.sups
Substitution2: "'dnom' Denominators lookup 8 subtable" oneinferior
Substitution2: "'numr' Numerators lookup 6 subtable" onesuperior
EndChar

StartChar: two
Encoding: 50 50 21
Width: 500
Flags: W
LayerCount: 2
Fore
SplineSet
420 461 m 0,0,1
 420 429 420 429 407.5 399 c 128,-1,2
 395 369 395 369 374.5 340 c 128,-1,3
 354 311 354 311 328 283 c 128,-1,4
 302 255 302 255 275 228 c 0,5,6
 260 213 260 213 240 192 c 128,-1,7
 220 171 220 171 202 149 c 128,-1,8
 184 127 184 127 172 106 c 128,-1,9
 160 85 160 85 160 70 c 1,10,-1
 445 70 l 1,11,-1
 445 0 l 1,12,-1
 70 0 l 1,13,14
 69 5 69 5 69 10.5 c 128,-1,15
 69 16 69 16 69 21 c 0,16,17
 69 63 69 63 83 99 c 128,-1,18
 97 135 97 135 119 167 c 128,-1,19
 141 199 141 199 168.5 227.5 c 128,-1,20
 196 256 196 256 223 283 c 0,21,22
 245 305 245 305 265.5 326 c 128,-1,23
 286 347 286 347 301.5 368 c 128,-1,24
 317 389 317 389 326.5 411.5 c 128,-1,25
 336 434 336 434 336 458 c 0,26,27
 336 485 336 485 327.5 504 c 128,-1,28
 319 523 319 523 304.5 535.5 c 128,-1,29
 290 548 290 548 271 554 c 128,-1,30
 252 560 252 560 230 560 c 0,31,32
 204 560 204 560 182.5 553 c 128,-1,33
 161 546 161 546 144.5 536 c 128,-1,34
 128 526 128 526 116 516.5 c 128,-1,35
 104 507 104 507 98 501 c 1,36,-1
 57 559 l 1,37,38
 65 568 65 568 81 581 c 128,-1,39
 97 594 97 594 119.5 605.5 c 128,-1,40
 142 617 142 617 170 625 c 128,-1,41
 198 633 198 633 230 633 c 0,42,43
 327 633 327 633 373.5 588.5 c 128,-1,44
 420 544 420 544 420 461 c 0,0,1
EndSplineSet
Substitution2: "'ss02' Style Set 2 lookup 15 subtable" twosuperior
Substitution2: "'sinf' Scientific Inferiors lookup 11 subtable" two.sinf
Substitution2: "'subs' Subscript lookup 10 subtable" two.sinf
Substitution2: "'sups' Superscript lookup 9 subtable" two.sups
Substitution2: "'dnom' Denominators lookup 8 subtable" twoinferior
Substitution2: "'numr' Numerators lookup 6 subtable" twosuperior
EndChar

StartChar: three
Encoding: 51 51 22
Width: 500
Flags: W
LayerCount: 2
Fore
SplineSet
212 60 m 0,0,1
 291 60 291 60 324.5 91.5 c 128,-1,2
 358 123 358 123 358 176 c 0,3,4
 358 210 358 210 344 233 c 128,-1,5
 330 256 330 256 307 270 c 128,-1,6
 284 284 284 284 254 290 c 128,-1,7
 224 296 224 296 191 296 c 2,8,-1
 170 296 l 1,9,-1
 170 363 l 1,10,-1
 199 363 l 2,11,12
 221 363 221 363 244.5 367.5 c 128,-1,13
 268 372 268 372 287.5 383.5 c 128,-1,14
 307 395 307 395 319 415 c 128,-1,15
 331 435 331 435 331 466 c 0,16,17
 331 517 331 517 299.5 538.5 c 128,-1,18
 268 560 268 560 226 560 c 0,19,20
 183 560 183 560 153 547.5 c 128,-1,21
 123 535 123 535 103 522 c 1,22,-1
 71 585 l 1,23,24
 92 600 92 600 134.5 616.5 c 128,-1,25
 177 633 177 633 229 633 c 0,26,27
 278 633 278 633 313 621 c 128,-1,28
 348 609 348 609 370.5 587 c 128,-1,29
 393 565 393 565 404 535.5 c 128,-1,30
 415 506 415 506 415 471 c 0,31,32
 415 422 415 422 389.5 388 c 128,-1,33
 364 354 364 354 324 336 c 1,34,35
 372 322 372 322 407 281.5 c 128,-1,36
 442 241 442 241 442 174 c 0,37,38
 442 134 442 134 428.5 99.5 c 128,-1,39
 415 65 415 65 387.5 40 c 128,-1,40
 360 15 360 15 316.5 1 c 128,-1,41
 273 -13 273 -13 213 -13 c 0,42,43
 190 -13 190 -13 165.5 -9.5 c 128,-1,44
 141 -6 141 -6 120 -0.5 c 128,-1,45
 99 5 99 5 82.5 10.5 c 128,-1,46
 66 16 66 16 59 19 c 1,47,-1
 75 90 l 1,48,49
 91 82 91 82 126 71 c 128,-1,50
 161 60 161 60 212 60 c 0,0,1
EndSplineSet
Substitution2: "'ss02' Style Set 2 lookup 15 subtable" threesuperior
Substitution2: "'sinf' Scientific Inferiors lookup 11 subtable" three.sinf
Substitution2: "'subs' Subscript lookup 10 subtable" three.sinf
Substitution2: "'sups' Superscript lookup 9 subtable" three.sups
Substitution2: "'dnom' Denominators lookup 8 subtable" threeinferior
Substitution2: "'numr' Numerators lookup 6 subtable" threesuperior
EndChar

StartChar: four
Encoding: 52 52 23
Width: 500
Flags: W
LayerCount: 2
Fore
SplineSet
36 214 m 1,0,1
 53 254 53 254 82.5 306 c 128,-1,2
 112 358 112 358 149 413.5 c 128,-1,3
 186 469 186 469 228 522.5 c 128,-1,4
 270 576 270 576 313 619 c 1,5,-1
 393 619 l 1,6,-1
 393 226 l 1,7,-1
 466 226 l 1,8,-1
 466 158 l 1,9,-1
 393 158 l 1,10,-1
 393 0 l 1,11,-1
 313 0 l 1,12,-1
 313 158 l 1,13,-1
 36 158 l 1,14,-1
 36 214 l 1,0,1
313 521 m 1,15,16
 286 492 286 492 258.5 457 c 128,-1,17
 231 422 231 422 205 383.5 c 128,-1,18
 179 345 179 345 156.5 305 c 128,-1,19
 134 265 134 265 116 226 c 1,20,-1
 313 226 l 1,21,-1
 313 521 l 1,15,16
EndSplineSet
Substitution2: "'ss02' Style Set 2 lookup 15 subtable" foursuperior
Substitution2: "'sinf' Scientific Inferiors lookup 11 subtable" four.sinf
Substitution2: "'subs' Subscript lookup 10 subtable" four.sinf
Substitution2: "'sups' Superscript lookup 9 subtable" four.sups
Substitution2: "'dnom' Denominators lookup 8 subtable" fourinferior
Substitution2: "'numr' Numerators lookup 6 subtable" foursuperior
EndChar

StartChar: five
Encoding: 53 53 24
Width: 500
Flags: W
LayerCount: 2
Fore
SplineSet
186 380 m 1,0,1
 320 375 320 375 381 321 c 128,-1,2
 442 267 442 267 442 176 c 0,3,4
 442 135 442 135 429 100 c 128,-1,5
 416 65 416 65 388.5 40 c 128,-1,6
 361 15 361 15 318.5 1 c 128,-1,7
 276 -13 276 -13 218 -13 c 0,8,9
 194 -13 194 -13 170.5 -9.5 c 128,-1,10
 147 -6 147 -6 126 -1 c 128,-1,11
 105 4 105 4 89 9.5 c 128,-1,12
 73 15 73 15 66 19 c 1,13,-1
 82 90 l 1,14,15
 98 82 98 82 131.5 71 c 128,-1,16
 165 60 165 60 216 60 c 0,17,18
 256 60 256 60 283 69 c 128,-1,19
 310 78 310 78 326.5 93.5 c 128,-1,20
 343 109 343 109 350.5 129 c 128,-1,21
 358 149 358 149 358 171 c 0,22,23
 358 205 358 205 346.5 231.5 c 128,-1,24
 335 258 335 258 306.5 276 c 128,-1,25
 278 294 278 294 228.5 303.5 c 128,-1,26
 179 313 179 313 104 313 c 1,27,28
 110 357 110 357 113.5 395.5 c 128,-1,29
 117 434 117 434 119.5 470.5 c 128,-1,30
 122 507 122 507 123.5 543 c 128,-1,31
 125 579 125 579 127 619 c 1,32,-1
 425 619 l 1,33,-1
 425 549 l 1,34,-1
 199 549 l 1,35,36
 198 535 198 535 196.5 512.5 c 128,-1,37
 195 490 195 490 193 465 c 128,-1,38
 191 440 191 440 189 417 c 128,-1,39
 187 394 187 394 186 380 c 1,0,1
EndSplineSet
Substitution2: "'ss02' Style Set 2 lookup 15 subtable" fivesuperior
Substitution2: "'sinf' Scientific Inferiors lookup 11 subtable" five.sinf
Substitution2: "'subs' Subscript lookup 10 subtable" five.sinf
Substitution2: "'sups' Superscript lookup 9 subtable" five.sups
Substitution2: "'dnom' Denominators lookup 8 subtable" fiveinferior
Substitution2: "'numr' Numerators lookup 6 subtable" fivesuperior
EndChar

StartChar: six
Encoding: 54 54 25
Width: 500
Flags: W
LayerCount: 2
Fore
SplineSet
54 248 m 0,0,1
 54 338 54 338 78.5 407.5 c 128,-1,2
 103 477 103 477 148.5 524 c 128,-1,3
 194 571 194 571 259 596 c 128,-1,4
 324 621 324 621 406 622 c 1,5,-1
 413 552 l 1,6,7
 360 551 360 551 316.5 540.5 c 128,-1,8
 273 530 273 530 239 506.5 c 128,-1,9
 205 483 205 483 182 446 c 128,-1,10
 159 409 159 409 147 355 c 1,11,12
 171 366 171 366 199.5 373 c 128,-1,13
 228 380 228 380 260 380 c 0,14,15
 312 380 312 380 348.5 364 c 128,-1,16
 385 348 385 348 407 321.5 c 128,-1,17
 429 295 429 295 439 260 c 128,-1,18
 449 225 449 225 449 188 c 0,19,20
 449 154 449 154 438 118.5 c 128,-1,21
 427 83 427 83 404 53.5 c 128,-1,22
 381 24 381 24 345 5.5 c 128,-1,23
 309 -13 309 -13 259 -13 c 0,24,25
 156 -13 156 -13 105 56 c 128,-1,26
 54 125 54 125 54 248 c 0,0,1
251 312 m 0,27,28
 219 312 219 312 192.5 306 c 128,-1,29
 166 300 166 300 139 288 c 1,30,31
 138 278 138 278 138 268.5 c 128,-1,32
 138 259 138 259 138 248 c 0,33,34
 138 209 138 209 143.5 174.5 c 128,-1,35
 149 140 149 140 162.5 113.5 c 128,-1,36
 176 87 176 87 199 71.5 c 128,-1,37
 222 56 222 56 258 56 c 0,38,39
 288 56 288 56 308 68.5 c 128,-1,40
 328 81 328 81 341 100 c 128,-1,41
 354 119 354 119 359.5 142.5 c 128,-1,42
 365 166 365 166 365 187 c 0,43,44
 365 248 365 248 337.5 280 c 128,-1,45
 310 312 310 312 251 312 c 0,27,28
EndSplineSet
Substitution2: "'ss02' Style Set 2 lookup 15 subtable" sixsuperior
Substitution2: "'sinf' Scientific Inferiors lookup 11 subtable" six.sinf
Substitution2: "'subs' Subscript lookup 10 subtable" six.sinf
Substitution2: "'sups' Superscript lookup 9 subtable" six.sups
Substitution2: "'dnom' Denominators lookup 8 subtable" sixinferior
Substitution2: "'numr' Numerators lookup 6 subtable" sixsuperior
EndChar

StartChar: seven
Encoding: 55 55 26
Width: 500
Flags: W
LayerCount: 2
Fore
SplineSet
155 0 m 1,0,1
 160 71 160 71 180.5 150.5 c 128,-1,2
 201 230 201 230 230 304.5 c 128,-1,3
 259 379 259 379 294 442.5 c 128,-1,4
 329 506 329 506 363 547 c 1,5,-1
 63 547 l 1,6,-1
 63 619 l 1,7,-1
 455 619 l 1,8,-1
 455 550 l 1,9,10
 425 515 425 515 390 456 c 128,-1,11
 355 397 355 397 323.5 323.5 c 128,-1,12
 292 250 292 250 269 166.5 c 128,-1,13
 246 83 246 83 240 0 c 1,14,-1
 155 0 l 1,0,1
EndSplineSet
Substitution2: "'ss02' Style Set 2 lookup 15 subtable" sevensuperior
Substitution2: "'sinf' Scientific Inferiors lookup 11 subtable" seven.sinf
Substitution2: "'subs' Subscript lookup 10 subtable" seven.sinf
Substitution2: "'sups' Superscript lookup 9 subtable" seven.sups
Substitution2: "'dnom' Denominators lookup 8 subtable" seveninferior
Substitution2: "'numr' Numerators lookup 6 subtable" sevensuperior
EndChar

StartChar: eight
Encoding: 56 56 27
Width: 500
Flags: W
LayerCount: 2
Fore
SplineSet
449 161 m 0,0,1
 449 83 449 83 399.5 35 c 128,-1,2
 350 -13 350 -13 249 -13 c 0,3,4
 191 -13 191 -13 153 2.5 c 128,-1,5
 115 18 115 18 92.5 42.5 c 128,-1,6
 70 67 70 67 60.5 97 c 128,-1,7
 51 127 51 127 51 156 c 0,8,9
 51 209 51 209 80 250 c 128,-1,10
 109 291 109 291 149 316 c 1,11,12
 64 364 64 364 64 463 c 0,13,14
 64 497 64 497 77 528 c 128,-1,15
 90 559 90 559 114 582 c 128,-1,16
 138 605 138 605 172.5 619 c 128,-1,17
 207 633 207 633 250 633 c 0,18,19
 300 633 300 633 335.5 618 c 128,-1,20
 371 603 371 603 393 579.5 c 128,-1,21
 415 556 415 556 425 527.5 c 128,-1,22
 435 499 435 499 435 472 c 0,23,24
 435 419 435 419 408 380.5 c 128,-1,25
 381 342 381 342 346 319 c 1,26,27
 449 270 449 270 449 161 c 0,0,1
131 155 m 0,28,29
 131 139 131 139 137 121.5 c 128,-1,30
 143 104 143 104 157 89 c 128,-1,31
 171 74 171 74 194 64.5 c 128,-1,32
 217 55 217 55 250 55 c 0,33,34
 281 55 281 55 303.5 63.5 c 128,-1,35
 326 72 326 72 340.5 86.5 c 128,-1,36
 355 101 355 101 362 119 c 128,-1,37
 369 137 369 137 369 155 c 0,38,39
 369 212 369 212 328 242.5 c 128,-1,40
 287 273 287 273 215 289 c 1,41,42
 175 267 175 267 153 234 c 128,-1,43
 131 201 131 201 131 155 c 0,28,29
355 472 m 0,44,45
 355 485 355 485 349 501.5 c 128,-1,46
 343 518 343 518 330.5 531.5 c 128,-1,47
 318 545 318 545 298 554.5 c 128,-1,48
 278 564 278 564 250 564 c 0,49,50
 221 564 221 564 201.5 555 c 128,-1,51
 182 546 182 546 169 532.5 c 128,-1,52
 156 519 156 519 150.5 502.5 c 128,-1,53
 145 486 145 486 145 470 c 0,54,55
 145 429 145 429 174.5 393.5 c 128,-1,56
 204 358 204 358 272 342 c 1,57,58
 310 364 310 364 332.5 394 c 128,-1,59
 355 424 355 424 355 472 c 0,44,45
EndSplineSet
Substitution2: "'ss02' Style Set 2 lookup 15 subtable" eightsuperior
Substitution2: "'sinf' Scientific Inferiors lookup 11 subtable" eight.sinf
Substitution2: "'subs' Subscript lookup 10 subtable" eight.sinf
Substitution2: "'sups' Superscript lookup 9 subtable" eight.sups
Substitution2: "'dnom' Denominators lookup 8 subtable" eightinferior
Substitution2: "'numr' Numerators lookup 6 subtable" eightsuperior
EndChar

StartChar: nine
Encoding: 57 57 28
Width: 500
Flags: W
LayerCount: 2
Fore
SplineSet
447 371 m 0,0,1
 447 186 447 186 357 92.5 c 128,-1,2
 267 -1 267 -1 86 -2 c 1,3,-1
 83 68 l 1,4,5
 195 68 195 68 263.5 112.5 c 128,-1,6
 332 157 332 157 354 266 c 1,7,8
 330 255 330 255 301 248.5 c 128,-1,9
 272 242 272 242 240 242 c 0,10,11
 187 242 187 242 151 257.5 c 128,-1,12
 115 273 115 273 93 299.5 c 128,-1,13
 71 326 71 326 61 360 c 128,-1,14
 51 394 51 394 51 432 c 0,15,16
 51 466 51 466 62 501.5 c 128,-1,17
 73 537 73 537 96 566 c 128,-1,18
 119 595 119 595 155 614 c 128,-1,19
 191 633 191 633 241 633 c 0,20,21
 343 633 343 633 395 563 c 128,-1,22
 447 493 447 493 447 371 c 0,0,1
249 310 m 0,23,24
 281 310 281 310 308.5 316 c 128,-1,25
 336 322 336 322 362 333 c 1,26,27
 363 343 363 343 363 352 c 128,-1,28
 363 361 363 361 363 371 c 0,29,30
 363 410 363 410 357.5 445 c 128,-1,31
 352 480 352 480 338.5 506 c 128,-1,32
 325 532 325 532 301.5 547.5 c 128,-1,33
 278 563 278 563 242 563 c 0,34,35
 212 563 212 563 192 550.5 c 128,-1,36
 172 538 172 538 159 519.5 c 128,-1,37
 146 501 146 501 140.5 478 c 128,-1,38
 135 455 135 455 135 434 c 0,39,40
 135 373 135 373 162.5 341.5 c 128,-1,41
 190 310 190 310 249 310 c 0,23,24
EndSplineSet
Substitution2: "'ss02' Style Set 2 lookup 15 subtable" ninesuperior
Substitution2: "'sinf' Scientific Inferiors lookup 11 subtable" nine.sinf
Substitution2: "'subs' Subscript lookup 10 subtable" nine.sinf
Substitution2: "'sups' Superscript lookup 9 subtable" nine.sups
Substitution2: "'dnom' Denominators lookup 8 subtable" nineinferior
Substitution2: "'numr' Numerators lookup 6 subtable" ninesuperior
EndChar

StartChar: less
Encoding: 60 60 31
Width: 500
Flags: W
LayerCount: 2
Fore
SplineSet
141 255 m 1,0,-1
 458 124 l 1,1,-1
 435 55 l 1,2,-1
 49 219 l 1,3,-1
 49 290 l 1,4,-1
 435 454 l 1,5,-1
 458 385 l 1,6,-1
 141 255 l 1,0,-1
EndSplineSet
EndChar

StartChar: equal
Encoding: 61 61 32
Width: 500
Flags: W
LayerCount: 2
Fore
SplineSet
46 203 m 1,0,-1
 455 203 l 1,1,-1
 455 132 l 1,2,-1
 46 132 l 1,3,-1
 46 203 l 1,0,-1
46 393 m 1,4,-1
 455 393 l 1,5,-1
 455 322 l 1,6,-1
 46 322 l 1,7,-1
 46 393 l 1,4,-1
EndSplineSet
EndChar

StartChar: greater
Encoding: 62 62 33
Width: 500
Flags: W
LayerCount: 2
Fore
SplineSet
49 385 m 1,0,-1
 72 454 l 1,1,-1
 458 290 l 1,2,-1
 458 219 l 1,3,-1
 72 55 l 1,4,-1
 49 124 l 1,5,-1
 366 255 l 1,6,-1
 49 385 l 1,0,-1
EndSplineSet
EndChar

StartChar: question
Encoding: 63 63 34
Width: 500
Flags: W
LayerCount: 2
Fore
SplineSet
185 211 m 1,0,-1
 184 230 l 2,1,2
 184 273 184 273 206 304.5 c 128,-1,3
 228 336 228 336 254.5 363 c 128,-1,4
 281 390 281 390 303 417 c 128,-1,5
 325 444 325 444 325 479 c 0,6,7
 325 517 325 517 301 540 c 128,-1,8
 277 563 277 563 230 563 c 0,9,10
 201 563 201 563 172.5 556 c 128,-1,11
 144 549 144 549 115 533 c 1,12,-1
 92 597 l 1,13,14
 122 614 122 614 160 623.5 c 128,-1,15
 198 633 198 633 241 633 c 0,16,17
 292 633 292 633 324.5 619 c 128,-1,18
 357 605 357 605 376 583.5 c 128,-1,19
 395 562 395 562 402.5 536 c 128,-1,20
 410 510 410 510 410 486 c 0,21,22
 410 456 410 456 398.5 432.5 c 128,-1,23
 387 409 387 409 370 388 c 128,-1,24
 353 367 353 367 333 348 c 128,-1,25
 313 329 313 329 296 308.5 c 128,-1,26
 279 288 279 288 267.5 264 c 128,-1,27
 256 240 256 240 256 211 c 1,28,-1
 185 211 l 1,0,-1
228 -12 m 0,29,30
 200 -12 200 -12 180.5 6.5 c 128,-1,31
 161 25 161 25 161 56 c 256,32,33
 161 87 161 87 180.5 105.5 c 128,-1,34
 200 124 200 124 228 124 c 0,35,36
 255 124 255 124 275 105.5 c 128,-1,37
 295 87 295 87 295 56 c 256,38,39
 295 25 295 25 275 6.5 c 128,-1,40
 255 -12 255 -12 228 -12 c 0,29,30
EndSplineSet
EndChar

StartChar: at
Encoding: 64 64 35
Width: 500
Flags: W
LayerCount: 2
Fore
SplineSet
468 63 m 1,0,1
 438 51 438 51 407 46.5 c 128,-1,2
 376 42 376 42 350 42 c 0,3,4
 315 42 315 42 285 53.5 c 128,-1,5
 255 65 255 65 232.5 89 c 128,-1,6
 210 113 210 113 197.5 150.5 c 128,-1,7
 185 188 185 188 185 240 c 0,8,9
 185 333 185 333 233 381.5 c 128,-1,10
 281 430 281 430 358 430 c 0,11,12
 366 430 366 430 373.5 429.5 c 128,-1,13
 381 429 381 429 389 428 c 1,14,15
 389 491 389 491 363 528 c 128,-1,16
 337 565 337 565 280 565 c 0,17,18
 245 565 245 565 216 548 c 128,-1,19
 187 531 187 531 166 493.5 c 128,-1,20
 145 456 145 456 133 397 c 128,-1,21
 121 338 121 338 121 254 c 0,22,23
 121 191 121 191 133 132.5 c 128,-1,24
 145 74 145 74 170.5 30 c 128,-1,25
 196 -14 196 -14 235.5 -40.5 c 128,-1,26
 275 -67 275 -67 330 -67 c 0,27,28
 370 -67 370 -67 413 -54 c 1,29,-1
 421 -121 l 1,30,31
 368 -135 368 -135 323 -135 c 0,32,33
 250 -135 250 -135 196.5 -102.5 c 128,-1,34
 143 -70 143 -70 108.5 -17 c 128,-1,35
 74 36 74 36 57 104 c 128,-1,36
 40 172 40 172 40 243 c 0,37,38
 40 346 40 346 58.5 420 c 128,-1,39
 77 494 77 494 109.5 541 c 128,-1,40
 142 588 142 588 185 610.5 c 128,-1,41
 228 633 228 633 278 633 c 0,42,43
 366 633 366 633 417 573.5 c 128,-1,44
 468 514 468 514 468 408 c 2,45,-1
 468 63 l 1,0,1
265 240 m 0,46,47
 265 220 265 220 267.5 197 c 128,-1,48
 270 174 270 174 279 154.5 c 128,-1,49
 288 135 288 135 304.5 121.5 c 128,-1,50
 321 108 321 108 350 108 c 0,51,52
 358 108 358 108 368 109 c 128,-1,53
 378 110 378 110 389 113 c 1,54,-1
 389 358 l 1,55,56
 380 361 380 361 371.5 362 c 128,-1,57
 363 363 363 363 355 363 c 0,58,59
 312 363 312 363 288.5 329.5 c 128,-1,60
 265 296 265 296 265 240 c 0,46,47
EndSplineSet
Substitution2: "'case' Case-Sensitive Forms lookup 17 subtable" At
EndChar

StartChar: A
Encoding: 65 65 36
Width: 500
Flags: W
LayerCount: 2
Fore
SplineSet
404 0 m 1,0,-1
 367 162 l 1,1,-1
 129 162 l 1,2,-1
 93 0 l 1,3,-1
 9 0 l 1,4,5
 26 66 26 66 47 143 c 128,-1,6
 68 220 68 220 92.5 301 c 128,-1,7
 117 382 117 382 144 463.5 c 128,-1,8
 171 545 171 545 201 619 c 1,9,-1
 303 619 l 1,10,11
 332 545 332 545 358.5 463.5 c 128,-1,12
 385 382 385 382 408.5 301 c 128,-1,13
 432 220 432 220 453 143 c 128,-1,14
 474 66 474 66 491 0 c 1,15,-1
 404 0 l 1,0,-1
249 547 m 1,16,17
 226 484 226 484 199 401 c 128,-1,18
 172 318 172 318 148 230 c 1,19,-1
 348 230 l 1,20,21
 325 320 325 320 298.5 403.5 c 128,-1,22
 272 487 272 487 249 547 c 1,16,17
EndSplineSet
EndChar

StartChar: B
Encoding: 66 66 37
Width: 500
Flags: W
LayerCount: 2
Fore
SplineSet
204 -5 m 0,0,1
 189 -5 189 -5 169 -4 c 128,-1,2
 149 -3 149 -3 129 -1.5 c 128,-1,3
 109 0 109 0 89 3 c 128,-1,4
 69 6 69 6 54 10 c 1,5,-1
 54 610 l 1,6,7
 69 614 69 614 88.5 617 c 128,-1,8
 108 620 108 620 128.5 621.5 c 128,-1,9
 149 623 149 623 168.5 624 c 128,-1,10
 188 625 188 625 204 625 c 0,11,12
 250 625 250 625 290 617 c 128,-1,13
 330 609 330 609 359.5 590 c 128,-1,14
 389 571 389 571 405.5 540 c 128,-1,15
 422 509 422 509 422 463 c 0,16,17
 422 441 422 441 415 420.5 c 128,-1,18
 408 400 408 400 395.5 382 c 128,-1,19
 383 364 383 364 366.5 350.5 c 128,-1,20
 350 337 350 337 331 330 c 1,21,22
 382 316 382 316 416.5 278.5 c 128,-1,23
 451 241 451 241 451 181 c 0,24,25
 451 89 451 89 392 42 c 128,-1,26
 333 -5 333 -5 204 -5 c 0,0,1
136 289 m 1,27,-1
 136 68 l 2,28,29
 138 67 138 67 158.5 65.5 c 128,-1,30
 179 64 179 64 210 64 c 256,31,32
 241 64 241 64 269.5 69 c 128,-1,33
 298 74 298 74 320 87.5 c 128,-1,34
 342 101 342 101 355.5 123 c 128,-1,35
 369 145 369 145 369 180 c 0,36,37
 369 211 369 211 356.5 232 c 128,-1,38
 344 253 344 253 323.5 265.5 c 128,-1,39
 303 278 303 278 276 283.5 c 128,-1,40
 249 289 249 289 220 289 c 2,41,-1
 136 289 l 1,27,-1
136 357 m 1,42,-1
 201 357 l 2,43,44
 226 357 226 357 251 362 c 128,-1,45
 276 367 276 367 296 378 c 128,-1,46
 316 389 316 389 328 408 c 128,-1,47
 340 427 340 427 340 456 c 0,48,49
 340 483 340 483 329 502 c 128,-1,50
 318 521 318 521 300 533 c 128,-1,51
 282 545 282 545 258.5 550 c 128,-1,52
 235 555 235 555 209 555 c 256,53,54
 183 555 183 555 163.5 554.5 c 128,-1,55
 144 554 144 554 136 552 c 1,56,-1
 136 357 l 1,42,-1
EndSplineSet
EndChar

StartChar: C
Encoding: 67 67 38
Width: 500
Flags: W
LayerCount: 2
Fore
SplineSet
460 26 m 1,0,1
 425 6 425 6 385.5 -3.5 c 128,-1,2
 346 -13 346 -13 301 -13 c 0,3,4
 246 -13 246 -13 199.5 6.5 c 128,-1,5
 153 26 153 26 119 65.5 c 128,-1,6
 85 105 85 105 65.5 166 c 128,-1,7
 46 227 46 227 46 310 c 0,8,9
 46 389 46 389 66.5 449 c 128,-1,10
 87 509 87 509 122 550 c 128,-1,11
 157 591 157 591 204 612 c 128,-1,12
 251 633 251 633 304 633 c 0,13,14
 341 633 341 633 379.5 623 c 128,-1,15
 418 613 418 613 455 590 c 1,16,-1
 431 522 l 1,17,18
 365 560 365 560 307 560 c 0,19,20
 266 560 266 560 233.5 542.5 c 128,-1,21
 201 525 201 525 178 492 c 128,-1,22
 155 459 155 459 142.5 413 c 128,-1,23
 130 367 130 367 130 310 c 0,24,25
 130 246 130 246 143.5 199 c 128,-1,26
 157 152 157 152 181 121 c 128,-1,27
 205 90 205 90 238.5 75 c 128,-1,28
 272 60 272 60 311 60 c 0,29,30
 340 60 340 60 372 67.5 c 128,-1,31
 404 75 404 75 438 94 c 1,32,-1
 460 26 l 1,0,1
EndSplineSet
EndChar

StartChar: D
Encoding: 68 68 39
Width: 500
Flags: W
LayerCount: 2
Fore
SplineSet
460 310 m 0,0,1
 460 224 460 224 438.5 164 c 128,-1,2
 417 104 417 104 379.5 66.5 c 128,-1,3
 342 29 342 29 290.5 12 c 128,-1,4
 239 -5 239 -5 179 -5 c 0,5,6
 117 -5 117 -5 54 10 c 1,7,-1
 54 610 l 1,8,9
 117 625 117 625 179 625 c 0,10,11
 239 625 239 625 290.5 608 c 128,-1,12
 342 591 342 591 379.5 553 c 128,-1,13
 417 515 417 515 438.5 455 c 128,-1,14
 460 395 460 395 460 310 c 0,0,1
136 69 m 1,15,16
 161 66 161 66 187 66 c 0,17,18
 232 66 232 66 267 79.5 c 128,-1,19
 302 93 302 93 326 122.5 c 128,-1,20
 350 152 350 152 363 198.5 c 128,-1,21
 376 245 376 245 376 310 c 0,22,23
 376 436 376 436 327.5 495 c 128,-1,24
 279 554 279 554 184 554 c 0,25,26
 171 554 171 554 158.5 553.5 c 128,-1,27
 146 553 146 553 136 551 c 1,28,-1
 136 69 l 1,15,16
EndSplineSet
EndChar

StartChar: E
Encoding: 69 69 40
Width: 500
Flags: W
LayerCount: 2
Fore
SplineSet
91 0 m 1,0,-1
 91 619 l 1,1,-1
 438 619 l 1,2,-1
 438 549 l 1,3,-1
 173 549 l 1,4,-1
 173 359 l 1,5,-1
 405 359 l 1,6,-1
 405 289 l 1,7,-1
 173 289 l 1,8,-1
 173 70 l 1,9,-1
 460 70 l 1,10,-1
 460 0 l 1,11,-1
 91 0 l 1,0,-1
EndSplineSet
EndChar

StartChar: F
Encoding: 70 70 41
Width: 500
Flags: W
LayerCount: 2
Fore
SplineSet
91 0 m 1,0,-1
 91 619 l 1,1,-1
 442 619 l 1,2,-1
 442 549 l 1,3,-1
 173 549 l 1,4,-1
 173 356 l 1,5,-1
 410 356 l 1,6,-1
 410 287 l 1,7,-1
 173 287 l 1,8,-1
 173 0 l 1,9,-1
 91 0 l 1,0,-1
EndSplineSet
EndChar

StartChar: G
Encoding: 71 71 42
Width: 500
Flags: W
LayerCount: 2
Fore
SplineSet
373 305 m 1,0,-1
 455 305 l 1,1,-1
 455 15 l 1,2,3
 436 8 436 8 394 -2.5 c 128,-1,4
 352 -13 352 -13 295 -13 c 0,5,6
 239 -13 239 -13 193 8.5 c 128,-1,7
 147 30 147 30 114.5 71 c 128,-1,8
 82 112 82 112 64 172.5 c 128,-1,9
 46 233 46 233 46 310 c 0,10,11
 46 388 46 388 66 448 c 128,-1,12
 86 508 86 508 120.5 549 c 128,-1,13
 155 590 155 590 201 611.5 c 128,-1,14
 247 633 247 633 300 633 c 0,15,16
 334 633 334 633 360 628 c 128,-1,17
 386 623 386 623 404.5 616 c 128,-1,18
 423 609 423 609 435 601.5 c 128,-1,19
 447 594 447 594 453 590 c 1,20,-1
 426 521 l 1,21,22
 403 539 403 539 371.5 550.5 c 128,-1,23
 340 562 340 562 305 562 c 0,24,25
 267 562 267 562 234.5 544 c 128,-1,26
 202 526 202 526 179 493 c 128,-1,27
 156 460 156 460 143 413.5 c 128,-1,28
 130 367 130 367 130 310 c 0,29,30
 130 254 130 254 141.5 208 c 128,-1,31
 153 162 153 162 175 129 c 128,-1,32
 197 96 197 96 229.5 77.5 c 128,-1,33
 262 59 262 59 304 59 c 0,34,35
 333 59 333 59 349 63 c 128,-1,36
 365 67 365 67 373 71 c 1,37,-1
 373 305 l 1,0,-1
EndSplineSet
EndChar

StartChar: H
Encoding: 72 72 43
Width: 500
Flags: W
LayerCount: 2
Fore
SplineSet
373 619 m 1,0,-1
 455 619 l 1,1,-1
 455 0 l 1,2,-1
 373 0 l 1,3,-1
 373 288 l 1,4,-1
 127 288 l 1,5,-1
 127 0 l 1,6,-1
 45 0 l 1,7,-1
 45 619 l 1,8,-1
 127 619 l 1,9,-1
 127 358 l 1,10,-1
 373 358 l 1,11,-1
 373 619 l 1,0,-1
EndSplineSet
EndChar

StartChar: I
Encoding: 73 73 44
Width: 500
Flags: W
LayerCount: 2
Fore
SplineSet
291 549 m 1,0,-1
 291 70 l 1,1,-1
 411 70 l 1,2,-1
 411 0 l 1,3,-1
 89 0 l 1,4,-1
 89 70 l 1,5,-1
 209 70 l 1,6,-1
 209 549 l 1,7,-1
 89 549 l 1,8,-1
 89 619 l 1,9,-1
 411 619 l 1,10,-1
 411 549 l 1,11,-1
 291 549 l 1,0,-1
EndSplineSet
EndChar

StartChar: J
Encoding: 74 74 45
Width: 500
Flags: W
LayerCount: 2
Fore
SplineSet
127 549 m 1,0,-1
 127 619 l 1,1,-1
 420 619 l 1,2,-1
 420 199 l 2,3,4
 420 155 420 155 410.5 116 c 128,-1,5
 401 77 401 77 377.5 48.5 c 128,-1,6
 354 20 354 20 314.5 3.5 c 128,-1,7
 275 -13 275 -13 215 -13 c 256,8,9
 155 -13 155 -13 114 4 c 128,-1,10
 73 21 73 21 54 37 c 1,11,-1
 87 104 l 1,12,13
 106 90 106 90 137.5 74 c 128,-1,14
 169 58 169 58 211 58 c 0,15,16
 275 58 275 58 306.5 92 c 128,-1,17
 338 126 338 126 338 207 c 2,18,-1
 338 549 l 1,19,-1
 127 549 l 1,0,-1
EndSplineSet
EndChar

StartChar: K
Encoding: 75 75 46
Width: 500
Flags: W
LayerCount: 2
Fore
SplineSet
470 619 m 1,0,1
 421 546 421 546 362.5 474 c 128,-1,2
 304 402 304 402 236 330 c 1,3,4
 268 303 268 303 304 267 c 128,-1,5
 340 231 340 231 374.5 188.5 c 128,-1,6
 409 146 409 146 439.5 98 c 128,-1,7
 470 50 470 50 491 0 c 1,8,-1
 398 0 l 1,9,10
 373 46 373 46 344 90 c 128,-1,11
 315 134 315 134 282.5 172 c 128,-1,12
 250 210 250 210 215.5 241.5 c 128,-1,13
 181 273 181 273 146 296 c 1,14,-1
 146 0 l 1,15,-1
 64 0 l 1,16,-1
 64 619 l 1,17,-1
 146 619 l 1,18,-1
 146 343 l 1,19,20
 211 410 211 410 270.5 483 c 128,-1,21
 330 556 330 556 375 619 c 1,22,-1
 470 619 l 1,0,1
EndSplineSet
EndChar

StartChar: L
Encoding: 76 76 47
Width: 500
Flags: W
LayerCount: 2
Fore
SplineSet
460 70 m 1,0,-1
 460 0 l 1,1,-1
 91 0 l 1,2,-1
 91 619 l 1,3,-1
 173 619 l 1,4,-1
 173 70 l 1,5,-1
 460 70 l 1,0,-1
EndSplineSet
EndChar

StartChar: M
Encoding: 77 77 48
Width: 500
Flags: W
LayerCount: 2
Fore
SplineSet
251 311 m 1,0,-1
 347 619 l 1,1,-1
 424 619 l 1,2,3
 444 473 444 473 452.5 320 c 128,-1,4
 461 167 461 167 468 0 c 1,5,-1
 388 0 l 1,6,7
 387 54 387 54 386 117 c 128,-1,8
 385 180 385 180 383.5 247 c 128,-1,9
 382 314 382 314 380.5 383 c 128,-1,10
 379 452 379 452 377 517 c 1,11,-1
 287 235 l 1,12,-1
 215 235 l 1,13,-1
 123 517 l 1,14,15
 122 452 122 452 120.5 383.5 c 128,-1,16
 119 315 119 315 117.5 247.5 c 128,-1,17
 116 180 116 180 114.5 117 c 128,-1,18
 113 54 113 54 112 0 c 1,19,-1
 32 0 l 1,20,21
 35 76 35 76 39 156 c 128,-1,22
 43 236 43 236 48.5 315 c 128,-1,23
 54 394 54 394 61.5 471 c 128,-1,24
 69 548 69 548 78 619 c 1,25,-1
 154 619 l 1,26,-1
 251 311 l 1,0,-1
EndSplineSet
EndChar

StartChar: N
Encoding: 78 78 49
Width: 500
Flags: W
LayerCount: 2
Fore
SplineSet
361 0 m 1,0,1
 327 83 327 83 297 150.5 c 128,-1,2
 267 218 267 218 239.5 277 c 128,-1,3
 212 336 212 336 185 388.5 c 128,-1,4
 158 441 158 441 130 494 c 1,5,-1
 130 0 l 1,6,-1
 55 0 l 1,7,-1
 55 619 l 1,8,-1
 139 619 l 1,9,10
 180 544 180 544 210.5 488 c 128,-1,11
 241 432 241 432 266.5 379.5 c 128,-1,12
 292 327 292 327 316 271.5 c 128,-1,13
 340 216 340 216 370 143 c 1,14,-1
 370 619 l 1,15,-1
 445 619 l 1,16,-1
 445 0 l 1,17,-1
 361 0 l 1,0,1
EndSplineSet
EndChar

StartChar: O
Encoding: 79 79 50
Width: 500
Flags: W
LayerCount: 2
Fore
SplineSet
29 310 m 256,0,1
 29 393 29 393 45 454 c 128,-1,2
 61 515 61 515 90 554.5 c 128,-1,3
 119 594 119 594 159.5 613.5 c 128,-1,4
 200 633 200 633 250 633 c 0,5,6
 299 633 299 633 340 613.5 c 128,-1,7
 381 594 381 594 410 554.5 c 128,-1,8
 439 515 439 515 455.5 454 c 128,-1,9
 472 393 472 393 472 310 c 256,10,11
 472 227 472 227 455.5 166 c 128,-1,12
 439 105 439 105 410 65 c 128,-1,13
 381 25 381 25 340 6 c 128,-1,14
 299 -13 299 -13 250 -13 c 0,15,16
 200 -13 200 -13 159.5 6 c 128,-1,17
 119 25 119 25 90 65 c 128,-1,18
 61 105 61 105 45 166 c 128,-1,19
 29 227 29 227 29 310 c 256,0,1
113 310 m 256,20,21
 113 188 113 188 146 123 c 128,-1,22
 179 58 179 58 248 58 c 0,23,24
 318 58 318 58 353 123 c 128,-1,25
 388 188 388 188 388 310 c 256,26,27
 388 432 388 432 353 497 c 128,-1,28
 318 562 318 562 248 562 c 0,29,30
 179 562 179 562 146 497 c 128,-1,31
 113 432 113 432 113 310 c 256,20,21
EndSplineSet
EndChar

StartChar: P
Encoding: 80 80 51
Width: 500
Flags: W
LayerCount: 2
Fore
SplineSet
235 625 m 0,0,1
 290 625 290 625 331.5 611 c 128,-1,2
 373 597 373 597 400.5 571.5 c 128,-1,3
 428 546 428 546 441.5 511 c 128,-1,4
 455 476 455 476 455 433 c 0,5,6
 455 336 455 336 398 283.5 c 128,-1,7
 341 231 341 231 227 231 c 2,8,-1
 155 231 l 1,9,-1
 155 0 l 1,10,-1
 73 0 l 1,11,-1
 73 610 l 1,12,13
 91 614 91 614 112.5 617 c 128,-1,14
 134 620 134 620 155.5 622 c 128,-1,15
 177 624 177 624 197.5 624.5 c 128,-1,16
 218 625 218 625 235 625 c 0,0,1
241 554 m 0,17,18
 215 554 215 554 191 553.5 c 128,-1,19
 167 553 167 553 155 551 c 1,20,-1
 155 301 l 1,21,-1
 223 301 l 2,22,23
 298 301 298 301 334.5 331 c 128,-1,24
 371 361 371 361 371 430 c 0,25,26
 371 554 371 554 241 554 c 0,17,18
EndSplineSet
EndChar

StartChar: Q
Encoding: 81 81 52
Width: 500
Flags: W
LayerCount: 2
Fore
SplineSet
29 309 m 0,0,1
 29 392 29 392 45 453 c 128,-1,2
 61 514 61 514 90 553.5 c 128,-1,3
 119 593 119 593 159.5 612.5 c 128,-1,4
 200 632 200 632 250 632 c 0,5,6
 299 632 299 632 340 612.5 c 128,-1,7
 381 593 381 593 410 553.5 c 128,-1,8
 439 514 439 514 455.5 453 c 128,-1,9
 472 392 472 392 472 309 c 0,10,11
 472 235 472 235 459 178.5 c 128,-1,12
 446 122 446 122 422 82 c 128,-1,13
 398 42 398 42 364 19 c 128,-1,14
 330 -4 330 -4 289 -11 c 1,15,16
 292 -31 292 -31 306 -45.5 c 128,-1,17
 320 -60 320 -60 341.5 -70.5 c 128,-1,18
 363 -81 363 -81 390.5 -88 c 128,-1,19
 418 -95 418 -95 448 -99 c 1,20,-1
 429 -165 l 1,21,22
 388 -158 388 -158 350.5 -147 c 128,-1,23
 313 -136 313 -136 283 -118 c 128,-1,24
 253 -100 253 -100 232 -74 c 128,-1,25
 211 -48 211 -48 204 -10 c 1,26,27
 123 7 123 7 76 84.5 c 128,-1,28
 29 162 29 162 29 309 c 0,0,1
113 309 m 256,29,30
 113 187 113 187 146 122 c 128,-1,31
 179 57 179 57 248 57 c 0,32,33
 318 57 318 57 353 122 c 128,-1,34
 388 187 388 187 388 309 c 256,35,36
 388 431 388 431 353 496 c 128,-1,37
 318 561 318 561 248 561 c 0,38,39
 179 561 179 561 146 496 c 128,-1,40
 113 431 113 431 113 309 c 256,29,30
EndSplineSet
EndChar

StartChar: R
Encoding: 82 82 53
Width: 500
Flags: W
LayerCount: 2
Fore
SplineSet
431 430 m 0,0,1
 431 373 431 373 401 329.5 c 128,-1,2
 371 286 371 286 320 262 c 1,3,4
 335 238 335 238 353.5 207.5 c 128,-1,5
 372 177 372 177 391 142.5 c 128,-1,6
 410 108 410 108 428.5 71.5 c 128,-1,7
 447 35 447 35 463 0 c 1,8,-1
 375 0 l 1,9,10
 345 72 345 72 309.5 138 c 128,-1,11
 274 204 274 204 241 245 c 1,12,13
 235 244 235 244 223.5 244 c 128,-1,14
 212 244 212 244 208 244 c 2,15,-1
 138 244 l 1,16,-1
 138 0 l 1,17,-1
 55 0 l 1,18,-1
 55 610 l 1,19,20
 70 614 70 614 89.5 617 c 128,-1,21
 109 620 109 620 129.5 621.5 c 128,-1,22
 150 623 150 623 170 624 c 128,-1,23
 190 625 190 625 206 625 c 0,24,25
 318 625 318 625 374.5 576 c 128,-1,26
 431 527 431 527 431 430 c 0,0,1
213 554 m 0,27,28
 190 554 190 554 168.5 553.5 c 128,-1,29
 147 553 147 553 138 551 c 1,30,-1
 138 312 l 1,31,-1
 191 312 l 2,32,33
 227 312 227 312 255.5 317 c 128,-1,34
 284 322 284 322 304.5 335.5 c 128,-1,35
 325 349 325 349 336 372.5 c 128,-1,36
 347 396 347 396 347 434 c 0,37,38
 347 470 347 470 336 493 c 128,-1,39
 325 516 325 516 307 529.5 c 128,-1,40
 289 543 289 543 264.5 548.5 c 128,-1,41
 240 554 240 554 213 554 c 0,27,28
EndSplineSet
EndChar

StartChar: S
Encoding: 83 83 54
Width: 500
Flags: W
LayerCount: 2
Fore
SplineSet
234 58 m 0,0,1
 297 58 297 58 330 82 c 128,-1,2
 363 106 363 106 363 154 c 0,3,4
 363 183 363 183 351 203.5 c 128,-1,5
 339 224 339 224 319 239.5 c 128,-1,6
 299 255 299 255 274 266.5 c 128,-1,7
 249 278 249 278 223 288 c 0,8,9
 193 300 193 300 165.5 315 c 128,-1,10
 138 330 138 330 116.5 350 c 128,-1,11
 95 370 95 370 82.5 397 c 128,-1,12
 70 424 70 424 70 461 c 0,13,14
 70 542 70 542 121 587.5 c 128,-1,15
 172 633 172 633 263 633 c 0,16,17
 288 633 288 633 312.5 629.5 c 128,-1,18
 337 626 337 626 358 621 c 128,-1,19
 379 616 379 616 395.5 609 c 128,-1,20
 412 602 412 602 422 595 c 1,21,-1
 396 526 l 1,22,23
 376 538 376 538 341 550 c 128,-1,24
 306 562 306 562 263 562 c 0,25,26
 218 562 218 562 185 539.5 c 128,-1,27
 152 517 152 517 152 472 c 0,28,29
 152 446 152 446 161.5 428 c 128,-1,30
 171 410 171 410 187.5 396.5 c 128,-1,31
 204 383 204 383 226 372 c 128,-1,32
 248 361 248 361 274 350 c 0,33,34
 312 334 312 334 343.5 318 c 128,-1,35
 375 302 375 302 397.5 280 c 128,-1,36
 420 258 420 258 432.5 228 c 128,-1,37
 445 198 445 198 445 155 c 0,38,39
 445 74 445 74 390.5 30.5 c 128,-1,40
 336 -13 336 -13 234 -13 c 0,41,42
 201 -13 201 -13 172 -8.5 c 128,-1,43
 143 -4 143 -4 120.5 3 c 128,-1,44
 98 10 98 10 81 17 c 128,-1,45
 64 24 64 24 55 30 c 1,46,-1
 80 98 l 1,47,48
 100 87 100 87 139 72.5 c 128,-1,49
 178 58 178 58 234 58 c 0,0,1
EndSplineSet
EndChar

StartChar: T
Encoding: 84 84 55
Width: 500
Flags: W
LayerCount: 2
Fore
SplineSet
461 619 m 1,0,-1
 461 549 l 1,1,-1
 291 549 l 1,2,-1
 291 0 l 1,3,-1
 209 0 l 1,4,-1
 209 549 l 1,5,-1
 39 549 l 1,6,-1
 39 619 l 1,7,-1
 461 619 l 1,0,-1
EndSplineSet
EndChar

StartChar: U
Encoding: 85 85 56
Width: 500
Flags: W
LayerCount: 2
Fore
SplineSet
250 -13 m 256,0,1
 195 -13 195 -13 156.5 3 c 128,-1,2
 118 19 118 19 94 48 c 128,-1,3
 70 77 70 77 59 119 c 128,-1,4
 48 161 48 161 48 213 c 2,5,-1
 48 619 l 1,6,-1
 130 619 l 1,7,-1
 130 222 l 2,8,9
 130 175 130 175 138.5 143.5 c 128,-1,10
 147 112 147 112 162.5 93 c 128,-1,11
 178 74 178 74 200 66 c 128,-1,12
 222 58 222 58 250 58 c 256,13,14
 278 58 278 58 300 66 c 128,-1,15
 322 74 322 74 337.5 93 c 128,-1,16
 353 112 353 112 361.5 143.5 c 128,-1,17
 370 175 370 175 370 222 c 2,18,-1
 370 619 l 1,19,-1
 452 619 l 1,20,-1
 452 213 l 2,21,22
 452 161 452 161 441 119 c 128,-1,23
 430 77 430 77 406 48 c 128,-1,24
 382 19 382 19 343.5 3 c 128,-1,25
 305 -13 305 -13 250 -13 c 256,0,1
EndSplineSet
EndChar

StartChar: V
Encoding: 86 86 57
Width: 500
Flags: W
LayerCount: 2
Fore
SplineSet
102 619 m 1,0,1
 114 556 114 556 132.5 481.5 c 128,-1,2
 151 407 151 407 171.5 332.5 c 128,-1,3
 192 258 192 258 213 190 c 128,-1,4
 234 122 234 122 252 71 c 1,5,6
 268 122 268 122 289.5 191 c 128,-1,7
 311 260 311 260 332 334.5 c 128,-1,8
 353 409 353 409 371.5 483 c 128,-1,9
 390 557 390 557 402 619 c 1,10,-1
 488 619 l 1,11,12
 480 579 480 579 462 511.5 c 128,-1,13
 444 444 444 444 419 360.5 c 128,-1,14
 394 277 394 277 363.5 183.5 c 128,-1,15
 333 90 333 90 300 0 c 1,16,-1
 198 0 l 1,17,18
 167 90 167 90 137.5 183 c 128,-1,19
 108 276 108 276 83 359.5 c 128,-1,20
 58 443 58 443 40 511 c 128,-1,21
 22 579 22 579 13 619 c 1,22,-1
 102 619 l 1,0,1
EndSplineSet
EndChar

StartChar: W
Encoding: 87 87 58
Width: 500
Flags: W
LayerCount: 2
Fore
SplineSet
153 0 m 1,0,-1
 76 0 l 1,1,2
 67 61 67 61 60.5 134.5 c 128,-1,3
 54 208 54 208 48.5 288 c 128,-1,4
 43 368 43 368 39 452 c 128,-1,5
 35 536 35 536 32 619 c 1,6,-1
 112 619 l 1,7,-1
 123 102 l 1,8,-1
 213 384 l 1,9,-1
 285 384 l 1,10,-1
 377 102 l 1,11,-1
 388 619 l 1,12,-1
 468 619 l 1,13,14
 465 535 465 535 460.5 451 c 128,-1,15
 456 367 456 367 450 287.5 c 128,-1,16
 444 208 444 208 437 135 c 128,-1,17
 430 62 430 62 422 0 c 1,18,-1
 346 0 l 1,19,-1
 249 308 l 1,20,-1
 153 0 l 1,0,-1
EndSplineSet
EndChar

StartChar: X
Encoding: 88 88 59
Width: 500
Flags: W
LayerCount: 2
Fore
SplineSet
384 0 m 1,0,1
 373 27 373 27 358 61 c 128,-1,2
 343 95 343 95 326 131 c 128,-1,3
 309 167 309 167 289.5 203 c 128,-1,4
 270 239 270 239 249 270 c 1,5,6
 214 214 214 214 179 141.5 c 128,-1,7
 144 69 144 69 114 0 c 1,8,-1
 25 0 l 1,9,10
 58 74 58 74 102 160.5 c 128,-1,11
 146 247 146 247 196 327 c 1,12,-1
 35 619 l 1,13,-1
 126 619 l 1,14,-1
 247 382 l 1,15,-1
 377 619 l 1,16,-1
 466 619 l 1,17,-1
 302 330 l 1,18,19
 350 252 350 252 395 168 c 128,-1,20
 440 84 440 84 475 0 c 1,21,-1
 384 0 l 1,0,1
EndSplineSet
EndChar

StartChar: Y
Encoding: 89 89 60
Width: 500
Flags: W
LayerCount: 2
Fore
SplineSet
210 0 m 1,0,-1
 210 230 l 1,1,2
 149 330 149 330 99.5 425 c 128,-1,3
 50 520 50 520 13 619 c 1,4,-1
 105 619 l 1,5,6
 134 535 134 535 171.5 458.5 c 128,-1,7
 209 382 209 382 252 301 c 1,8,9
 298 386 298 386 333.5 462.5 c 128,-1,10
 369 539 369 539 398 619 c 1,11,-1
 488 619 l 1,12,13
 450 521 450 521 401 428 c 128,-1,14
 352 335 352 335 292 232 c 1,15,-1
 292 0 l 1,16,-1
 210 0 l 1,0,-1
EndSplineSet
EndChar

StartChar: Z
Encoding: 90 90 61
Width: 500
Flags: W
LayerCount: 2
Fore
SplineSet
447 555 m 1,0,1
 415 511 415 511 375.5 450.5 c 128,-1,2
 336 390 336 390 295 324 c 128,-1,3
 254 258 254 258 215.5 191.5 c 128,-1,4
 177 125 177 125 148 70 c 1,5,-1
 455 70 l 1,6,-1
 455 0 l 1,7,-1
 54 0 l 1,8,-1
 54 54 l 1,9,10
 85 117 85 117 122.5 183.5 c 128,-1,11
 160 250 160 250 199 314 c 128,-1,12
 238 378 238 378 277 438 c 128,-1,13
 316 498 316 498 352 549 c 1,14,-1
 69 549 l 1,15,-1
 69 619 l 1,16,-1
 447 619 l 1,17,-1
 447 555 l 1,0,1
EndSplineSet
EndChar

StartChar: bracketleft
Encoding: 91 91 62
Width: 500
Flags: W
LayerCount: 2
Fore
SplineSet
143 699 m 1,0,-1
 382 699 l 1,1,-1
 382 634 l 1,2,-1
 221 634 l 1,3,-1
 221 -100 l 1,4,-1
 382 -100 l 1,5,-1
 382 -165 l 1,6,-1
 143 -165 l 1,7,-1
 143 699 l 1,0,-1
EndSplineSet
Substitution2: "'case' Case-Sensitive Forms lookup 17 subtable" Bracketleft
EndChar

StartChar: backslash
Encoding: 92 92 63
Width: 500
Flags: W
LayerCount: 2
Fore
SplineSet
70 699 m 1,0,-1
 153 699 l 1,1,-1
 430 -165 l 1,2,-1
 346 -165 l 1,3,-1
 70 699 l 1,0,-1
EndSplineSet
Substitution2: "'case' Case-Sensitive Forms lookup 17 subtable" Backslash
EndChar

StartChar: bracketright
Encoding: 93 93 64
Width: 500
Flags: W
LayerCount: 2
Fore
SplineSet
357 -165 m 1,0,-1
 118 -165 l 1,1,-1
 118 -100 l 1,2,-1
 279 -100 l 1,3,-1
 279 634 l 1,4,-1
 118 634 l 1,5,-1
 118 699 l 1,6,-1
 357 699 l 1,7,-1
 357 -165 l 1,0,-1
EndSplineSet
Substitution2: "'case' Case-Sensitive Forms lookup 17 subtable" Bracketright
EndChar

StartChar: asciicircum
Encoding: 94 94 65
Width: 500
Flags: W
LayerCount: 2
Fore
SplineSet
287 619 m 1,0,-1
 460 315 l 1,1,-1
 394 281 l 1,2,-1
 250 533 l 1,3,-1
 106 281 l 1,4,-1
 40 315 l 1,5,-1
 213 619 l 1,6,-1
 287 619 l 1,0,-1
EndSplineSet
EndChar

StartChar: underscore
Encoding: 95 95 66
Width: 500
Flags: W
LayerCount: 2
Fore
SplineSet
8 -95 m 1,0,-1
 492 -95 l 1,1,-1
 492 -165 l 1,2,-1
 8 -165 l 1,3,-1
 8 -95 l 1,0,-1
EndSplineSet
EndChar

StartChar: grave
Encoding: 96 96 67
Width: 500
Flags: W
LayerCount: 2
Fore
SplineSet
216 693 m 1,0,-1
 330 555 l 1,1,-1
 288 518 l 1,2,-1
 163 640 l 1,3,-1
 216 693 l 1,0,-1
EndSplineSet
EndChar

StartChar: a
Encoding: 97 97 68
Width: 500
Flags: W
LayerCount: 2
Fore
SplineSet
255 59 m 0,0,1
 286 59 286 59 310.5 61 c 128,-1,2
 335 63 335 63 351 66 c 1,3,-1
 351 204 l 1,4,5
 335 209 335 209 312.5 212 c 128,-1,6
 290 215 290 215 265 215 c 0,7,8
 242 215 242 215 220 211.5 c 128,-1,9
 198 208 198 208 181 199 c 128,-1,10
 164 190 164 190 153 175.5 c 128,-1,11
 142 161 142 161 142 139 c 0,12,13
 142 94 142 94 172.5 76.5 c 128,-1,14
 203 59 203 59 255 59 c 0,0,1
247 475 m 0,15,16
 299 475 299 475 334.5 462 c 128,-1,17
 370 449 370 449 392 426 c 128,-1,18
 414 403 414 403 423 370 c 128,-1,19
 432 337 432 337 432 298 c 2,20,-1
 432 8 l 1,21,22
 403 3 403 3 355.5 -4 c 128,-1,23
 308 -11 308 -11 258 -11 c 0,24,25
 220 -11 220 -11 184 -4.5 c 128,-1,26
 148 2 148 2 120 18.5 c 128,-1,27
 92 35 92 35 75 64 c 128,-1,28
 58 93 58 93 58 138 c 0,29,30
 58 178 58 178 75.5 205.5 c 128,-1,31
 93 233 93 233 120.5 250 c 128,-1,32
 148 267 148 267 183.5 274.5 c 128,-1,33
 219 282 219 282 255 282 c 0,34,35
 304 282 304 282 351 271 c 1,36,-1
 351 294 l 2,37,38
 351 315 351 315 346.5 334.5 c 128,-1,39
 342 354 342 354 329.5 370 c 128,-1,40
 317 386 317 386 295.5 395.5 c 128,-1,41
 274 405 274 405 240 405 c 0,42,43
 197 405 197 405 165 399 c 128,-1,44
 133 393 133 393 116 387 c 1,45,-1
 106 455 l 1,46,47
 123 463 123 463 162.5 469 c 128,-1,48
 202 475 202 475 247 475 c 0,15,16
EndSplineSet
Substitution2: "'case' Case-Sensitive Forms lookup 18 subtable" A
Substitution2: "'ordn' Ordinals in Latin lookup 7 subtable" ordfeminine
EndChar

StartChar: b
Encoding: 98 98 69
Width: 500
Flags: W
LayerCount: 2
Fore
SplineSet
154 447 m 1,0,1
 169 456 169 456 197.5 465.5 c 128,-1,2
 226 475 226 475 261 475 c 0,3,4
 308 475 308 475 345 457 c 128,-1,5
 382 439 382 439 407.5 407 c 128,-1,6
 433 375 433 375 446.5 330.5 c 128,-1,7
 460 286 460 286 460 232 c 0,8,9
 460 176 460 176 444 131 c 128,-1,10
 428 86 428 86 399 54.5 c 128,-1,11
 370 23 370 23 329 6 c 128,-1,12
 288 -11 288 -11 238 -11 c 0,13,14
 183 -11 183 -11 140 -3 c 128,-1,15
 97 5 97 5 71 13 c 1,16,-1
 71 679 l 1,17,-1
 154 693 l 1,18,-1
 154 447 l 1,0,1
154 72 m 1,19,20
 173 67 173 67 192 64.5 c 128,-1,21
 211 62 211 62 228 62 c 0,22,23
 297 62 297 62 336 104.5 c 128,-1,24
 375 147 375 147 375 232 c 0,25,26
 375 268 375 268 368 299.5 c 128,-1,27
 361 331 361 331 346 353.5 c 128,-1,28
 331 376 331 376 307.5 389 c 128,-1,29
 284 402 284 402 251 402 c 0,30,31
 222 402 222 402 195 390.5 c 128,-1,32
 168 379 168 379 154 366 c 1,33,-1
 154 72 l 1,19,20
EndSplineSet
Substitution2: "'case' Case-Sensitive Forms lookup 18 subtable" B
EndChar

StartChar: c
Encoding: 99 99 70
Width: 500
Flags: W
LayerCount: 2
Fore
SplineSet
49 231 m 0,0,1
 49 294 49 294 69 340 c 128,-1,2
 89 386 89 386 124 416 c 128,-1,3
 159 446 159 446 205.5 460.5 c 128,-1,4
 252 475 252 475 305 475 c 0,5,6
 339 475 339 475 372.5 470.5 c 128,-1,7
 406 466 406 466 444 454 c 1,8,-1
 425 383 l 1,9,10
 392 395 392 395 364.5 398.5 c 128,-1,11
 337 402 337 402 309 402 c 0,12,13
 273 402 273 402 241 392.5 c 128,-1,14
 209 383 209 383 185.5 362.5 c 128,-1,15
 162 342 162 342 148 309.5 c 128,-1,16
 134 277 134 277 134 231 c 0,17,18
 134 187 134 187 147 155.5 c 128,-1,19
 160 124 160 124 183.5 103.5 c 128,-1,20
 207 83 207 83 240 73 c 128,-1,21
 273 63 273 63 313 63 c 0,22,23
 345 63 345 63 374.5 66.5 c 128,-1,24
 404 70 404 70 439 82 c 1,25,-1
 451 13 l 1,26,27
 416 0 416 0 380 -5.5 c 128,-1,28
 344 -11 344 -11 302 -11 c 0,29,30
 246 -11 246 -11 199.5 4.5 c 128,-1,31
 153 20 153 20 119.5 50 c 128,-1,32
 86 80 86 80 67.5 125.5 c 128,-1,33
 49 171 49 171 49 231 c 0,0,1
EndSplineSet
Substitution2: "'case' Case-Sensitive Forms lookup 18 subtable" C
EndChar

StartChar: d
Encoding: 100 100 71
Width: 500
Flags: W
LayerCount: 2
Fore
SplineSet
346 366 m 1,0,1
 332 379 332 379 305 390.5 c 128,-1,2
 278 402 278 402 249 402 c 0,3,4
 216 402 216 402 192.5 389 c 128,-1,5
 169 376 169 376 154 353.5 c 128,-1,6
 139 331 139 331 132 299.5 c 128,-1,7
 125 268 125 268 125 232 c 0,8,9
 125 151 125 151 163 107 c 128,-1,10
 201 63 201 63 262 63 c 0,11,12
 293 63 293 63 314.5 66 c 128,-1,13
 336 69 336 69 346 72 c 1,14,-1
 346 366 l 1,0,1
346 679 m 1,15,-1
 429 693 l 1,16,-1
 429 13 l 1,17,18
 402 5 402 5 360 -3 c 128,-1,19
 318 -11 318 -11 262 -11 c 0,20,21
 212 -11 212 -11 171 6 c 128,-1,22
 130 23 130 23 101 54.5 c 128,-1,23
 72 86 72 86 56 131 c 128,-1,24
 40 176 40 176 40 232 c 0,25,26
 40 286 40 286 53.5 330.5 c 128,-1,27
 67 375 67 375 93 407 c 128,-1,28
 119 439 119 439 155.5 457 c 128,-1,29
 192 475 192 475 239 475 c 0,30,31
 276 475 276 475 304 466 c 128,-1,32
 332 457 332 457 346 447 c 1,33,-1
 346 679 l 1,15,-1
EndSplineSet
Substitution2: "'case' Case-Sensitive Forms lookup 18 subtable" D
EndChar

StartChar: e
Encoding: 101 101 72
Width: 500
Flags: W
LayerCount: 2
Fore
SplineSet
259 475 m 0,0,1
 353 475 353 475 404 416.5 c 128,-1,2
 455 358 455 358 455 239 c 2,3,-1
 455 210 l 1,4,-1
 123 210 l 1,5,6
 128 138 128 138 170.5 100.5 c 128,-1,7
 213 63 213 63 290 63 c 0,8,9
 334 63 334 63 365 70 c 128,-1,10
 396 77 396 77 412 85 c 1,11,-1
 423 15 l 1,12,13
 408 7 408 7 369 -2 c 128,-1,14
 330 -11 330 -11 281 -11 c 0,15,16
 221 -11 221 -11 175.5 7.5 c 128,-1,17
 130 26 130 26 100 58 c 128,-1,18
 70 90 70 90 55 134.5 c 128,-1,19
 40 179 40 179 40 231 c 0,20,21
 40 293 40 293 59 339 c 128,-1,22
 78 385 78 385 109 415 c 128,-1,23
 140 445 140 445 179 460 c 128,-1,24
 218 475 218 475 259 475 c 0,0,1
371 277 m 1,25,26
 371 336 371 336 340 370.5 c 128,-1,27
 309 405 309 405 258 405 c 0,28,29
 229 405 229 405 205.5 394 c 128,-1,30
 182 383 182 383 165 365 c 128,-1,31
 148 347 148 347 138 324 c 128,-1,32
 128 301 128 301 125 277 c 1,33,-1
 371 277 l 1,25,26
EndSplineSet
Substitution2: "'case' Case-Sensitive Forms lookup 18 subtable" E
EndChar

StartChar: f
Encoding: 102 102 73
Width: 500
Flags: W
LayerCount: 2
Fore
SplineSet
161 0 m 1,0,-1
 161 395 l 1,1,-1
 63 395 l 1,2,-1
 63 464 l 1,3,-1
 161 464 l 1,4,-1
 161 506 l 2,5,6
 161 560 161 560 176 595.5 c 128,-1,7
 191 631 191 631 215.5 653 c 128,-1,8
 240 675 240 675 272.5 684 c 128,-1,9
 305 693 305 693 341 693 c 256,10,11
 377 693 377 693 413.5 685 c 128,-1,12
 450 677 450 677 482 666 c 1,13,-1
 467 595 l 1,14,15
 445 606 445 606 412 614 c 128,-1,16
 379 622 379 622 345 622 c 0,17,18
 324 622 324 622 305.5 616.5 c 128,-1,19
 287 611 287 611 273 597.5 c 128,-1,20
 259 584 259 584 251 561.5 c 128,-1,21
 243 539 243 539 243 505 c 2,22,-1
 243 464 l 1,23,-1
 430 464 l 1,24,-1
 430 395 l 1,25,-1
 243 395 l 1,26,-1
 243 0 l 1,27,-1
 161 0 l 1,0,-1
EndSplineSet
Substitution2: "'case' Case-Sensitive Forms lookup 18 subtable" F
EndChar

StartChar: g
Encoding: 103 103 74
Width: 500
Flags: W
LayerCount: 2
Fore
SplineSet
346 43 m 1,0,1
 332 35 332 35 303 26 c 128,-1,2
 274 17 274 17 236 17 c 0,3,4
 195 17 195 17 159.5 30.5 c 128,-1,5
 124 44 124 44 97.5 71.5 c 128,-1,6
 71 99 71 99 55.5 141.5 c 128,-1,7
 40 184 40 184 40 242 c 0,8,9
 40 293 40 293 54.5 335.5 c 128,-1,10
 69 378 69 378 96.5 409 c 128,-1,11
 124 440 124 440 164 457.5 c 128,-1,12
 204 475 204 475 255 475 c 0,13,14
 315 475 315 475 357.5 466.5 c 128,-1,15
 400 458 400 458 429 450 c 1,16,-1
 429 36 l 2,17,18
 429 -72 429 -72 374.5 -120 c 128,-1,19
 320 -168 320 -168 210 -168 c 0,20,21
 165 -168 165 -168 128.5 -161 c 128,-1,22
 92 -154 92 -154 64 -144 c 1,23,-1
 79 -71 l 1,24,25
 105 -82 105 -82 138.5 -89 c 128,-1,26
 172 -96 172 -96 212 -96 c 0,27,28
 284 -96 284 -96 315 -67 c 128,-1,29
 346 -38 346 -38 346 27 c 2,30,-1
 346 43 l 1,0,1
346 391 m 1,31,32
 334 395 334 395 313 398.5 c 128,-1,33
 292 402 292 402 256 402 c 0,34,35
 192 402 192 402 158.5 358 c 128,-1,36
 125 314 125 314 125 241 c 0,37,38
 125 201 125 201 134.5 172.5 c 128,-1,39
 144 144 144 144 160.5 125.5 c 128,-1,40
 177 107 177 107 198 98.5 c 128,-1,41
 219 90 219 90 243 90 c 0,42,43
 274 90 274 90 301.5 99 c 128,-1,44
 329 108 329 108 346 120 c 1,45,-1
 346 391 l 1,31,32
EndSplineSet
Substitution2: "'case' Case-Sensitive Forms lookup 18 subtable" G
EndChar

StartChar: h
Encoding: 104 104 75
Width: 500
Flags: W
LayerCount: 2
Fore
SplineSet
71 0 m 1,0,-1
 71 679 l 1,1,-1
 154 693 l 1,2,-1
 154 457 l 1,3,4
 174 465 174 465 199 469.5 c 128,-1,5
 224 474 224 474 248 474 c 0,6,7
 301 474 301 474 336.5 458.5 c 128,-1,8
 372 443 372 443 393 415 c 128,-1,9
 414 387 414 387 423 348 c 128,-1,10
 432 309 432 309 432 262 c 2,11,-1
 432 0 l 1,12,-1
 350 0 l 1,13,-1
 350 244 l 2,14,15
 350 330 350 330 326 365.5 c 128,-1,16
 302 401 302 401 240 401 c 0,17,18
 214 401 214 401 189.5 395.5 c 128,-1,19
 165 390 165 390 154 385 c 1,20,-1
 154 0 l 1,21,-1
 71 0 l 1,0,-1
EndSplineSet
Substitution2: "'case' Case-Sensitive Forms lookup 18 subtable" H
EndChar

StartChar: i
Encoding: 105 105 76
Width: 500
Flags: W
LayerCount: 2
Fore
SplineSet
209 536 m 0,0,1
 183 536 183 536 164 554 c 128,-1,2
 145 572 145 572 145 603 c 256,3,4
 145 634 145 634 164 652 c 128,-1,5
 183 670 183 670 209 670 c 0,6,7
 236 670 236 670 254.5 652 c 128,-1,8
 273 634 273 634 273 603 c 256,9,10
 273 572 273 572 254.5 554 c 128,-1,11
 236 536 236 536 209 536 c 0,0,1
188 395 m 1,12,-1
 54 395 l 1,13,-1
 54 464 l 1,14,-1
 270 464 l 1,15,-1
 270 179 l 2,16,17
 270 110 270 110 289 86.5 c 128,-1,18
 308 63 308 63 346 63 c 0,19,20
 375 63 375 63 399.5 70 c 128,-1,21
 424 77 424 77 438 85 c 1,22,-1
 450 15 l 1,23,24
 444 12 444 12 433 7.5 c 128,-1,25
 422 3 422 3 407.5 -1 c 128,-1,26
 393 -5 393 -5 375.5 -8 c 128,-1,27
 358 -11 358 -11 339 -11 c 0,28,29
 295 -11 295 -11 266 1 c 128,-1,30
 237 13 237 13 219.5 37 c 128,-1,31
 202 61 202 61 195 96.5 c 128,-1,32
 188 132 188 132 188 179 c 2,33,-1
 188 395 l 1,12,-1
EndSplineSet
Substitution2: "'case' Case-Sensitive Forms lookup 18 subtable" I
Substitution2: "'locl' Localized Forms in Latin lookup 2 subtable" i.locl
Substitution2: "'locl' Localized Forms in Latin lookup 1 subtable" i.locl
Substitution2: "'locl' Localized Forms in Latin lookup 0 subtable" i.locl
EndChar

StartChar: j
Encoding: 106 106 77
Width: 500
Flags: W
LayerCount: 2
Fore
SplineSet
308 536 m 0,0,1
 282 536 282 536 263 554 c 128,-1,2
 244 572 244 572 244 603 c 256,3,4
 244 634 244 634 263 652 c 128,-1,5
 282 670 282 670 308 670 c 0,6,7
 335 670 335 670 353.5 652 c 128,-1,8
 372 634 372 634 372 603 c 256,9,10
 372 572 372 572 353.5 554 c 128,-1,11
 335 536 335 536 308 536 c 0,0,1
114 395 m 1,12,-1
 114 464 l 1,13,-1
 384 464 l 1,14,-1
 384 5 l 2,15,16
 384 -43 384 -43 370.5 -76.5 c 128,-1,17
 357 -110 357 -110 334.5 -131 c 128,-1,18
 312 -152 312 -152 282.5 -161 c 128,-1,19
 253 -170 253 -170 220 -170 c 0,20,21
 182 -170 182 -170 143.5 -162 c 128,-1,22
 105 -154 105 -154 71 -137 c 1,23,-1
 96 -67 l 1,24,25
 121 -79 121 -79 151.5 -87.5 c 128,-1,26
 182 -96 182 -96 210 -96 c 0,27,28
 250 -96 250 -96 276 -75.5 c 128,-1,29
 302 -55 302 -55 302 4 c 2,30,-1
 302 395 l 1,31,-1
 114 395 l 1,12,-1
EndSplineSet
Substitution2: "'case' Case-Sensitive Forms lookup 18 subtable" J
EndChar

StartChar: k
Encoding: 107 107 78
Width: 500
Flags: W
LayerCount: 2
Fore
SplineSet
238 255 m 1,0,1
 265 235 265 235 299 204.5 c 128,-1,2
 333 174 333 174 366.5 139 c 128,-1,3
 400 104 400 104 430 67.5 c 128,-1,4
 460 31 460 31 478 0 c 1,5,-1
 380 0 l 1,6,7
 361 31 361 31 333 63.5 c 128,-1,8
 305 96 305 96 273.5 126 c 128,-1,9
 242 156 242 156 210.5 181 c 128,-1,10
 179 206 179 206 154 223 c 1,11,-1
 154 0 l 1,12,-1
 71 0 l 1,13,-1
 71 679 l 1,14,-1
 154 693 l 1,15,-1
 154 270 l 1,16,17
 209 318 209 318 264 365.5 c 128,-1,18
 319 413 319 413 363 464 c 1,19,-1
 460 464 l 1,20,21
 417 413 417 413 356.5 359 c 128,-1,22
 296 305 296 305 238 255 c 1,0,1
EndSplineSet
Substitution2: "'case' Case-Sensitive Forms lookup 18 subtable" K
EndChar

StartChar: l
Encoding: 108 108 79
Width: 500
Flags: W
LayerCount: 2
Fore
SplineSet
338 -11 m 0,0,1
 294 -11 294 -11 265 1 c 128,-1,2
 236 13 236 13 219 37 c 128,-1,3
 202 61 202 61 195 96.5 c 128,-1,4
 188 132 188 132 188 179 c 2,5,-1
 188 618 l 1,6,-1
 54 618 l 1,7,-1
 54 688 l 1,8,-1
 270 688 l 1,9,-1
 270 179 l 2,10,11
 270 144 270 144 274.5 122 c 128,-1,12
 279 100 279 100 288.5 86.5 c 128,-1,13
 298 73 298 73 312 68 c 128,-1,14
 326 63 326 63 345 63 c 0,15,16
 374 63 374 63 399 70 c 128,-1,17
 424 77 424 77 438 85 c 1,18,-1
 450 15 l 1,19,20
 444 12 444 12 433 7.5 c 128,-1,21
 422 3 422 3 407 -1 c 128,-1,22
 392 -5 392 -5 374.5 -8 c 128,-1,23
 357 -11 357 -11 338 -11 c 0,0,1
EndSplineSet
Substitution2: "'case' Case-Sensitive Forms lookup 18 subtable" L
EndChar

StartChar: m
Encoding: 109 109 80
Width: 500
Flags: W
LayerCount: 2
Fore
SplineSet
41 451 m 1,0,1
 101 474 101 474 154 474 c 0,2,3
 183 474 183 474 208.5 465.5 c 128,-1,4
 234 457 234 457 252 439 c 1,5,6
 295 474 295 474 344 474 c 0,7,8
 368 474 368 474 389.5 465 c 128,-1,9
 411 456 411 456 427.5 438 c 128,-1,10
 444 420 444 420 454 393 c 128,-1,11
 464 366 464 366 464 330 c 2,12,-1
 464 0 l 1,13,-1
 389 0 l 1,14,-1
 389 332 l 2,15,16
 389 368 389 368 373 387 c 128,-1,17
 357 406 357 406 333 406 c 0,18,19
 321 406 321 406 308 400 c 128,-1,20
 295 394 295 394 284 381 c 1,21,22
 290 358 290 358 290 330 c 2,23,-1
 290 179 l 1,24,-1
 215 179 l 1,25,-1
 215 331 l 2,26,27
 215 366 215 366 204 386 c 128,-1,28
 193 406 193 406 161 406 c 0,29,30
 141 406 141 406 116 397 c 1,31,-1
 116 0 l 1,32,-1
 41 0 l 1,33,-1
 41 451 l 1,0,1
EndSplineSet
Substitution2: "'case' Case-Sensitive Forms lookup 18 subtable" M
EndChar

StartChar: n
Encoding: 110 110 81
Width: 500
Flags: W
LayerCount: 2
Fore
SplineSet
71 451 m 1,0,1
 116 462 116 462 160.5 468 c 128,-1,2
 205 474 205 474 244 474 c 0,3,4
 337 474 337 474 384.5 426 c 128,-1,5
 432 378 432 378 432 272 c 2,6,-1
 432 0 l 1,7,-1
 350 0 l 1,8,-1
 350 257 l 2,9,10
 350 302 350 302 342 330 c 128,-1,11
 334 358 334 358 319.5 373.5 c 128,-1,12
 305 389 305 389 284.5 395 c 128,-1,13
 264 401 264 401 240 401 c 0,14,15
 220 401 220 401 197.5 398.5 c 128,-1,16
 175 396 175 396 154 392 c 1,17,-1
 154 0 l 1,18,-1
 71 0 l 1,19,-1
 71 451 l 1,0,1
EndSplineSet
Substitution2: "'case' Case-Sensitive Forms lookup 18 subtable" N
EndChar

StartChar: o
Encoding: 111 111 82
Width: 500
Flags: W
LayerCount: 2
Fore
SplineSet
460 232 m 256,0,1
 460 177 460 177 444.5 132.5 c 128,-1,2
 429 88 429 88 401 56 c 128,-1,3
 373 24 373 24 334 6.5 c 128,-1,4
 295 -11 295 -11 249 -11 c 0,5,6
 204 -11 204 -11 165.5 6.5 c 128,-1,7
 127 24 127 24 99 56 c 128,-1,8
 71 88 71 88 55.5 132.5 c 128,-1,9
 40 177 40 177 40 232 c 256,10,11
 40 287 40 287 55.5 332 c 128,-1,12
 71 377 71 377 99 408.5 c 128,-1,13
 127 440 127 440 165.5 457.5 c 128,-1,14
 204 475 204 475 249 475 c 0,15,16
 295 475 295 475 334 457.5 c 128,-1,17
 373 440 373 440 401 408.5 c 128,-1,18
 429 377 429 377 444.5 332 c 128,-1,19
 460 287 460 287 460 232 c 256,0,1
375 232 m 0,20,21
 375 311 375 311 341 356.5 c 128,-1,22
 307 402 307 402 249 402 c 0,23,24
 192 402 192 402 158.5 356.5 c 128,-1,25
 125 311 125 311 125 232 c 0,26,27
 125 154 125 154 158.5 108.5 c 128,-1,28
 192 63 192 63 249 63 c 0,29,30
 307 63 307 63 341 108.5 c 128,-1,31
 375 154 375 154 375 232 c 0,20,21
EndSplineSet
Substitution2: "'case' Case-Sensitive Forms lookup 18 subtable" O
Substitution2: "'ordn' Ordinals in Latin lookup 7 subtable" ordmasculine
EndChar

StartChar: p
Encoding: 112 112 83
Width: 500
Flags: W
LayerCount: 2
Fore
SplineSet
375 231 m 0,0,1
 375 312 375 312 337 356.5 c 128,-1,2
 299 401 299 401 238 401 c 0,3,4
 204 401 204 401 184.5 398 c 128,-1,5
 165 395 165 395 154 391 c 1,6,-1
 154 98 l 1,7,8
 168 85 168 85 195 74 c 128,-1,9
 222 63 222 63 251 63 c 0,10,11
 284 63 284 63 307.5 76 c 128,-1,12
 331 89 331 89 346 111.5 c 128,-1,13
 361 134 361 134 368 164.5 c 128,-1,14
 375 195 375 195 375 231 c 0,0,1
460 231 m 0,15,16
 460 178 460 178 446.5 133.5 c 128,-1,17
 433 89 433 89 407.5 57 c 128,-1,18
 382 25 382 25 345 7 c 128,-1,19
 308 -11 308 -11 261 -11 c 0,20,21
 224 -11 224 -11 196 -2 c 128,-1,22
 168 7 168 7 154 18 c 1,23,-1
 154 -165 l 1,24,-1
 71 -165 l 1,25,-1
 71 450 l 1,26,27
 98 458 98 458 140.5 466 c 128,-1,28
 183 474 183 474 238 474 c 0,29,30
 288 474 288 474 329 457 c 128,-1,31
 370 440 370 440 399 408.5 c 128,-1,32
 428 377 428 377 444 332 c 128,-1,33
 460 287 460 287 460 231 c 0,15,16
EndSplineSet
Substitution2: "'case' Case-Sensitive Forms lookup 18 subtable" P
EndChar

StartChar: q
Encoding: 113 113 84
Width: 500
Flags: W
LayerCount: 2
Fore
SplineSet
125 231 m 0,0,1
 125 195 125 195 132.5 164.5 c 128,-1,2
 140 134 140 134 155 111.5 c 128,-1,3
 170 89 170 89 193.5 76 c 128,-1,4
 217 63 217 63 250 63 c 0,5,6
 279 63 279 63 306 74 c 128,-1,7
 333 85 333 85 347 98 c 1,8,-1
 347 391 l 1,9,10
 336 395 336 395 316.5 398 c 128,-1,11
 297 401 297 401 263 401 c 0,12,13
 202 401 202 401 163.5 356.5 c 128,-1,14
 125 312 125 312 125 231 c 0,0,1
40 231 m 0,15,16
 40 287 40 287 56 332 c 128,-1,17
 72 377 72 377 101 408.5 c 128,-1,18
 130 440 130 440 171.5 457 c 128,-1,19
 213 474 213 474 263 474 c 0,20,21
 317 474 317 474 358.5 465.5 c 128,-1,22
 400 457 400 457 429 449 c 1,23,-1
 429 -165 l 1,24,-1
 346 -165 l 1,25,-1
 346 18 l 1,26,27
 331 8 331 8 303 -1.5 c 128,-1,28
 275 -11 275 -11 240 -11 c 0,29,30
 193 -11 193 -11 156 7 c 128,-1,31
 119 25 119 25 93.5 57 c 128,-1,32
 68 89 68 89 54 133.5 c 128,-1,33
 40 178 40 178 40 231 c 0,15,16
EndSplineSet
Substitution2: "'case' Case-Sensitive Forms lookup 18 subtable" Q
EndChar

StartChar: r
Encoding: 114 114 85
Width: 500
Flags: W
LayerCount: 2
Fore
SplineSet
107 0 m 1,0,-1
 107 439 l 1,1,2
 209 474 209 474 313 474 c 0,3,4
 345 474 345 474 374 471.5 c 128,-1,5
 403 469 403 469 438 461 c 1,6,-1
 423 388 l 1,7,8
 391 397 391 397 366.5 399.5 c 128,-1,9
 342 402 342 402 313 402 c 0,10,11
 252 402 252 402 189 385 c 1,12,-1
 189 0 l 1,13,-1
 107 0 l 1,0,-1
EndSplineSet
Substitution2: "'case' Case-Sensitive Forms lookup 18 subtable" R
EndChar

StartChar: s
Encoding: 115 115 86
Width: 500
Flags: W
LayerCount: 2
Fore
SplineSet
351 116 m 0,0,1
 351 141 351 141 330.5 157 c 128,-1,2
 310 173 310 173 279.5 185 c 128,-1,3
 249 197 249 197 213 208.5 c 128,-1,4
 177 220 177 220 146.5 237 c 128,-1,5
 116 254 116 254 95.5 279 c 128,-1,6
 75 304 75 304 75 344 c 0,7,8
 75 400 75 400 120.5 437.5 c 128,-1,9
 166 475 166 475 263 475 c 0,10,11
 301 475 301 475 341.5 469.5 c 128,-1,12
 382 464 382 464 411 455 c 1,13,-1
 396 381 l 1,14,15
 388 385 388 385 374 389.5 c 128,-1,16
 360 394 360 394 342 397.5 c 128,-1,17
 324 401 324 401 303.5 403 c 128,-1,18
 283 405 283 405 264 405 c 0,19,20
 156 405 156 405 156 346 c 0,21,22
 156 325 156 325 176.5 310.5 c 128,-1,23
 197 296 197 296 228 284 c 128,-1,24
 259 272 259 272 295 259.5 c 128,-1,25
 331 247 331 247 362 229 c 128,-1,26
 393 211 393 211 413.5 185.5 c 128,-1,27
 434 160 434 160 434 121 c 0,28,29
 434 58 434 58 385 23.5 c 128,-1,30
 336 -11 336 -11 230 -11 c 0,31,32
 182 -11 182 -11 142 -3 c 128,-1,33
 102 5 102 5 66 21 c 1,34,-1
 82 96 l 1,35,36
 117 80 117 80 155.5 69.5 c 128,-1,37
 194 59 194 59 238 59 c 0,38,39
 351 59 351 59 351 116 c 0,0,1
EndSplineSet
Substitution2: "'case' Case-Sensitive Forms lookup 18 subtable" S
EndChar

StartChar: t
Encoding: 116 116 87
Width: 500
Flags: W
LayerCount: 2
Fore
SplineSet
243 464 m 1,0,-1
 439 464 l 1,1,-1
 439 395 l 1,2,-1
 243 395 l 1,3,-1
 243 179 l 2,4,5
 243 144 243 144 248 122 c 128,-1,6
 253 100 253 100 264.5 86.5 c 128,-1,7
 276 73 276 73 294 68 c 128,-1,8
 312 63 312 63 338 63 c 0,9,10
 374 63 374 63 396 69 c 128,-1,11
 418 75 418 75 438 85 c 1,12,-1
 450 15 l 1,13,14
 436 9 436 9 405.5 -1 c 128,-1,15
 375 -11 375 -11 330 -11 c 0,16,17
 278 -11 278 -11 245 1 c 128,-1,18
 212 13 212 13 193.5 37 c 128,-1,19
 175 61 175 61 168 96.5 c 128,-1,20
 161 132 161 132 161 179 c 2,21,-1
 161 395 l 1,22,-1
 63 395 l 1,23,-1
 63 464 l 1,24,-1
 161 464 l 1,25,-1
 161 594 l 1,26,-1
 243 608 l 1,27,-1
 243 464 l 1,0,-1
EndSplineSet
Substitution2: "'case' Case-Sensitive Forms lookup 18 subtable" T
EndChar

StartChar: u
Encoding: 117 117 88
Width: 500
Flags: W
LayerCount: 2
Fore
SplineSet
429 13 m 1,0,1
 402 6 402 6 357.5 -2 c 128,-1,2
 313 -10 313 -10 253 -10 c 0,3,4
 200 -10 200 -10 165 5.5 c 128,-1,5
 130 21 130 21 108 49.5 c 128,-1,6
 86 78 86 78 77 117 c 128,-1,7
 68 156 68 156 68 203 c 2,8,-1
 68 464 l 1,9,-1
 150 464 l 1,10,-1
 150 221 l 2,11,12
 150 135 150 135 175.5 99 c 128,-1,13
 201 63 201 63 261 63 c 0,14,15
 274 63 274 63 287.5 64 c 128,-1,16
 301 65 301 65 313 66.5 c 128,-1,17
 325 68 325 68 334 69.5 c 128,-1,18
 343 71 343 71 346 72 c 2,19,-1
 346 464 l 1,20,-1
 429 464 l 1,21,-1
 429 13 l 1,0,1
EndSplineSet
Substitution2: "'case' Case-Sensitive Forms lookup 18 subtable" U
EndChar

StartChar: v
Encoding: 118 118 89
Width: 500
Flags: W
LayerCount: 2
Fore
SplineSet
470 464 m 1,0,1
 452 399 452 399 429 336.5 c 128,-1,2
 406 274 406 274 382 214.5 c 128,-1,3
 358 155 358 155 333 101 c 128,-1,4
 308 47 308 47 285 0 c 1,5,-1
 210 0 l 1,6,7
 163 94 163 94 115 214 c 128,-1,8
 67 334 67 334 30 464 c 1,9,-1
 120 464 l 1,10,11
 132 420 132 420 147.5 371 c 128,-1,12
 163 322 163 322 180 273 c 128,-1,13
 197 224 197 224 214.5 178.5 c 128,-1,14
 232 133 232 133 249 97 c 1,15,16
 266 133 266 133 284.5 178.5 c 128,-1,17
 303 224 303 224 321 273 c 128,-1,18
 339 322 339 322 355.5 371 c 128,-1,19
 372 420 372 420 384 464 c 1,20,-1
 470 464 l 1,0,1
EndSplineSet
Substitution2: "'case' Case-Sensitive Forms lookup 18 subtable" V
EndChar

StartChar: w
Encoding: 119 119 90
Width: 500
Flags: W
LayerCount: 2
Fore
SplineSet
343 0 m 1,0,1
 328 34 328 34 317 62 c 128,-1,2
 306 90 306 90 295.5 118 c 128,-1,3
 285 146 285 146 274.5 176.5 c 128,-1,4
 264 207 264 207 250 246 c 1,5,6
 236 207 236 207 225 176.5 c 128,-1,7
 214 146 214 146 203.5 118 c 128,-1,8
 193 90 193 90 181.5 62 c 128,-1,9
 170 34 170 34 155 0 c 1,10,-1
 93 0 l 1,11,12
 65 123 65 123 46.5 243.5 c 128,-1,13
 28 364 28 364 19 464 c 1,14,-1
 97 464 l 1,15,16
 100 425 100 425 103.5 387.5 c 128,-1,17
 107 350 107 350 112 309 c 128,-1,18
 117 268 117 268 123.5 220 c 128,-1,19
 130 172 130 172 138 112 c 1,20,21
 154 152 154 152 165 182 c 128,-1,22
 176 212 176 212 185 239 c 128,-1,23
 194 266 194 266 202.5 294 c 128,-1,24
 211 322 211 322 221 357 c 1,25,-1
 283 357 l 1,26,27
 293 322 293 322 301 294 c 128,-1,28
 309 266 309 266 318 239 c 128,-1,29
 327 212 327 212 337 182 c 128,-1,30
 347 152 347 152 362 113 c 1,31,32
 371 168 371 168 378 215 c 128,-1,33
 385 262 385 262 390 303.5 c 128,-1,34
 395 345 395 345 399 384 c 128,-1,35
 403 423 403 423 406 464 c 1,36,-1
 481 464 l 1,37,38
 476 414 476 414 469 357 c 128,-1,39
 462 300 462 300 452 240 c 128,-1,40
 442 180 442 180 430 118.5 c 128,-1,41
 418 57 418 57 405 0 c 1,42,-1
 343 0 l 1,0,1
EndSplineSet
Substitution2: "'case' Case-Sensitive Forms lookup 18 subtable" W
EndChar

StartChar: x
Encoding: 120 120 91
Width: 500
Flags: W
LayerCount: 2
Fore
SplineSet
380 0 m 1,0,1
 370 20 370 20 355.5 44 c 128,-1,2
 341 68 341 68 324 93.5 c 128,-1,3
 307 119 307 119 288.5 144 c 128,-1,4
 270 169 270 169 252 191 c 1,5,6
 234 168 234 168 214 143 c 128,-1,7
 194 118 194 118 175.5 92.5 c 128,-1,8
 157 67 157 67 141 43 c 128,-1,9
 125 19 125 19 114 0 c 1,10,-1
 29 0 l 1,11,12
 62 60 62 60 109.5 123.5 c 128,-1,13
 157 187 157 187 203 244 c 1,14,-1
 36 464 l 1,15,-1
 129 464 l 1,16,-1
 254 302 l 1,17,-1
 369 464 l 1,18,-1
 457 464 l 1,19,-1
 304 249 l 1,20,21
 349 190 349 190 394.5 126 c 128,-1,22
 440 62 440 62 472 0 c 1,23,-1
 380 0 l 1,0,1
EndSplineSet
Substitution2: "'case' Case-Sensitive Forms lookup 18 subtable" X
EndChar

StartChar: y
Encoding: 121 121 92
Width: 500
Flags: W
LayerCount: 2
Fore
SplineSet
51 -87 m 1,0,1
 60 -92 60 -92 76.5 -95 c 128,-1,2
 93 -98 93 -98 107 -98 c 0,3,4
 156 -98 156 -98 183.5 -76.5 c 128,-1,5
 211 -55 211 -55 234 -6 c 1,6,7
 178 100 178 100 129 221.5 c 128,-1,8
 80 343 80 343 48 464 c 1,9,-1
 138 464 l 1,10,11
 148 424 148 424 161.5 377.5 c 128,-1,12
 175 331 175 331 192 282 c 128,-1,13
 209 233 209 233 228.5 183.5 c 128,-1,14
 248 134 248 134 270 89 c 1,15,16
 286 135 286 135 300 180 c 128,-1,17
 314 225 314 225 326 270.5 c 128,-1,18
 338 316 338 316 350 363.5 c 128,-1,19
 362 411 362 411 375 464 c 1,20,-1
 461 464 l 1,21,22
 429 334 429 334 389.5 212 c 128,-1,23
 350 90 350 90 305 -14 c 0,24,25
 288 -54 288 -54 268.5 -83 c 128,-1,26
 249 -112 249 -112 226 -131 c 128,-1,27
 203 -150 203 -150 174 -159 c 128,-1,28
 145 -168 145 -168 108 -168 c 0,29,30
 89 -168 89 -168 66.5 -163 c 128,-1,31
 44 -158 44 -158 36 -154 c 1,32,-1
 51 -87 l 1,0,1
EndSplineSet
Substitution2: "'case' Case-Sensitive Forms lookup 18 subtable" Y
EndChar

StartChar: z
Encoding: 122 122 93
Width: 500
Flags: W
LayerCount: 2
Fore
SplineSet
420 402 m 1,0,1
 402 381 402 381 371 343.5 c 128,-1,2
 340 306 340 306 304.5 260.5 c 128,-1,3
 269 215 269 215 234 165 c 128,-1,4
 199 115 199 115 172 70 c 1,5,-1
 427 70 l 1,6,-1
 427 0 l 1,7,-1
 73 0 l 1,8,-1
 73 55 l 1,9,10
 94 95 94 95 125.5 142.5 c 128,-1,11
 157 190 157 190 191 236.5 c 128,-1,12
 225 283 225 283 257.5 325 c 128,-1,13
 290 367 290 367 314 395 c 1,14,-1
 86 395 l 1,15,-1
 86 464 l 1,16,-1
 420 464 l 1,17,-1
 420 402 l 1,0,1
EndSplineSet
Substitution2: "'case' Case-Sensitive Forms lookup 18 subtable" Z
EndChar

StartChar: braceleft
Encoding: 123 123 94
Width: 500
Flags: W
LayerCount: 2
Fore
SplineSet
79 299 m 1,0,-1
 119 299 l 2,1,2
 136 299 136 299 149 306.5 c 128,-1,3
 162 314 162 314 170.5 326.5 c 128,-1,4
 179 339 179 339 183.5 354.5 c 128,-1,5
 188 370 188 370 188 386 c 2,6,-1
 188 547 l 2,7,8
 188 584 188 584 195.5 612 c 128,-1,9
 203 640 203 640 221 659.5 c 128,-1,10
 239 679 239 679 269.5 689 c 128,-1,11
 300 699 300 699 346 699 c 2,12,-1
 427 699 l 1,13,-1
 427 634 l 1,14,-1
 342 634 l 2,15,16
 300 634 300 634 282.5 615 c 128,-1,17
 265 596 265 596 265 546 c 2,18,-1
 265 408 l 2,19,20
 265 341 265 341 245 309.5 c 128,-1,21
 225 278 225 278 199 267 c 1,22,23
 225 255 225 255 245 222 c 128,-1,24
 265 189 265 189 265 126 c 2,25,-1
 265 -12 l 2,26,27
 265 -62 265 -62 283 -81 c 128,-1,28
 301 -100 301 -100 343 -100 c 2,29,-1
 427 -100 l 1,30,-1
 427 -165 l 1,31,-1
 346 -165 l 2,32,33
 300 -165 300 -165 269.5 -155 c 128,-1,34
 239 -145 239 -145 221 -125.5 c 128,-1,35
 203 -106 203 -106 195.5 -78 c 128,-1,36
 188 -50 188 -50 188 -13 c 2,37,-1
 188 148 l 2,38,39
 188 163 188 163 183.5 178.5 c 128,-1,40
 179 194 179 194 170.5 206.5 c 128,-1,41
 162 219 162 219 149.5 227 c 128,-1,42
 137 235 137 235 120 235 c 2,43,-1
 79 235 l 1,44,-1
 79 299 l 1,0,-1
EndSplineSet
Substitution2: "'case' Case-Sensitive Forms lookup 17 subtable" Braceleft
EndChar

StartChar: bar
Encoding: 124 124 95
Width: 500
Flags: W
LayerCount: 2
Fore
SplineSet
212 699 m 1,0,-1
 289 699 l 1,1,-1
 289 -165 l 1,2,-1
 212 -165 l 1,3,-1
 212 699 l 1,0,-1
EndSplineSet
EndChar

StartChar: braceright
Encoding: 125 125 96
Width: 500
Flags: W
LayerCount: 2
Fore
SplineSet
421 235 m 1,0,-1
 381 235 l 2,1,2
 364 235 364 235 351.5 227.5 c 128,-1,3
 339 220 339 220 330.5 207.5 c 128,-1,4
 322 195 322 195 317.5 179.5 c 128,-1,5
 313 164 313 164 313 148 c 2,6,-1
 313 -13 l 2,7,8
 313 -50 313 -50 305.5 -78 c 128,-1,9
 298 -106 298 -106 279.5 -125.5 c 128,-1,10
 261 -145 261 -145 230.5 -155 c 128,-1,11
 200 -165 200 -165 154 -165 c 2,12,-1
 73 -165 l 1,13,-1
 73 -100 l 1,14,-1
 158 -100 l 2,15,16
 200 -100 200 -100 217.5 -81 c 128,-1,17
 235 -62 235 -62 235 -12 c 2,18,-1
 235 126 l 2,19,20
 235 193 235 193 255 224.5 c 128,-1,21
 275 256 275 256 301 267 c 1,22,23
 275 279 275 279 255 312 c 128,-1,24
 235 345 235 345 235 408 c 2,25,-1
 235 546 l 2,26,27
 235 596 235 596 217 615 c 128,-1,28
 199 634 199 634 157 634 c 2,29,-1
 73 634 l 1,30,-1
 73 699 l 1,31,-1
 154 699 l 2,32,33
 200 699 200 699 230.5 689 c 128,-1,34
 261 679 261 679 279.5 659.5 c 128,-1,35
 298 640 298 640 305.5 612 c 128,-1,36
 313 584 313 584 313 547 c 2,37,-1
 313 386 l 2,38,39
 313 371 313 371 317 355.5 c 128,-1,40
 321 340 321 340 329.5 327.5 c 128,-1,41
 338 315 338 315 350.5 307 c 128,-1,42
 363 299 363 299 380 299 c 2,43,-1
 421 299 l 1,44,-1
 421 235 l 1,0,-1
EndSplineSet
Substitution2: "'case' Case-Sensitive Forms lookup 17 subtable" Braceright
EndChar

StartChar: asciitilde
Encoding: 126 126 97
Width: 500
Flags: W
LayerCount: 2
Fore
SplineSet
463 314 m 1,0,1
 460 297 460 297 452.5 275 c 128,-1,2
 445 253 445 253 430.5 234 c 128,-1,3
 416 215 416 215 394 202 c 128,-1,4
 372 189 372 189 341 189 c 0,5,6
 314 189 314 189 291.5 199.5 c 128,-1,7
 269 210 269 210 248 223 c 0,8,9
 224 237 224 237 202 251 c 128,-1,10
 180 265 180 265 154 265 c 0,11,12
 140 265 140 265 130 258.5 c 128,-1,13
 120 252 120 252 113.5 242 c 128,-1,14
 107 232 107 232 102 219.5 c 128,-1,15
 97 207 97 207 94 196 c 1,16,-1
 37 212 l 1,17,18
 40 229 40 229 48 251 c 128,-1,19
 56 273 56 273 70 292 c 128,-1,20
 84 311 84 311 105.5 324 c 128,-1,21
 127 337 127 337 159 337 c 0,22,23
 186 337 186 337 208.5 326.5 c 128,-1,24
 231 316 231 316 252 303 c 0,25,26
 276 289 276 289 298.5 275 c 128,-1,27
 321 261 321 261 346 261 c 0,28,29
 360 261 360 261 370 267.5 c 128,-1,30
 380 274 380 274 386.5 284 c 128,-1,31
 393 294 393 294 398 306.5 c 128,-1,32
 403 319 403 319 406 330 c 1,33,-1
 463 314 l 1,0,1
EndSplineSet
EndChar

StartChar: Euro
Encoding: 8364 8364 98
Width: 500
Flags: W
LayerCount: 2
Fore
SplineSet
106 421 m 1,0,1
 124 527 124 527 181.5 578.5 c 128,-1,2
 239 630 239 630 334 630 c 0,3,4
 374 630 374 630 399.5 625 c 128,-1,5
 425 620 425 620 449 611 c 1,6,-1
 433 541 l 1,7,8
 412 549 412 549 386.5 554 c 128,-1,9
 361 559 361 559 334 559 c 0,10,11
 266 559 266 559 234 521.5 c 128,-1,12
 202 484 202 484 192 421 c 1,13,-1
 391 421 l 1,14,-1
 379 357 l 1,15,-1
 183 357 l 1,16,17
 182 346 182 346 182 334.5 c 128,-1,18
 182 323 182 323 182 310 c 0,19,20
 182 299 182 299 182 288 c 128,-1,21
 182 277 182 277 183 267 c 1,22,-1
 362 267 l 1,23,-1
 350 203 l 1,24,-1
 190 203 l 1,25,26
 203 123 203 123 239.5 92 c 128,-1,27
 276 61 276 61 336 61 c 0,28,29
 374 61 374 61 401 67.5 c 128,-1,30
 428 74 428 74 449 85 c 1,31,-1
 467 14 l 1,32,33
 452 6 452 6 414.5 -3 c 128,-1,34
 377 -12 377 -12 331 -12 c 0,35,36
 227 -12 227 -12 172.5 45 c 128,-1,37
 118 102 118 102 104 203 c 1,38,-1
 36 203 l 1,39,-1
 36 267 l 1,40,-1
 97 267 l 1,41,42
 96 277 96 277 96 288 c 128,-1,43
 96 299 96 299 96 310 c 0,44,45
 96 323 96 323 96 334.5 c 128,-1,46
 96 346 96 346 97 357 c 1,47,-1
 36 357 l 1,48,-1
 36 421 l 1,49,-1
 106 421 l 1,0,1
EndSplineSet
EndChar

StartChar: quotesinglbase
Encoding: 8218 8218 99
Width: 500
Flags: W
LayerCount: 2
Fore
SplineSet
148 -79 m 1,0,1
 166 -75 166 -75 183.5 -71 c 128,-1,2
 201 -67 201 -67 216 -59.5 c 128,-1,3
 231 -52 231 -52 243 -40.5 c 128,-1,4
 255 -29 255 -29 262 -9 c 1,5,6
 230 -6 230 -6 215.5 15.5 c 128,-1,7
 201 37 201 37 201 58 c 0,8,9
 201 98 201 98 224 118.5 c 128,-1,10
 247 139 247 139 275 139 c 0,11,12
 312 139 312 139 331 112.5 c 128,-1,13
 350 86 350 86 350 48 c 0,14,15
 350 19 350 19 338.5 -12.5 c 128,-1,16
 327 -44 327 -44 303.5 -71.5 c 128,-1,17
 280 -99 280 -99 245 -118.5 c 128,-1,18
 210 -138 210 -138 163 -144 c 1,19,-1
 148 -79 l 1,0,1
EndSplineSet
EndChar

StartChar: florin
Encoding: 402 402 100
Width: 500
Flags: W
LayerCount: 2
Fore
SplineSet
63 395 m 1,0,-1
 63 464 l 1,1,-1
 161 464 l 1,2,-1
 161 506 l 2,3,4
 161 560 161 560 176 595.5 c 128,-1,5
 191 631 191 631 215.5 653 c 128,-1,6
 240 675 240 675 272.5 684 c 128,-1,7
 305 693 305 693 341 693 c 256,8,9
 377 693 377 693 413.5 685 c 128,-1,10
 450 677 450 677 482 666 c 1,11,-1
 467 595 l 1,12,13
 445 606 445 606 412 614 c 128,-1,14
 379 622 379 622 345 622 c 0,15,16
 324 622 324 622 305.5 616.5 c 128,-1,17
 287 611 287 611 273 597.5 c 128,-1,18
 259 584 259 584 251 561.5 c 128,-1,19
 243 539 243 539 243 505 c 2,20,-1
 243 464 l 1,21,-1
 430 464 l 1,22,-1
 430 395 l 1,23,-1
 243 395 l 1,24,-1
 243 3 l 2,25,26
 243 -45 243 -45 229.5 -78 c 128,-1,27
 216 -111 216 -111 193.5 -131.5 c 128,-1,28
 171 -152 171 -152 141 -161 c 128,-1,29
 111 -170 111 -170 79 -170 c 0,30,31
 51 -170 51 -170 36 -167 c 128,-1,32
 21 -164 21 -164 7 -161 c 1,33,-1
 25 -90 l 1,34,35
 46 -98 46 -98 69 -98 c 0,36,37
 108 -98 108 -98 134.5 -76.5 c 128,-1,38
 161 -55 161 -55 161 4 c 2,39,-1
 161 395 l 1,40,-1
 63 395 l 1,0,-1
EndSplineSet
EndChar

StartChar: quotedblbase
Encoding: 8222 8222 101
Width: 500
Flags: W
LayerCount: 2
Fore
SplineSet
42 -74 m 1,0,1
 76 -67 76 -67 104.5 -56 c 128,-1,2
 133 -45 133 -45 146 -10 c 1,3,4
 117 -7 117 -7 102.5 12.5 c 128,-1,5
 88 32 88 32 88 55 c 0,6,7
 88 80 88 80 104.5 100.5 c 128,-1,8
 121 121 121 121 154 121 c 0,9,10
 183 121 183 121 204.5 101.5 c 128,-1,11
 226 82 226 82 226 38 c 0,12,13
 226 9 226 9 217.5 -18.5 c 128,-1,14
 209 -46 209 -46 189.5 -69 c 128,-1,15
 170 -92 170 -92 137.5 -109 c 128,-1,16
 105 -126 105 -126 56 -132 c 1,17,-1
 42 -74 l 1,0,1
274 -74 m 1,18,19
 291 -70 291 -70 307 -66.5 c 128,-1,20
 323 -63 323 -63 337 -56 c 128,-1,21
 351 -49 351 -49 362 -38.5 c 128,-1,22
 373 -28 373 -28 379 -10 c 1,23,24
 350 -7 350 -7 335.5 12.5 c 128,-1,25
 321 32 321 32 321 55 c 0,26,27
 321 80 321 80 337 100.5 c 128,-1,28
 353 121 353 121 387 121 c 0,29,30
 416 121 416 121 437 101.5 c 128,-1,31
 458 82 458 82 458 38 c 0,32,33
 458 9 458 9 449.5 -18.5 c 128,-1,34
 441 -46 441 -46 421.5 -69 c 128,-1,35
 402 -92 402 -92 369.5 -109 c 128,-1,36
 337 -126 337 -126 288 -132 c 1,37,-1
 274 -74 l 1,18,19
EndSplineSet
EndChar

StartChar: ellipsis
Encoding: 8230 8230 102
Width: 500
Flags: W
LayerCount: 2
Fore
SplineSet
137 42 m 256,0,1
 137 20 137 20 122.5 4 c 128,-1,2
 108 -12 108 -12 84 -12 c 256,3,4
 60 -12 60 -12 45.5 4 c 128,-1,5
 31 20 31 20 31 42 c 256,6,7
 31 64 31 64 45.5 80 c 128,-1,8
 60 96 60 96 84 96 c 256,9,10
 108 96 108 96 122.5 80 c 128,-1,11
 137 64 137 64 137 42 c 256,0,1
303 42 m 256,12,13
 303 20 303 20 289 4 c 128,-1,14
 275 -12 275 -12 251 -12 c 256,15,16
 227 -12 227 -12 213 4 c 128,-1,17
 199 20 199 20 199 42 c 256,18,19
 199 64 199 64 213 80 c 128,-1,20
 227 96 227 96 251 96 c 256,21,22
 275 96 275 96 289 80 c 128,-1,23
 303 64 303 64 303 42 c 256,12,13
469 42 m 256,24,25
 469 20 469 20 455 4 c 128,-1,26
 441 -12 441 -12 417 -12 c 256,27,28
 393 -12 393 -12 379 4 c 128,-1,29
 365 20 365 20 365 42 c 256,30,31
 365 64 365 64 379 80 c 128,-1,32
 393 96 393 96 417 96 c 256,33,34
 441 96 441 96 455 80 c 128,-1,35
 469 64 469 64 469 42 c 256,24,25
EndSplineSet
EndChar

StartChar: dagger
Encoding: 8224 8224 103
Width: 500
Flags: W
LayerCount: 2
Fore
SplineSet
286 356 m 1,0,-1
 286 129 l 2,1,2
 286 54 286 54 282.5 -7 c 128,-1,3
 279 -68 279 -68 271 -129 c 1,4,-1
 230 -129 l 1,5,6
 222 -68 222 -68 218 -7 c 128,-1,7
 214 54 214 54 214 129 c 2,8,-1
 214 356 l 1,9,-1
 72 356 l 1,10,-1
 72 425 l 1,11,-1
 214 425 l 1,12,-1
 214 619 l 1,13,-1
 286 619 l 1,14,-1
 286 425 l 1,15,-1
 428 425 l 1,16,-1
 428 356 l 1,17,-1
 286 356 l 1,0,-1
EndSplineSet
EndChar

StartChar: daggerdbl
Encoding: 8225 8225 104
Width: 500
Flags: W
LayerCount: 2
Fore
SplineSet
286 120 m 1,0,1
 286 47 286 47 282 -11.5 c 128,-1,2
 278 -70 278 -70 271 -129 c 1,3,-1
 230 -129 l 1,4,5
 222 -70 222 -70 218 -11.5 c 128,-1,6
 214 47 214 47 214 120 c 1,7,-1
 72 120 l 1,8,-1
 72 188 l 1,9,-1
 214 188 l 1,10,-1
 214 356 l 1,11,-1
 72 356 l 1,12,-1
 72 425 l 1,13,-1
 214 425 l 1,14,-1
 214 619 l 1,15,-1
 286 619 l 1,16,-1
 286 425 l 1,17,-1
 428 425 l 1,18,-1
 428 356 l 1,19,-1
 286 356 l 1,20,-1
 286 188 l 1,21,-1
 428 188 l 1,22,-1
 428 120 l 1,23,-1
 286 120 l 1,0,1
EndSplineSet
EndChar

StartChar: circumflex
Encoding: 710 710 105
Width: 500
Flags: W
LayerCount: 2
Fore
SplineSet
250 687 m 1,0,-1
 371 559 l 1,1,-1
 337 520 l 1,2,-1
 250 598 l 1,3,-1
 163 520 l 1,4,-1
 129 559 l 1,5,-1
 250 687 l 1,0,-1
EndSplineSet
EndChar

StartChar: perthousand
Encoding: 8240 8240 106
Width: 500
Flags: W
LayerCount: 2
Fore
SplineSet
70 495 m 256,0,1
 70 444 70 444 76.5 424.5 c 128,-1,2
 83 405 83 405 96 405 c 256,3,4
 109 405 109 405 116 424.5 c 128,-1,5
 123 444 123 444 123 495 c 256,6,7
 123 546 123 546 116 565 c 128,-1,8
 109 584 109 584 96 584 c 256,9,10
 83 584 83 584 76.5 565 c 128,-1,11
 70 546 70 546 70 495 c 256,0,1
17 495 m 0,12,13
 17 632 17 632 95 632 c 0,14,15
 176 632 176 632 176 495 c 0,16,17
 176 357 176 357 96 357 c 0,18,19
 17 357 17 357 17 495 c 0,12,13
179 124 m 256,20,21
 179 73 179 73 186 54 c 128,-1,22
 193 35 193 35 206 35 c 0,23,24
 220 35 220 35 227 54 c 128,-1,25
 234 73 234 73 234 124 c 256,26,27
 234 175 234 175 227 194 c 128,-1,28
 220 213 220 213 206 213 c 0,29,30
 193 213 193 213 186 194 c 128,-1,31
 179 175 179 175 179 124 c 256,20,21
128 124 m 0,32,33
 128 262 128 262 205 262 c 0,34,35
 286 262 286 262 286 124 c 0,36,37
 286 -13 286 -13 207 -13 c 256,38,39
 128 -13 128 -13 128 124 c 0,32,33
377 124 m 256,40,41
 377 73 377 73 384 54 c 128,-1,42
 391 35 391 35 404 35 c 256,43,44
 417 35 417 35 424 54 c 128,-1,45
 431 73 431 73 431 124 c 256,46,47
 431 175 431 175 424 194 c 128,-1,48
 417 213 417 213 404 213 c 256,49,50
 391 213 391 213 384 194 c 128,-1,51
 377 175 377 175 377 124 c 256,40,41
325 124 m 0,52,53
 325 262 325 262 403 262 c 0,54,55
 483 262 483 262 483 124 c 0,56,57
 483 -13 483 -13 405 -13 c 0,58,59
 325 -13 325 -13 325 124 c 0,52,53
38 205 m 1,60,-1
 9 250 l 1,61,-1
 462 546 l 1,62,-1
 491 501 l 1,63,-1
 38 205 l 1,60,-1
EndSplineSet
EndChar

StartChar: guilsinglleft
Encoding: 8249 8249 108
Width: 500
Flags: W
LayerCount: 2
Fore
SplineSet
144 254 m 1,0,-1
 283 451 l 1,1,-1
 341 420 l 1,2,-1
 242 254 l 1,3,-1
 341 88 l 1,4,-1
 283 56 l 1,5,-1
 144 254 l 1,0,-1
EndSplineSet
Substitution2: "'case' Case-Sensitive Forms lookup 17 subtable" Guilsinglleft
EndChar

StartChar: OE
Encoding: 338 338 109
Width: 500
Flags: W
LayerCount: 2
Fore
SplineSet
220 554 m 0,0,1
 193 554 193 554 171.5 536 c 128,-1,2
 150 518 150 518 136 485 c 128,-1,3
 122 452 122 452 114.5 405.5 c 128,-1,4
 107 359 107 359 107 301 c 0,5,6
 107 185 107 185 135.5 125 c 128,-1,7
 164 65 164 65 220 65 c 0,8,9
 240 65 240 65 250 68 c 128,-1,10
 260 71 260 71 263 72 c 2,11,-1
 263 547 l 1,12,13
 250 552 250 552 239.5 553 c 128,-1,14
 229 554 229 554 220 554 c 0,0,1
220 -6 m 0,15,16
 131 -6 131 -6 79 67.5 c 128,-1,17
 27 141 27 141 27 301 c 256,18,19
 27 461 27 461 79 543 c 128,-1,20
 131 625 131 625 221 625 c 0,21,22
 232 625 232 625 247 623 c 128,-1,23
 262 621 262 621 276 619 c 2,24,-1
 469 619 l 1,25,-1
 469 549 l 1,26,-1
 341 549 l 1,27,-1
 341 359 l 1,28,-1
 446 359 l 1,29,-1
 446 289 l 1,30,-1
 341 289 l 1,31,-1
 341 70 l 1,32,-1
 482 70 l 1,33,-1
 482 0 l 1,34,-1
 276 0 l 1,35,36
 247 -6 247 -6 220 -6 c 0,15,16
EndSplineSet
EndChar

StartChar: quoteleft
Encoding: 8216 8216 110
Width: 500
Flags: W
LayerCount: 2
Fore
SplineSet
351 645 m 1,0,1
 333 641 333 641 315.5 637 c 128,-1,2
 298 633 298 633 283 625.5 c 128,-1,3
 268 618 268 618 256 606 c 128,-1,4
 244 594 244 594 237 575 c 1,5,6
 269 572 269 572 283.5 550.5 c 128,-1,7
 298 529 298 529 298 508 c 0,8,9
 298 468 298 468 275 447.5 c 128,-1,10
 252 427 252 427 224 427 c 0,11,12
 187 427 187 427 168 453.5 c 128,-1,13
 149 480 149 480 149 518 c 0,14,15
 149 547 149 547 160.5 578.5 c 128,-1,16
 172 610 172 610 195 637.5 c 128,-1,17
 218 665 218 665 253.5 684.5 c 128,-1,18
 289 704 289 704 336 710 c 1,19,-1
 351 645 l 1,0,1
EndSplineSet
EndChar

StartChar: quoteright
Encoding: 8217 8217 111
Width: 500
Flags: W
LayerCount: 2
Fore
SplineSet
148 489 m 1,0,1
 166 493 166 493 183.5 497 c 128,-1,2
 201 501 201 501 216 508.5 c 128,-1,3
 231 516 231 516 243 527.5 c 128,-1,4
 255 539 255 539 262 559 c 1,5,6
 230 562 230 562 215.5 583.5 c 128,-1,7
 201 605 201 605 201 626 c 0,8,9
 201 666 201 666 224 686.5 c 128,-1,10
 247 707 247 707 275 707 c 0,11,12
 312 707 312 707 331 680.5 c 128,-1,13
 350 654 350 654 350 616 c 0,14,15
 350 587 350 587 338.5 555.5 c 128,-1,16
 327 524 327 524 303.5 496.5 c 128,-1,17
 280 469 280 469 245 449.5 c 128,-1,18
 210 430 210 430 163 424 c 1,19,-1
 148 489 l 1,0,1
EndSplineSet
EndChar

StartChar: quotedblleft
Encoding: 8220 8220 112
Width: 500
Flags: W
LayerCount: 2
Fore
SplineSet
458 635 m 1,0,1
 441 631 441 631 425 627.5 c 128,-1,2
 409 624 409 624 395.5 617 c 128,-1,3
 382 610 382 610 371 599.5 c 128,-1,4
 360 589 360 589 354 571 c 1,5,6
 383 568 383 568 397.5 548.5 c 128,-1,7
 412 529 412 529 412 505 c 0,8,9
 412 480 412 480 395.5 459.5 c 128,-1,10
 379 439 379 439 346 439 c 0,11,12
 317 439 317 439 295.5 459 c 128,-1,13
 274 479 274 479 274 523 c 0,14,15
 274 551 274 551 282.5 579 c 128,-1,16
 291 607 291 607 310.5 630 c 128,-1,17
 330 653 330 653 362.5 670 c 128,-1,18
 395 687 395 687 444 693 c 1,19,-1
 458 635 l 1,0,1
227 635 m 1,20,21
 210 631 210 631 194 627.5 c 128,-1,22
 178 624 178 624 164 617 c 128,-1,23
 150 610 150 610 139 599.5 c 128,-1,24
 128 589 128 589 122 571 c 1,25,26
 151 568 151 568 165.5 548.5 c 128,-1,27
 180 529 180 529 180 505 c 0,28,29
 180 480 180 480 164 459.5 c 128,-1,30
 148 439 148 439 114 439 c 0,31,32
 85 439 85 439 64 459 c 128,-1,33
 43 479 43 479 43 523 c 0,34,35
 43 551 43 551 51.5 579 c 128,-1,36
 60 607 60 607 79.5 630 c 128,-1,37
 99 653 99 653 131.5 670 c 128,-1,38
 164 687 164 687 213 693 c 1,39,-1
 227 635 l 1,20,21
EndSplineSet
EndChar

StartChar: quotedblright
Encoding: 8221 8221 113
Width: 500
Flags: W
LayerCount: 2
Fore
SplineSet
42 497 m 1,0,1
 59 501 59 501 75 504.5 c 128,-1,2
 91 508 91 508 104.5 515 c 128,-1,3
 118 522 118 522 129 533 c 128,-1,4
 140 544 140 544 146 562 c 1,5,6
 117 564 117 564 102.5 584 c 128,-1,7
 88 604 88 604 88 627 c 0,8,9
 88 652 88 652 104.5 672.5 c 128,-1,10
 121 693 121 693 154 693 c 0,11,12
 183 693 183 693 204.5 673 c 128,-1,13
 226 653 226 653 226 609 c 0,14,15
 226 580 226 580 217.5 552.5 c 128,-1,16
 209 525 209 525 189.5 502 c 128,-1,17
 170 479 170 479 137.5 462 c 128,-1,18
 105 445 105 445 56 439 c 1,19,-1
 42 497 l 1,0,1
273 497 m 1,20,21
 290 501 290 501 306 504.5 c 128,-1,22
 322 508 322 508 336 515 c 128,-1,23
 350 522 350 522 361 533 c 128,-1,24
 372 544 372 544 378 562 c 1,25,26
 349 564 349 564 334.5 584 c 128,-1,27
 320 604 320 604 320 627 c 0,28,29
 320 652 320 652 336 672.5 c 128,-1,30
 352 693 352 693 386 693 c 0,31,32
 415 693 415 693 436 673 c 128,-1,33
 457 653 457 653 457 609 c 0,34,35
 457 580 457 580 448.5 552.5 c 128,-1,36
 440 525 440 525 420.5 502 c 128,-1,37
 401 479 401 479 368.5 462 c 128,-1,38
 336 445 336 445 288 439 c 1,39,-1
 273 497 l 1,20,21
EndSplineSet
EndChar

StartChar: bullet
Encoding: 8226 8226 114
Width: 500
Flags: W
LayerCount: 2
Fore
SplineSet
386 316 m 0,0,1
 386 287 386 287 376.5 261 c 128,-1,2
 367 235 367 235 349.5 215.5 c 128,-1,3
 332 196 332 196 306.5 184.5 c 128,-1,4
 281 173 281 173 250 173 c 0,5,6
 218 173 218 173 193 184.5 c 128,-1,7
 168 196 168 196 150.5 215.5 c 128,-1,8
 133 235 133 235 123.5 261 c 128,-1,9
 114 287 114 287 114 316 c 0,10,11
 114 344 114 344 123.5 370 c 128,-1,12
 133 396 133 396 150.5 416 c 128,-1,13
 168 436 168 436 193 447.5 c 128,-1,14
 218 459 218 459 250 459 c 0,15,16
 281 459 281 459 306.5 447.5 c 128,-1,17
 332 436 332 436 349.5 416 c 128,-1,18
 367 396 367 396 376.5 370 c 128,-1,19
 386 344 386 344 386 316 c 0,0,1
EndSplineSet
Substitution2: "'case' Case-Sensitive Forms lookup 17 subtable" Bullet
EndChar

StartChar: endash
Encoding: 8211 8211 115
Width: 500
Flags: W
LayerCount: 2
Fore
SplineSet
69 306 m 1,0,-1
 431 306 l 1,1,-1
 431 236 l 1,2,-1
 69 236 l 1,3,-1
 69 306 l 1,0,-1
EndSplineSet
Substitution2: "'case' Case-Sensitive Forms lookup 17 subtable" Endash
EndChar

StartChar: emdash
Encoding: 8212 8212 116
Width: 500
Flags: W
LayerCount: 2
Fore
SplineSet
0 306 m 1,0,-1
 500 306 l 1,1,-1
 500 236 l 1,2,-1
 0 236 l 1,3,-1
 0 306 l 1,0,-1
EndSplineSet
Substitution2: "'case' Case-Sensitive Forms lookup 17 subtable" Emdash
EndChar

StartChar: tilde
Encoding: 732 732 117
Width: 500
Flags: W
LayerCount: 2
Fore
SplineSet
388 635 m 1,0,1
 385 624 385 624 377.5 610 c 128,-1,2
 370 596 370 596 359 584 c 128,-1,3
 348 572 348 572 333 563.5 c 128,-1,4
 318 555 318 555 299 555 c 0,5,6
 286 555 286 555 268.5 562 c 128,-1,7
 251 569 251 569 240 574 c 0,8,9
 214 588 214 588 198 588 c 0,10,11
 185 588 185 588 173 575 c 128,-1,12
 161 562 161 562 155 548 c 1,13,-1
 112 571 l 1,14,15
 115 582 115 582 122.5 596 c 128,-1,16
 130 610 130 610 141 622 c 128,-1,17
 152 634 152 634 167 642.5 c 128,-1,18
 182 651 182 651 200 651 c 0,19,20
 213 651 213 651 230.5 643.5 c 128,-1,21
 248 636 248 636 259 631 c 0,22,23
 285 617 285 617 301 617 c 0,24,25
 314 617 314 617 326.5 630 c 128,-1,26
 339 643 339 643 345 657 c 1,27,-1
 388 635 l 1,0,1
EndSplineSet
EndChar

StartChar: trademark
Encoding: 8482 8482 118
Width: 500
Flags: W
LayerCount: 2
Fore
SplineSet
204 619 m 1,0,-1
 204 569 l 1,1,-1
 140 569 l 1,2,-1
 140 357 l 1,3,-1
 82 357 l 1,4,-1
 82 569 l 1,5,-1
 18 569 l 1,6,-1
 18 619 l 1,7,-1
 204 619 l 1,0,-1
326 426 m 1,8,-1
 287 542 l 1,9,10
 285 522 285 522 284 492 c 128,-1,11
 283 462 283 462 282.5 433.5 c 128,-1,12
 282 405 282 405 281.5 383 c 128,-1,13
 281 361 281 361 281 357 c 1,14,-1
 223 357 l 1,15,16
 226 407 226 407 229 444 c 128,-1,17
 232 481 232 481 235.5 511 c 128,-1,18
 239 541 239 541 242.5 566.5 c 128,-1,19
 246 592 246 592 251 619 c 1,20,-1
 305 619 l 1,21,-1
 349 483 l 1,22,-1
 396 619 l 1,23,-1
 450 619 l 1,24,25
 455 592 455 592 458.5 566 c 128,-1,26
 462 540 462 540 465 510 c 128,-1,27
 468 480 468 480 470.5 443 c 128,-1,28
 473 406 473 406 476 357 c 1,29,-1
 418 357 l 1,30,31
 418 361 418 361 417.5 383 c 128,-1,32
 417 405 417 405 416.5 433.5 c 128,-1,33
 416 462 416 462 415 492 c 128,-1,34
 414 522 414 522 413 542 c 1,35,-1
 371 426 l 1,36,-1
 326 426 l 1,8,-1
EndSplineSet
EndChar

StartChar: guilsinglright
Encoding: 8250 8250 120
Width: 500
Flags: W
LayerCount: 2
Fore
SplineSet
217 56 m 1,0,-1
 159 88 l 1,1,-1
 258 254 l 1,2,-1
 159 420 l 1,3,-1
 217 451 l 1,4,-1
 356 254 l 1,5,-1
 217 56 l 1,0,-1
EndSplineSet
Substitution2: "'case' Case-Sensitive Forms lookup 17 subtable" Guilsinglright
EndChar

StartChar: oe
Encoding: 339 339 121
Width: 500
Flags: W
LayerCount: 2
Fore
SplineSet
465 15 m 1,0,1
 445 1 445 1 422 -5 c 128,-1,2
 399 -11 399 -11 377 -11 c 0,3,4
 342 -11 342 -11 312 8.5 c 128,-1,5
 282 28 282 28 262 79 c 1,6,7
 245 33 245 33 222 11 c 128,-1,8
 199 -11 199 -11 157 -11 c 0,9,10
 124 -11 124 -11 100.5 10 c 128,-1,11
 77 31 77 31 61.5 65.5 c 128,-1,12
 46 100 46 100 38.5 144 c 128,-1,13
 31 188 31 188 31 234 c 0,14,15
 31 279 31 279 38.5 322.5 c 128,-1,16
 46 366 46 366 61 400 c 128,-1,17
 76 434 76 434 100 454.5 c 128,-1,18
 124 475 124 475 157 475 c 0,19,20
 194 475 194 475 221 454 c 128,-1,21
 248 433 248 433 262 385 c 1,22,23
 280 432 280 432 304 453.5 c 128,-1,24
 328 475 328 475 357 475 c 0,25,26
 478 475 478 475 478 239 c 0,27,28
 478 233 478 233 478 226 c 128,-1,29
 478 219 478 219 477 210 c 1,30,-1
 301 210 l 1,31,32
 301 182 301 182 306.5 155.5 c 128,-1,33
 312 129 312 129 322.5 108.5 c 128,-1,34
 333 88 333 88 349.5 75.5 c 128,-1,35
 366 63 366 63 388 63 c 0,36,37
 401 63 401 63 416 67 c 128,-1,38
 431 71 431 71 454 85 c 1,39,-1
 465 15 l 1,0,1
169 62 m 0,40,41
 184 62 184 62 194 76 c 128,-1,42
 204 90 204 90 210.5 113.5 c 128,-1,43
 217 137 217 137 219.5 167 c 128,-1,44
 222 197 222 197 222 229 c 256,45,46
 222 261 222 261 219 292.5 c 128,-1,47
 216 324 216 324 209 348.5 c 128,-1,48
 202 373 202 373 190.5 388.5 c 128,-1,49
 179 404 179 404 163 404 c 0,50,51
 148 404 148 404 137 389.5 c 128,-1,52
 126 375 126 375 119.5 352 c 128,-1,53
 113 329 113 329 110 298.5 c 128,-1,54
 107 268 107 268 107 237 c 0,55,56
 107 204 107 204 110.5 173 c 128,-1,57
 114 142 114 142 121.5 117 c 128,-1,58
 129 92 129 92 140.5 77 c 128,-1,59
 152 62 152 62 169 62 c 0,40,41
403 277 m 1,60,61
 403 336 403 336 390 370.5 c 128,-1,62
 377 405 377 405 357 405 c 0,63,64
 332 405 332 405 317.5 369.5 c 128,-1,65
 303 334 303 334 303 277 c 1,66,-1
 403 277 l 1,60,61
EndSplineSet
Substitution2: "'case' Case-Sensitive Forms lookup 18 subtable" OE
EndChar

StartChar: exclamdown
Encoding: 161 161 124
Width: 500
Flags: W
LayerCount: 2
Fore
SplineSet
204 3 m 2,0,1
 204 40 204 40 205.5 71 c 128,-1,2
 207 102 207 102 209 130 c 128,-1,3
 211 158 211 158 214.5 185.5 c 128,-1,4
 218 213 218 213 221 243 c 1,5,-1
 278 243 l 1,6,7
 281 213 281 213 284 185.5 c 128,-1,8
 287 158 287 158 289.5 130 c 128,-1,9
 292 102 292 102 293 71 c 128,-1,10
 294 40 294 40 294 3 c 2,11,-1
 294 -165 l 1,12,-1
 204 -165 l 1,13,-1
 204 3 l 2,0,1
249 465 m 0,14,15
 277 465 277 465 296.5 446.5 c 128,-1,16
 316 428 316 428 316 397 c 256,17,18
 316 366 316 366 296.5 348 c 128,-1,19
 277 330 277 330 249 330 c 0,20,21
 222 330 222 330 202 348 c 128,-1,22
 182 366 182 366 182 397 c 256,23,24
 182 428 182 428 202 446.5 c 128,-1,25
 222 465 222 465 249 465 c 0,14,15
EndSplineSet
Substitution2: "'case' Case-Sensitive Forms lookup 17 subtable" Exclamdown
EndChar

StartChar: cent
Encoding: 162 162 125
Width: 500
Flags: W
LayerCount: 2
Fore
SplineSet
49 260 m 0,0,1
 49 313 49 313 64 353.5 c 128,-1,2
 79 394 79 394 106 423 c 128,-1,3
 133 452 133 452 170.5 469 c 128,-1,4
 208 486 208 486 252 492 c 1,5,-1
 252 619 l 1,6,-1
 326 619 l 1,7,-1
 326 495 l 1,8,9
 353 493 353 493 380 488.5 c 128,-1,10
 407 484 407 484 438 474 c 1,11,-1
 420 405 l 1,12,13
 387 417 387 417 360 420.5 c 128,-1,14
 333 424 333 424 305 424 c 0,15,16
 269 424 269 424 237.5 414.5 c 128,-1,17
 206 405 206 405 183 385.5 c 128,-1,18
 160 366 160 366 147 334.5 c 128,-1,19
 134 303 134 303 134 260 c 0,20,21
 134 177 134 177 183.5 137.5 c 128,-1,22
 233 98 233 98 313 98 c 0,23,24
 345 98 345 98 374 102 c 128,-1,25
 403 106 403 106 438 118 c 1,26,-1
 450 50 l 1,27,28
 420 39 420 39 390 34 c 128,-1,29
 360 29 360 29 326 27 c 1,30,-1
 326 -97 l 1,31,-1
 252 -97 l 1,32,-1
 252 29 l 1,33,34
 160 42 160 42 104.5 100 c 128,-1,35
 49 158 49 158 49 260 c 0,0,1
EndSplineSet
EndChar

StartChar: sterling
Encoding: 163 163 126
Width: 500
Flags: W
LayerCount: 2
Fore
SplineSet
210 333 m 1,0,-1
 380 333 l 1,1,-1
 380 266 l 1,2,-1
 210 266 l 1,3,-1
 210 259 l 2,4,5
 210 214 210 214 206.5 165 c 128,-1,6
 203 116 203 116 196 71 c 1,7,-1
 455 71 l 1,8,-1
 455 0 l 1,9,-1
 103 0 l 1,10,11
 113 64 113 64 120.5 126.5 c 128,-1,12
 128 189 128 189 128 253 c 2,13,-1
 128 266 l 1,14,-1
 45 266 l 1,15,-1
 45 333 l 1,16,-1
 128 333 l 1,17,-1
 128 407 l 2,18,19
 128 473 128 473 142 516.5 c 128,-1,20
 156 560 156 560 181 585 c 128,-1,21
 206 610 206 610 241.5 620 c 128,-1,22
 277 630 277 630 321 630 c 0,23,24
 360 630 360 630 386.5 623.5 c 128,-1,25
 413 617 413 617 438 606 c 1,26,-1
 418 535 l 1,27,28
 373 557 373 557 317 557 c 0,29,30
 293 557 293 557 273.5 550 c 128,-1,31
 254 543 254 543 239.5 526 c 128,-1,32
 225 509 225 509 217.5 480.5 c 128,-1,33
 210 452 210 452 210 409 c 2,34,-1
 210 333 l 1,0,-1
EndSplineSet
EndChar

StartChar: currency
Encoding: 164 164 127
Width: 500
Flags: W
LayerCount: 2
Fore
SplineSet
78 310 m 0,0,1
 78 365 78 365 103 405 c 1,2,-1
 38 471 l 1,3,-1
 89 522 l 1,4,-1
 155 455 l 1,5,6
 198 481 198 481 250 481 c 0,7,8
 301 481 301 481 344 455 c 1,9,-1
 411 522 l 1,10,-1
 463 471 l 1,11,-1
 396 405 l 1,12,13
 422 365 422 365 422 310 c 0,14,15
 422 281 422 281 415.5 258 c 128,-1,16
 409 235 409 235 396 215 c 1,17,-1
 463 149 l 1,18,-1
 411 97 l 1,19,-1
 344 163 l 1,20,21
 301 138 301 138 250 138 c 0,22,23
 196 138 196 138 155 163 c 1,24,-1
 89 97 l 1,25,-1
 38 149 l 1,26,-1
 103 214 l 1,27,28
 78 254 78 254 78 310 c 0,0,1
355 310 m 256,29,30
 355 361 355 361 324 391 c 128,-1,31
 293 421 293 421 250 421 c 256,32,33
 207 421 207 421 176 391 c 128,-1,34
 145 361 145 361 145 310 c 256,35,36
 145 259 145 259 176 229 c 128,-1,37
 207 199 207 199 250 199 c 256,38,39
 293 199 293 199 324 229 c 128,-1,40
 355 259 355 259 355 310 c 256,29,30
EndSplineSet
EndChar

StartChar: yen
Encoding: 165 165 128
Width: 500
Flags: W
LayerCount: 2
Fore
SplineSet
210 0 m 1,0,-1
 210 95 l 1,1,-1
 65 95 l 1,2,-1
 65 158 l 1,3,-1
 210 158 l 1,4,-1
 210 249 l 1,5,-1
 65 249 l 1,6,-1
 65 313 l 1,7,-1
 187 313 l 1,8,9
 138 391 138 391 94.5 468.5 c 128,-1,10
 51 546 51 546 13 619 c 1,11,-1
 104 619 l 1,12,13
 136 549 136 549 174 479.5 c 128,-1,14
 212 410 212 410 253 346 c 1,15,16
 292 410 292 410 328.5 479.5 c 128,-1,17
 365 549 365 549 397 619 c 1,18,-1
 488 619 l 1,19,20
 448 544 448 544 405 467.5 c 128,-1,21
 362 391 362 391 313 313 c 1,22,-1
 436 313 l 1,23,-1
 436 249 l 1,24,-1
 292 249 l 1,25,-1
 292 158 l 1,26,-1
 436 158 l 1,27,-1
 436 95 l 1,28,-1
 292 95 l 1,29,-1
 292 0 l 1,30,-1
 210 0 l 1,0,-1
EndSplineSet
EndChar

StartChar: brokenbar
Encoding: 166 166 129
Width: 500
Flags: W
LayerCount: 2
Fore
SplineSet
212 177 m 1,0,-1
 289 177 l 1,1,-1
 289 -165 l 1,2,-1
 212 -165 l 1,3,-1
 212 177 l 1,0,-1
212 699 m 1,4,-1
 289 699 l 1,5,-1
 289 357 l 1,6,-1
 212 357 l 1,7,-1
 212 699 l 1,4,-1
EndSplineSet
EndChar

StartChar: section
Encoding: 167 167 130
Width: 500
Flags: W
LayerCount: 2
Fore
SplineSet
90 -1 m 1,0,1
 117 -12 117 -12 149 -20.5 c 128,-1,2
 181 -29 181 -29 231 -29 c 0,3,4
 332 -29 332 -29 332 33 c 0,5,6
 332 65 332 65 308 82.5 c 128,-1,7
 284 100 284 100 227 119 c 0,8,9
 194 130 194 130 165.5 142.5 c 128,-1,10
 137 155 137 155 115 172.5 c 128,-1,11
 93 190 93 190 80.5 215 c 128,-1,12
 68 240 68 240 68 276 c 0,13,14
 68 299 68 299 75.5 319 c 128,-1,15
 83 339 83 339 94.5 355.5 c 128,-1,16
 106 372 106 372 120 384.5 c 128,-1,17
 134 397 134 397 147 405 c 1,18,19
 125 423 125 423 112 446 c 128,-1,20
 99 469 99 469 99 499 c 0,21,22
 99 561 99 561 142.5 597 c 128,-1,23
 186 633 186 633 264 633 c 0,24,25
 310 633 310 633 349 624.5 c 128,-1,26
 388 616 388 616 412 608 c 1,27,-1
 393 539 l 1,28,29
 371 547 371 547 340.5 556 c 128,-1,30
 310 565 310 565 263 565 c 0,31,32
 228 565 228 565 203 550.5 c 128,-1,33
 178 536 178 536 178 506 c 0,34,35
 178 475 178 475 200 458 c 128,-1,36
 222 441 222 441 272 425 c 0,37,38
 305 414 305 414 333.5 401.5 c 128,-1,39
 362 389 362 389 384 371 c 128,-1,40
 406 353 406 353 418.5 328.5 c 128,-1,41
 431 304 431 304 431 268 c 0,42,43
 431 246 431 246 424 226.5 c 128,-1,44
 417 207 417 207 406 190.5 c 128,-1,45
 395 174 395 174 381.5 161 c 128,-1,46
 368 148 368 148 355 140 c 1,47,48
 381 121 381 121 397 96 c 128,-1,49
 413 71 413 71 413 38 c 0,50,51
 413 -29 413 -29 365.5 -63 c 128,-1,52
 318 -97 318 -97 230 -97 c 0,53,54
 170 -97 170 -97 131.5 -87.5 c 128,-1,55
 93 -78 93 -78 70 -67 c 1,56,-1
 90 -1 l 1,0,1
202 373 m 1,57,58
 176 356 176 356 160 333.5 c 128,-1,59
 144 311 144 311 144 284 c 0,60,61
 144 261 144 261 154.5 245 c 128,-1,62
 165 229 165 229 183 217 c 128,-1,63
 201 205 201 205 226 196 c 128,-1,64
 251 187 251 187 280 177 c 2,65,-1
 297 171 l 1,66,67
 323 188 323 188 339 210 c 128,-1,68
 355 232 355 232 355 260 c 0,69,70
 355 283 355 283 344.5 298.5 c 128,-1,71
 334 314 334 314 316.5 325 c 128,-1,72
 299 336 299 336 275.5 345 c 128,-1,73
 252 354 252 354 226 364 c 2,74,-1
 202 373 l 1,57,58
EndSplineSet
EndChar

StartChar: dieresis
Encoding: 168 168 131
Width: 500
Flags: W
LayerCount: 2
Fore
SplineSet
165 550 m 0,0,1
 145 550 145 550 129 565 c 128,-1,2
 113 580 113 580 113 603 c 256,3,4
 113 626 113 626 129 640.5 c 128,-1,5
 145 655 145 655 165 655 c 0,6,7
 186 655 186 655 201.5 640.5 c 128,-1,8
 217 626 217 626 217 603 c 256,9,10
 217 580 217 580 201.5 565 c 128,-1,11
 186 550 186 550 165 550 c 0,0,1
335 550 m 256,12,13
 314 550 314 550 298.5 565 c 128,-1,14
 283 580 283 580 283 603 c 256,15,16
 283 626 283 626 298.5 640.5 c 128,-1,17
 314 655 314 655 335 655 c 256,18,19
 356 655 356 655 371.5 640.5 c 128,-1,20
 387 626 387 626 387 603 c 256,21,22
 387 580 387 580 371.5 565 c 128,-1,23
 356 550 356 550 335 550 c 256,12,13
EndSplineSet
EndChar

StartChar: copyright
Encoding: 169 169 132
Width: 500
Flags: W
LayerCount: 2
Fore
SplineSet
408 231 m 0,0,1
 408 279 408 279 394.5 314.5 c 128,-1,2
 381 350 381 350 358.5 373.5 c 128,-1,3
 336 397 336 397 308 409 c 128,-1,4
 280 421 280 421 250 421 c 256,5,6
 220 421 220 421 192 409 c 128,-1,7
 164 397 164 397 141.5 373.5 c 128,-1,8
 119 350 119 350 105.5 314.5 c 128,-1,9
 92 279 92 279 92 233 c 0,10,11
 92 185 92 185 105.5 149.5 c 128,-1,12
 119 114 119 114 141.5 90.5 c 128,-1,13
 164 67 164 67 192 55 c 128,-1,14
 220 43 220 43 250 43 c 256,15,16
 280 43 280 43 308.5 55 c 128,-1,17
 337 67 337 67 359 90.5 c 128,-1,18
 381 114 381 114 394.5 149 c 128,-1,19
 408 184 408 184 408 231 c 0,0,1
327 120 m 1,20,21
 310 112 310 112 291.5 108 c 128,-1,22
 273 104 273 104 256 104 c 0,23,24
 227 104 227 104 205.5 114.5 c 128,-1,25
 184 125 184 125 170 142.5 c 128,-1,26
 156 160 156 160 149 182.5 c 128,-1,27
 142 205 142 205 142 229 c 256,28,29
 142 253 142 253 149 276 c 128,-1,30
 156 299 156 299 170 317 c 128,-1,31
 184 335 184 335 205.5 346 c 128,-1,32
 227 357 227 357 257 357 c 0,33,34
 273 357 273 357 290.5 354.5 c 128,-1,35
 308 352 308 352 325 344 c 1,36,-1
 305 290 l 1,37,38
 294 295 294 295 283 296.5 c 128,-1,39
 272 298 272 298 263 298 c 0,40,41
 231 298 231 298 217.5 278 c 128,-1,42
 204 258 204 258 204 233 c 0,43,44
 204 201 204 201 220.5 182.5 c 128,-1,45
 237 164 237 164 267 164 c 0,46,47
 276 164 276 164 287.5 166 c 128,-1,48
 299 168 299 168 310 173 c 1,49,-1
 327 120 l 1,20,21
34 231 m 0,50,51
 34 292 34 292 53 338 c 128,-1,52
 72 384 72 384 102.5 414.5 c 128,-1,53
 133 445 133 445 172 460 c 128,-1,54
 211 475 211 475 251 475 c 256,55,56
 291 475 291 475 330 460 c 128,-1,57
 369 445 369 445 399 414.5 c 128,-1,58
 429 384 429 384 447.5 338.5 c 128,-1,59
 466 293 466 293 466 233 c 0,60,61
 466 172 466 172 447 126.5 c 128,-1,62
 428 81 428 81 397.5 50.5 c 128,-1,63
 367 20 367 20 328 4.5 c 128,-1,64
 289 -11 289 -11 249 -11 c 0,65,66
 208 -11 208 -11 169.5 4.5 c 128,-1,67
 131 20 131 20 101 50 c 128,-1,68
 71 80 71 80 52.5 125.5 c 128,-1,69
 34 171 34 171 34 231 c 0,50,51
EndSplineSet
EndChar

StartChar: ordfeminine
Encoding: 170 170 133
Width: 500
Flags: W
LayerCount: 2
Fore
SplineSet
259 349 m 0,0,1
 279 349 279 349 298 350 c 128,-1,2
 317 351 317 351 322 353 c 1,3,-1
 322 442 l 1,4,5
 312 444 312 444 297 445 c 128,-1,6
 282 446 282 446 268 446 c 0,7,8
 253 446 253 446 237.5 444 c 128,-1,9
 222 442 222 442 209 437 c 128,-1,10
 196 432 196 432 188 422.5 c 128,-1,11
 180 413 180 413 180 398 c 0,12,13
 180 372 180 372 201 360.5 c 128,-1,14
 222 349 222 349 259 349 c 0,0,1
253 630 m 0,15,16
 326 630 326 630 355 596 c 128,-1,17
 384 562 384 562 384 506 c 2,18,-1
 384 306 l 1,19,20
 362 301 362 301 326 297.5 c 128,-1,21
 290 294 290 294 253 294 c 0,22,23
 194 294 194 294 156 318 c 128,-1,24
 118 342 118 342 118 398 c 0,25,26
 118 426 118 426 129.5 445.5 c 128,-1,27
 141 465 141 465 161 477 c 128,-1,28
 181 489 181 489 206.5 494.5 c 128,-1,29
 232 500 232 500 261 500 c 0,30,31
 274 500 274 500 288.5 499 c 128,-1,32
 303 498 303 498 322 496 c 1,33,-1
 322 498 l 2,34,35
 322 511 322 511 319.5 524.5 c 128,-1,36
 317 538 317 538 309 548.5 c 128,-1,37
 301 559 301 559 286.5 565.5 c 128,-1,38
 272 572 272 572 249 572 c 0,39,40
 228 572 228 572 204 569.5 c 128,-1,41
 180 567 180 567 162 561 c 1,42,-1
 153 617 l 1,43,44
 170 622 170 622 197 626 c 128,-1,45
 224 630 224 630 253 630 c 0,15,16
EndSplineSet
EndChar

StartChar: guillemotleft
Encoding: 171 171 134
Width: 500
Flags: W
LayerCount: 2
Fore
SplineSet
63 254 m 1,0,-1
 182 430 l 1,1,-1
 234 403 l 1,2,-1
 150 254 l 1,3,-1
 230 110 l 1,4,-1
 180 79 l 1,5,-1
 63 254 l 1,0,-1
242 254 m 1,6,-1
 362 430 l 1,7,-1
 413 403 l 1,8,-1
 330 254 l 1,9,-1
 410 110 l 1,10,-1
 360 79 l 1,11,-1
 242 254 l 1,6,-1
EndSplineSet
Substitution2: "'case' Case-Sensitive Forms lookup 17 subtable" Guillemotleft
EndChar

StartChar: logicalnot
Encoding: 172 172 135
Width: 500
Flags: W
LayerCount: 2
Fore
SplineSet
450 347 m 1,0,-1
 450 43 l 1,1,-1
 379 43 l 1,2,-1
 379 277 l 1,3,-1
 41 277 l 1,4,-1
 41 347 l 1,5,-1
 450 347 l 1,0,-1
EndSplineSet
EndChar

StartChar: registered
Encoding: 174 174 137
Width: 500
Flags: W
LayerCount: 2
Fore
SplineSet
408 231 m 0,0,1
 408 279 408 279 394.5 314.5 c 128,-1,2
 381 350 381 350 358.5 373.5 c 128,-1,3
 336 397 336 397 308 409 c 128,-1,4
 280 421 280 421 250 421 c 256,5,6
 220 421 220 421 192 409 c 128,-1,7
 164 397 164 397 141.5 373.5 c 128,-1,8
 119 350 119 350 105.5 314.5 c 128,-1,9
 92 279 92 279 92 233 c 0,10,11
 92 185 92 185 105.5 149.5 c 128,-1,12
 119 114 119 114 141.5 90.5 c 128,-1,13
 164 67 164 67 192 55 c 128,-1,14
 220 43 220 43 250 43 c 256,15,16
 280 43 280 43 308.5 55 c 128,-1,17
 337 67 337 67 359 90.5 c 128,-1,18
 381 114 381 114 394.5 149 c 128,-1,19
 408 184 408 184 408 231 c 0,0,1
34 231 m 0,20,21
 34 292 34 292 53 338 c 128,-1,22
 72 384 72 384 102.5 414.5 c 128,-1,23
 133 445 133 445 172 460 c 128,-1,24
 211 475 211 475 251 475 c 256,25,26
 291 475 291 475 330 460 c 128,-1,27
 369 445 369 445 399 414.5 c 128,-1,28
 429 384 429 384 447.5 338.5 c 128,-1,29
 466 293 466 293 466 233 c 0,30,31
 466 172 466 172 447 126.5 c 128,-1,32
 428 81 428 81 397.5 50.5 c 128,-1,33
 367 20 367 20 328 4.5 c 128,-1,34
 289 -11 289 -11 249 -11 c 0,35,36
 208 -11 208 -11 169.5 4.5 c 128,-1,37
 131 20 131 20 101 50 c 128,-1,38
 71 80 71 80 52.5 125.5 c 128,-1,39
 34 171 34 171 34 231 c 0,20,21
220 187 m 1,40,-1
 220 110 l 1,41,-1
 166 110 l 1,42,-1
 166 348 l 1,43,44
 180 352 180 352 197 354.5 c 128,-1,45
 214 357 214 357 233 357 c 0,46,47
 290 357 290 357 317.5 335 c 128,-1,48
 345 313 345 313 345 271 c 0,49,50
 345 223 345 223 305 200 c 1,51,52
 317 183 317 183 330 159.5 c 128,-1,53
 343 136 343 136 356 110 c 1,54,-1
 299 110 l 1,55,56
 286 134 286 134 276 152.5 c 128,-1,57
 266 171 266 171 256 187 c 1,58,-1
 220 187 l 1,40,-1
220 237 m 1,59,-1
 238 237 l 2,60,61
 265 237 265 237 278 244 c 128,-1,62
 291 251 291 251 291 274 c 0,63,64
 291 294 291 294 275 300.5 c 128,-1,65
 259 307 259 307 242 307 c 0,66,67
 236 307 236 307 230.5 306.5 c 128,-1,68
 225 306 225 306 220 305 c 1,69,-1
 220 237 l 1,59,-1
EndSplineSet
EndChar

StartChar: macron
Encoding: 175 175 138
Width: 500
Flags: W
LayerCount: 2
Fore
SplineSet
123 635 m 1,0,-1
 377 635 l 1,1,-1
 377 571 l 1,2,-1
 123 571 l 1,3,-1
 123 635 l 1,0,-1
EndSplineSet
EndChar

StartChar: degree
Encoding: 176 176 139
Width: 500
Flags: W
LayerCount: 2
Fore
SplineSet
375 569 m 256,0,1
 375 540 375 540 365 517 c 128,-1,2
 355 494 355 494 337.5 478 c 128,-1,3
 320 462 320 462 297.5 453.5 c 128,-1,4
 275 445 275 445 250 445 c 256,5,6
 225 445 225 445 202.5 453.5 c 128,-1,7
 180 462 180 462 162.5 478 c 128,-1,8
 145 494 145 494 135 517 c 128,-1,9
 125 540 125 540 125 569 c 256,10,11
 125 598 125 598 135 621 c 128,-1,12
 145 644 145 644 162.5 660 c 128,-1,13
 180 676 180 676 202.5 684.5 c 128,-1,14
 225 693 225 693 250 693 c 256,15,16
 275 693 275 693 297.5 684.5 c 128,-1,17
 320 676 320 676 337.5 660 c 128,-1,18
 355 644 355 644 365 621 c 128,-1,19
 375 598 375 598 375 569 c 256,0,1
315 569 m 256,20,21
 315 601 315 601 296 619 c 128,-1,22
 277 637 277 637 250 637 c 256,23,24
 223 637 223 637 204 619 c 128,-1,25
 185 601 185 601 185 569 c 256,26,27
 185 537 185 537 204 519 c 128,-1,28
 223 501 223 501 250 501 c 256,29,30
 277 501 277 501 296 519 c 128,-1,31
 315 537 315 537 315 569 c 256,20,21
EndSplineSet
EndChar

StartChar: plusminus
Encoding: 177 177 140
Width: 500
Flags: W
LayerCount: 2
Fore
SplineSet
46 374 m 1,0,-1
 214 374 l 1,1,-1
 214 554 l 1,2,-1
 286 554 l 1,3,-1
 286 374 l 1,4,-1
 455 374 l 1,5,-1
 455 304 l 1,6,-1
 286 304 l 1,7,-1
 286 124 l 1,8,-1
 214 124 l 1,9,-1
 214 304 l 1,10,-1
 46 304 l 1,11,-1
 46 374 l 1,0,-1
46 71 m 1,12,-1
 455 71 l 1,13,-1
 455 0 l 1,14,-1
 46 0 l 1,15,-1
 46 71 l 1,12,-1
EndSplineSet
EndChar

StartChar: twosuperior
Encoding: 178 178 141
Width: 500
Flags: W
LayerCount: 2
Fore
SplineSet
362 534 m 0,0,1
 362 515 362 515 353.5 497.5 c 128,-1,2
 345 480 345 480 330.5 462.5 c 128,-1,3
 316 445 316 445 297 427 c 128,-1,4
 278 409 278 409 257 391 c 0,5,6
 242 378 242 378 227 363.5 c 128,-1,7
 212 349 212 349 210 338 c 1,8,-1
 376 338 l 1,9,-1
 376 281 l 1,10,-1
 138 281 l 1,11,12
 135 311 135 311 142 333.5 c 128,-1,13
 149 356 149 356 162 375 c 128,-1,14
 175 394 175 394 192.5 409.5 c 128,-1,15
 210 425 210 425 228 441 c 0,16,17
 258 467 258 467 277 489 c 128,-1,18
 296 511 296 511 296 532 c 0,19,20
 296 577 296 577 241 577 c 0,21,22
 226 577 226 577 212.5 573 c 128,-1,23
 199 569 199 569 188 563.5 c 128,-1,24
 177 558 177 558 169 552 c 128,-1,25
 161 546 161 546 156 542 c 1,26,-1
 124 586 l 1,27,28
 140 602 140 602 170.5 617.5 c 128,-1,29
 201 633 201 633 241 633 c 0,30,31
 303 633 303 633 332.5 607.5 c 128,-1,32
 362 582 362 582 362 534 c 0,0,1
EndSplineSet
Substitution2: "Single Substitution lookup 22 subtable" twoinferior
Substitution2: "'sinf' Scientific Inferiors lookup 11 subtable" two.sinf
Substitution2: "'subs' Subscript lookup 10 subtable" two.sinf
Substitution2: "'sups' Superscript lookup 9 subtable" two.sups
Substitution2: "'dnom' Denominators lookup 8 subtable" twoinferior
EndChar

StartChar: threesuperior
Encoding: 179 179 142
Width: 500
Flags: W
LayerCount: 2
Fore
SplineSet
226 330 m 0,0,1
 274 330 274 330 291.5 344.5 c 128,-1,2
 309 359 309 359 309 382 c 0,3,4
 309 397 309 397 301 407.5 c 128,-1,5
 293 418 293 418 279.5 425 c 128,-1,6
 266 432 266 432 248 435 c 128,-1,7
 230 438 230 438 211 438 c 2,8,-1
 194 438 l 1,9,-1
 194 489 l 1,10,-1
 216 489 l 2,11,12
 229 489 229 489 242.5 491.5 c 128,-1,13
 256 494 256 494 267 499.5 c 128,-1,14
 278 505 278 505 285.5 514 c 128,-1,15
 293 523 293 523 293 537 c 0,16,17
 293 559 293 559 276.5 568.5 c 128,-1,18
 260 578 260 578 234 578 c 0,19,20
 210 578 210 578 189.5 569.5 c 128,-1,21
 169 561 169 561 154 554 c 1,22,-1
 131 603 l 1,23,24
 145 613 145 613 175.5 623 c 128,-1,25
 206 633 206 633 236 633 c 0,26,27
 301 633 301 633 328 607 c 128,-1,28
 355 581 355 581 355 539 c 0,29,30
 355 496 355 496 306 468 c 1,31,32
 338 458 338 458 356 435.5 c 128,-1,33
 374 413 374 413 374 381 c 0,34,35
 374 336 374 336 340 305 c 128,-1,36
 306 274 306 274 227 274 c 0,37,38
 199 274 199 274 170.5 280.5 c 128,-1,39
 142 287 142 287 126 295 c 1,40,-1
 139 348 l 1,41,42
 159 340 159 340 181 335 c 128,-1,43
 203 330 203 330 226 330 c 0,0,1
EndSplineSet
Substitution2: "Single Substitution lookup 22 subtable" threeinferior
Substitution2: "'sinf' Scientific Inferiors lookup 11 subtable" three.sinf
Substitution2: "'subs' Subscript lookup 10 subtable" three.sinf
Substitution2: "'sups' Superscript lookup 9 subtable" three.sups
Substitution2: "'dnom' Denominators lookup 8 subtable" threeinferior
EndChar

StartChar: acute
Encoding: 180 180 143
Width: 500
Flags: W
LayerCount: 2
Fore
SplineSet
338 640 m 1,0,-1
 212 518 l 1,1,-1
 170 555 l 1,2,-1
 284 693 l 1,3,-1
 338 640 l 1,0,-1
EndSplineSet
EndChar

StartChar: mu
Encoding: 181 181 144
Width: 500
Flags: W
LayerCount: 2
Fore
SplineSet
429 13 m 1,0,1
 402 6 402 6 357.5 -2.5 c 128,-1,2
 313 -11 313 -11 253 -11 c 0,3,4
 212 -11 212 -11 189.5 -2 c 128,-1,5
 167 7 167 7 150 22 c 1,6,7
 153 -1 153 -1 153.5 -24 c 128,-1,8
 154 -47 154 -47 154 -73 c 2,9,-1
 154 -165 l 1,10,-1
 71 -165 l 1,11,-1
 71 464 l 1,12,-1
 154 464 l 1,13,-1
 154 221 l 2,14,15
 154 178 154 178 159.5 148 c 128,-1,16
 165 118 165 118 177.5 99 c 128,-1,17
 190 80 190 80 210.5 71.5 c 128,-1,18
 231 63 231 63 261 63 c 0,19,20
 274 63 274 63 287.5 64 c 128,-1,21
 301 65 301 65 313 66 c 128,-1,22
 325 67 325 67 334 68.5 c 128,-1,23
 343 70 343 70 346 71 c 2,24,-1
 346 464 l 1,25,-1
 429 464 l 1,26,-1
 429 13 l 1,0,1
EndSplineSet
EndChar

StartChar: paragraph
Encoding: 182 182 145
Width: 500
Flags: W
LayerCount: 2
Fore
SplineSet
377 553 m 1,0,1
 331 559 331 559 290 555 c 1,2,-1
 290 -165 l 1,3,-1
 221 -165 l 1,4,-1
 221 234 l 1,5,6
 128 244 128 244 78 290 c 128,-1,7
 28 336 28 336 28 428 c 0,8,9
 28 477 28 477 46.5 513.5 c 128,-1,10
 65 550 65 550 100 575 c 128,-1,11
 135 600 135 600 184.5 612.5 c 128,-1,12
 234 625 234 625 296 625 c 0,13,14
 331 625 331 625 371 622 c 128,-1,15
 411 619 411 619 447 609 c 1,16,-1
 447 -165 l 1,17,-1
 377 -165 l 1,18,-1
 377 553 l 1,0,1
EndSplineSet
EndChar

StartChar: cedilla
Encoding: 184 184 147
Width: 500
Flags: W
LayerCount: 2
Fore
SplineSet
272 -33 m 1,0,1
 298 -45 298 -45 309.5 -60 c 128,-1,2
 321 -75 321 -75 321 -104 c 0,3,4
 321 -114 321 -114 316.5 -125.5 c 128,-1,5
 312 -137 312 -137 301.5 -146.5 c 128,-1,6
 291 -156 291 -156 273.5 -162.5 c 128,-1,7
 256 -169 256 -169 230 -169 c 0,8,9
 207 -169 207 -169 187 -165.5 c 128,-1,10
 167 -162 167 -162 156 -157 c 1,11,-1
 166 -106 l 1,12,13
 177 -110 177 -110 189 -112.5 c 128,-1,14
 201 -115 201 -115 216 -115 c 0,15,16
 248 -115 248 -115 248 -95 c 256,17,18
 248 -75 248 -75 211 -64 c 2,19,-1
 204 -62 l 1,20,21
 207 -53 207 -53 212.5 -41 c 128,-1,22
 218 -29 218 -29 223.5 -17 c 128,-1,23
 229 -5 229 -5 234 4.5 c 128,-1,24
 239 14 239 14 241 18 c 1,25,-1
 298 18 l 1,26,27
 293 7 293 7 285 -7.5 c 128,-1,28
 277 -22 277 -22 272 -33 c 1,0,1
EndSplineSet
EndChar

StartChar: onesuperior
Encoding: 185 185 148
Width: 500
Flags: W
LayerCount: 2
Fore
SplineSet
231 338 m 1,0,-1
 231 544 l 1,1,2
 211 531 211 531 186 521 c 128,-1,3
 161 511 161 511 143 506 c 1,4,-1
 126 555 l 1,5,6
 160 566 160 566 193 584.5 c 128,-1,7
 226 603 226 603 250 626 c 1,8,-1
 294 626 l 1,9,-1
 294 338 l 1,10,-1
 383 338 l 1,11,-1
 383 281 l 1,12,-1
 133 281 l 1,13,-1
 133 338 l 1,14,-1
 231 338 l 1,0,-1
EndSplineSet
Substitution2: "Single Substitution lookup 22 subtable" oneinferior
Substitution2: "'sinf' Scientific Inferiors lookup 11 subtable" one.sinf
Substitution2: "'subs' Subscript lookup 10 subtable" one.sinf
Substitution2: "'sups' Superscript lookup 9 subtable" one.sups
Substitution2: "'dnom' Denominators lookup 8 subtable" oneinferior
EndChar

StartChar: ordmasculine
Encoding: 186 186 149
Width: 500
Flags: W
LayerCount: 2
Fore
SplineSet
411 463 m 256,0,1
 411 424 411 424 399 393 c 128,-1,2
 387 362 387 362 365.5 339.5 c 128,-1,3
 344 317 344 317 314.5 305 c 128,-1,4
 285 293 285 293 250 293 c 256,5,6
 215 293 215 293 185.5 305 c 128,-1,7
 156 317 156 317 134.5 339.5 c 128,-1,8
 113 362 113 362 101 393 c 128,-1,9
 89 424 89 424 89 463 c 256,10,11
 89 502 89 502 101 533 c 128,-1,12
 113 564 113 564 134.5 586 c 128,-1,13
 156 608 156 608 185.5 620 c 128,-1,14
 215 632 215 632 250 632 c 256,15,16
 285 632 285 632 314.5 620 c 128,-1,17
 344 608 344 608 365.5 586 c 128,-1,18
 387 564 387 564 399 533 c 128,-1,19
 411 502 411 502 411 463 c 256,0,1
345 463 m 0,20,21
 345 514 345 514 320.5 543 c 128,-1,22
 296 572 296 572 250 572 c 0,23,24
 205 572 205 572 180 543 c 128,-1,25
 155 514 155 514 155 463 c 0,26,27
 155 413 155 413 179.5 383 c 128,-1,28
 204 353 204 353 250 353 c 256,29,30
 296 353 296 353 320.5 383 c 128,-1,31
 345 413 345 413 345 463 c 0,20,21
EndSplineSet
EndChar

StartChar: guillemotright
Encoding: 187 187 150
Width: 500
Flags: W
LayerCount: 2
Fore
SplineSet
437 255 m 1,0,-1
 317 79 l 1,1,-1
 265 106 l 1,2,-1
 349 255 l 1,3,-1
 269 399 l 1,4,-1
 319 430 l 1,5,-1
 437 255 l 1,0,-1
256 255 m 1,6,-1
 137 79 l 1,7,-1
 85 106 l 1,8,-1
 169 255 l 1,9,-1
 88 399 l 1,10,-1
 138 430 l 1,11,-1
 256 255 l 1,6,-1
EndSplineSet
Substitution2: "'case' Case-Sensitive Forms lookup 17 subtable" Guillemotright
EndChar

StartChar: onequarter
Encoding: 188 188 151
Width: 500
Flags: W
LayerCount: 2
Fore
SplineSet
18 561 m 1,0,1
 52 575 52 575 76 589 c 128,-1,2
 100 603 100 603 124 626 c 1,3,-1
 164 626 l 1,4,-1
 164 376 l 1,5,-1
 105 376 l 1,6,-1
 105 544 l 1,7,8
 85 533 85 533 69 526 c 128,-1,9
 53 519 53 519 35 513 c 1,10,-1
 18 561 l 1,0,1
441 250 m 1,11,-1
 441 98 l 1,12,-1
 477 98 l 1,13,-1
 477 48 l 1,14,-1
 441 48 l 1,15,-1
 441 0 l 1,16,-1
 382 0 l 1,17,-1
 382 48 l 1,18,-1
 253 48 l 1,19,-1
 253 89 l 1,20,21
 279 135 279 135 303 172.5 c 128,-1,22
 327 210 327 210 358 250 c 1,23,-1
 441 250 l 1,11,-1
382 207 m 1,24,25
 361 180 361 180 344 152 c 128,-1,26
 327 124 327 124 312 98 c 1,27,-1
 382 98 l 1,28,-1
 382 207 l 1,24,25
95 -4 m 1,29,-1
 25 -4 l 1,30,-1
 404 615 l 1,31,-1
 474 615 l 1,32,-1
 95 -4 l 1,29,-1
EndSplineSet
Ligature2: "'frac' Diagonal Fractions lookup 13 subtable" one.sinf fraction four.sinf
Ligature2: "'frac' Diagonal Fractions lookup 13 subtable" one.sinf fraction four.sups
Ligature2: "'frac' Diagonal Fractions lookup 13 subtable" one.sinf fraction fourinferior
Ligature2: "'frac' Diagonal Fractions lookup 13 subtable" one.sinf fraction foursuperior
Ligature2: "'frac' Diagonal Fractions lookup 13 subtable" one.sinf fraction four
Ligature2: "'frac' Diagonal Fractions lookup 13 subtable" one.sups fraction four.sinf
Ligature2: "'frac' Diagonal Fractions lookup 13 subtable" one.sups fraction four.sups
Ligature2: "'frac' Diagonal Fractions lookup 13 subtable" one.sups fraction fourinferior
Ligature2: "'frac' Diagonal Fractions lookup 13 subtable" one.sups fraction foursuperior
Ligature2: "'frac' Diagonal Fractions lookup 13 subtable" one.sups fraction four
Ligature2: "'frac' Diagonal Fractions lookup 13 subtable" oneinferior fraction four.sinf
Ligature2: "'frac' Diagonal Fractions lookup 13 subtable" oneinferior fraction four.sups
Ligature2: "'frac' Diagonal Fractions lookup 13 subtable" oneinferior fraction fourinferior
Ligature2: "'frac' Diagonal Fractions lookup 13 subtable" oneinferior fraction foursuperior
Ligature2: "'frac' Diagonal Fractions lookup 13 subtable" oneinferior fraction four
Ligature2: "'frac' Diagonal Fractions lookup 13 subtable" onesuperior fraction four.sinf
Ligature2: "'frac' Diagonal Fractions lookup 13 subtable" onesuperior fraction four.sups
Ligature2: "'frac' Diagonal Fractions lookup 13 subtable" onesuperior fraction fourinferior
Ligature2: "'frac' Diagonal Fractions lookup 13 subtable" onesuperior fraction foursuperior
Ligature2: "'frac' Diagonal Fractions lookup 13 subtable" onesuperior fraction four
Ligature2: "'frac' Diagonal Fractions lookup 13 subtable" one fraction four.sinf
Ligature2: "'frac' Diagonal Fractions lookup 13 subtable" one fraction four.sups
Ligature2: "'frac' Diagonal Fractions lookup 13 subtable" one fraction fourinferior
Ligature2: "'frac' Diagonal Fractions lookup 13 subtable" one fraction foursuperior
Ligature2: "'frac' Diagonal Fractions lookup 13 subtable" one fraction four
EndChar

StartChar: onehalf
Encoding: 189 189 152
Width: 500
Flags: W
LayerCount: 2
Fore
SplineSet
482 50 m 1,0,-1
 482 0 l 1,1,-1
 285 0 l 2,2,3
 284 3 284 3 284 11.5 c 128,-1,4
 284 20 284 20 284 23 c 0,5,6
 284 55 284 55 304 72.5 c 128,-1,7
 324 90 324 90 350 106 c 2,8,-1
 372 121 l 2,9,10
 396 135 396 135 405 147.5 c 128,-1,11
 414 160 414 160 414 174 c 0,12,13
 414 191 414 191 402.5 199 c 128,-1,14
 391 207 391 207 375 207 c 0,15,16
 360 207 360 207 344 200.5 c 128,-1,17
 328 194 328 194 316 181 c 1,18,-1
 284 221 l 1,19,20
 301 240 301 240 327 249.5 c 128,-1,21
 353 259 353 259 379 259 c 0,22,23
 426 259 426 259 449.5 234 c 128,-1,24
 473 209 473 209 473 177 c 0,25,26
 473 151 473 151 460 132.5 c 128,-1,27
 447 114 447 114 428 100 c 128,-1,28
 409 86 409 86 389 74 c 128,-1,29
 369 62 369 62 356 50 c 1,30,-1
 482 50 l 1,0,-1
24 561 m 1,31,32
 59 575 59 575 82.5 589 c 128,-1,33
 106 603 106 603 130 626 c 1,34,-1
 171 626 l 1,35,-1
 171 376 l 1,36,-1
 112 376 l 1,37,-1
 112 544 l 1,38,39
 92 533 92 533 75.5 526 c 128,-1,40
 59 519 59 519 41 513 c 1,41,-1
 24 561 l 1,31,32
87 0 m 1,42,-1
 17 0 l 1,43,-1
 396 619 l 1,44,-1
 466 619 l 1,45,-1
 87 0 l 1,42,-1
EndSplineSet
Ligature2: "'frac' Diagonal Fractions lookup 13 subtable" one.sinf fraction two.sinf
Ligature2: "'frac' Diagonal Fractions lookup 13 subtable" one.sinf fraction two.sups
Ligature2: "'frac' Diagonal Fractions lookup 13 subtable" one.sinf fraction twoinferior
Ligature2: "'frac' Diagonal Fractions lookup 13 subtable" one.sinf fraction twosuperior
Ligature2: "'frac' Diagonal Fractions lookup 13 subtable" one.sinf fraction two
Ligature2: "'frac' Diagonal Fractions lookup 13 subtable" one.sups fraction two.sinf
Ligature2: "'frac' Diagonal Fractions lookup 13 subtable" one.sups fraction two.sups
Ligature2: "'frac' Diagonal Fractions lookup 13 subtable" one.sups fraction twoinferior
Ligature2: "'frac' Diagonal Fractions lookup 13 subtable" one.sups fraction twosuperior
Ligature2: "'frac' Diagonal Fractions lookup 13 subtable" one.sups fraction two
Ligature2: "'frac' Diagonal Fractions lookup 13 subtable" oneinferior fraction two.sinf
Ligature2: "'frac' Diagonal Fractions lookup 13 subtable" oneinferior fraction two.sups
Ligature2: "'frac' Diagonal Fractions lookup 13 subtable" oneinferior fraction twoinferior
Ligature2: "'frac' Diagonal Fractions lookup 13 subtable" oneinferior fraction twosuperior
Ligature2: "'frac' Diagonal Fractions lookup 13 subtable" oneinferior fraction two
Ligature2: "'frac' Diagonal Fractions lookup 13 subtable" onesuperior fraction two.sinf
Ligature2: "'frac' Diagonal Fractions lookup 13 subtable" onesuperior fraction two.sups
Ligature2: "'frac' Diagonal Fractions lookup 13 subtable" onesuperior fraction twoinferior
Ligature2: "'frac' Diagonal Fractions lookup 13 subtable" onesuperior fraction twosuperior
Ligature2: "'frac' Diagonal Fractions lookup 13 subtable" onesuperior fraction two
Ligature2: "'frac' Diagonal Fractions lookup 13 subtable" one fraction two.sinf
Ligature2: "'frac' Diagonal Fractions lookup 13 subtable" one fraction two.sups
Ligature2: "'frac' Diagonal Fractions lookup 13 subtable" one fraction twoinferior
Ligature2: "'frac' Diagonal Fractions lookup 13 subtable" one fraction twosuperior
Ligature2: "'frac' Diagonal Fractions lookup 13 subtable" one fraction two
EndChar

StartChar: threequarters
Encoding: 190 190 153
Width: 500
Flags: W
LayerCount: 2
Fore
SplineSet
441 250 m 1,0,-1
 441 98 l 1,1,-1
 477 98 l 1,2,-1
 477 48 l 1,3,-1
 441 48 l 1,4,-1
 441 0 l 1,5,-1
 382 0 l 1,6,-1
 382 48 l 1,7,-1
 253 48 l 1,8,-1
 253 89 l 1,9,10
 279 135 279 135 303 172.5 c 128,-1,11
 327 210 327 210 358 250 c 1,12,-1
 441 250 l 1,0,-1
36 430 m 1,13,14
 47 425 47 425 63.5 421 c 128,-1,15
 80 417 80 417 100 417 c 0,16,17
 122 417 122 417 138.5 423.5 c 128,-1,18
 155 430 155 430 155 447 c 0,19,20
 155 468 155 468 136 474 c 128,-1,21
 117 480 117 480 79 480 c 2,22,-1
 67 480 l 1,23,-1
 67 530 l 1,24,-1
 89 530 l 2,25,26
 115 530 115 530 129 535.5 c 128,-1,27
 143 541 143 541 143 559 c 0,28,29
 143 574 143 574 130.5 578.5 c 128,-1,30
 118 583 118 583 104 583 c 256,31,32
 90 583 90 583 72 578 c 128,-1,33
 54 573 54 573 42 568 c 1,34,-1
 23 611 l 1,35,36
 38 620 38 620 62.5 626.5 c 128,-1,37
 87 633 87 633 113 633 c 0,38,39
 130 633 130 633 146 629.5 c 128,-1,40
 162 626 162 626 174.5 618.5 c 128,-1,41
 187 611 187 611 194.5 598.5 c 128,-1,42
 202 586 202 586 202 568 c 0,43,44
 202 553 202 553 194.5 538 c 128,-1,45
 187 523 187 523 171 512 c 1,46,47
 214 492 214 492 214 447 c 0,48,49
 214 433 214 433 208 418.5 c 128,-1,50
 202 404 202 404 189 392.5 c 128,-1,51
 176 381 176 381 155 374 c 128,-1,52
 134 367 134 367 104 367 c 0,53,54
 58 367 58 367 21 381 c 1,55,-1
 36 430 l 1,13,14
382 207 m 1,56,57
 361 180 361 180 344 152 c 128,-1,58
 327 124 327 124 312 98 c 1,59,-1
 382 98 l 1,60,-1
 382 207 l 1,56,57
100 0 m 1,61,-1
 30 0 l 1,62,-1
 409 619 l 1,63,-1
 479 619 l 1,64,-1
 100 0 l 1,61,-1
EndSplineSet
Ligature2: "'frac' Diagonal Fractions lookup 13 subtable" three.sinf fraction four.sinf
Ligature2: "'frac' Diagonal Fractions lookup 13 subtable" three.sinf fraction four.sups
Ligature2: "'frac' Diagonal Fractions lookup 13 subtable" three.sinf fraction fourinferior
Ligature2: "'frac' Diagonal Fractions lookup 13 subtable" three.sinf fraction foursuperior
Ligature2: "'frac' Diagonal Fractions lookup 13 subtable" three.sinf fraction four
Ligature2: "'frac' Diagonal Fractions lookup 13 subtable" three.sups fraction four.sinf
Ligature2: "'frac' Diagonal Fractions lookup 13 subtable" three.sups fraction four.sups
Ligature2: "'frac' Diagonal Fractions lookup 13 subtable" three.sups fraction fourinferior
Ligature2: "'frac' Diagonal Fractions lookup 13 subtable" three.sups fraction foursuperior
Ligature2: "'frac' Diagonal Fractions lookup 13 subtable" three.sups fraction four
Ligature2: "'frac' Diagonal Fractions lookup 13 subtable" threeinferior fraction four.sinf
Ligature2: "'frac' Diagonal Fractions lookup 13 subtable" threeinferior fraction four.sups
Ligature2: "'frac' Diagonal Fractions lookup 13 subtable" threeinferior fraction fourinferior
Ligature2: "'frac' Diagonal Fractions lookup 13 subtable" threeinferior fraction foursuperior
Ligature2: "'frac' Diagonal Fractions lookup 13 subtable" threeinferior fraction four
Ligature2: "'frac' Diagonal Fractions lookup 13 subtable" threesuperior fraction four.sinf
Ligature2: "'frac' Diagonal Fractions lookup 13 subtable" threesuperior fraction four.sups
Ligature2: "'frac' Diagonal Fractions lookup 13 subtable" threesuperior fraction fourinferior
Ligature2: "'frac' Diagonal Fractions lookup 13 subtable" threesuperior fraction foursuperior
Ligature2: "'frac' Diagonal Fractions lookup 13 subtable" threesuperior fraction four
Ligature2: "'frac' Diagonal Fractions lookup 13 subtable" three fraction four.sinf
Ligature2: "'frac' Diagonal Fractions lookup 13 subtable" three fraction four.sups
Ligature2: "'frac' Diagonal Fractions lookup 13 subtable" three fraction fourinferior
Ligature2: "'frac' Diagonal Fractions lookup 13 subtable" three fraction foursuperior
Ligature2: "'frac' Diagonal Fractions lookup 13 subtable" three fraction four
EndChar

StartChar: questiondown
Encoding: 191 191 154
Width: 500
Flags: W
LayerCount: 2
Fore
SplineSet
317 243 m 1,0,-1
 318 223 l 2,1,2
 318 194 318 194 307.5 172 c 128,-1,3
 297 150 297 150 281.5 131 c 128,-1,4
 266 112 266 112 247.5 95.5 c 128,-1,5
 229 79 229 79 213.5 62 c 128,-1,6
 198 45 198 45 187.5 26 c 128,-1,7
 177 7 177 7 177 -16 c 0,8,9
 177 -54 177 -54 201 -77 c 128,-1,10
 225 -100 225 -100 271 -100 c 0,11,12
 330 -100 330 -100 387 -70 c 1,13,-1
 410 -134 l 1,14,15
 380 -150 380 -150 342 -160 c 128,-1,16
 304 -170 304 -170 261 -170 c 0,17,18
 210 -170 210 -170 177.5 -156 c 128,-1,19
 145 -142 145 -142 126 -120.5 c 128,-1,20
 107 -99 107 -99 99.5 -73 c 128,-1,21
 92 -47 92 -47 92 -23 c 0,22,23
 92 7 92 7 103.5 30 c 128,-1,24
 115 53 115 53 132 72.5 c 128,-1,25
 149 92 149 92 169 110 c 128,-1,26
 189 128 189 128 206 148 c 128,-1,27
 223 168 223 168 234.5 190.5 c 128,-1,28
 246 213 246 213 246 243 c 1,29,-1
 317 243 l 1,0,-1
274 465 m 0,30,31
 302 465 302 465 321.5 446.5 c 128,-1,32
 341 428 341 428 341 397 c 256,33,34
 341 366 341 366 321.5 348 c 128,-1,35
 302 330 302 330 274 330 c 0,36,37
 247 330 247 330 227 348 c 128,-1,38
 207 366 207 366 207 397 c 256,39,40
 207 428 207 428 227 446.5 c 128,-1,41
 247 465 247 465 274 465 c 0,30,31
EndSplineSet
Substitution2: "'case' Case-Sensitive Forms lookup 17 subtable" Questiondown
EndChar

StartChar: Aring
Encoding: 197 197 160
Width: 500
Flags: W
LayerCount: 2
Fore
SplineSet
404 0 m 1,0,-1
 367 162 l 1,1,-1
 129 162 l 1,2,-1
 93 0 l 1,3,-1
 9 0 l 1,4,5
 25 63 25 63 46.5 140.5 c 128,-1,6
 68 218 68 218 92 297.5 c 128,-1,7
 116 377 116 377 141.5 452 c 128,-1,8
 167 527 167 527 193 586 c 1,9,10
 179 598 179 598 169 616.5 c 128,-1,11
 159 635 159 635 159 658 c 0,12,13
 159 700 159 700 186.5 724.5 c 128,-1,14
 214 749 214 749 251 749 c 256,15,16
 288 749 288 749 315.5 724.5 c 128,-1,17
 343 700 343 700 343 658 c 0,18,19
 343 636 343 636 333.5 617 c 128,-1,20
 324 598 324 598 310 587 c 1,21,22
 335 528 335 528 360.5 452.5 c 128,-1,23
 386 377 386 377 409.5 297 c 128,-1,24
 433 217 433 217 453.5 139.5 c 128,-1,25
 474 62 474 62 491 0 c 1,26,-1
 404 0 l 1,0,-1
249 547 m 1,27,28
 226 484 226 484 199 401 c 128,-1,29
 172 318 172 318 148 230 c 1,30,-1
 348 230 l 1,31,32
 325 320 325 320 298.5 403.5 c 128,-1,33
 272 487 272 487 249 547 c 1,27,28
298 658 m 256,34,35
 298 681 298 681 284.5 694 c 128,-1,36
 271 707 271 707 251 707 c 256,37,38
 231 707 231 707 217.5 694 c 128,-1,39
 204 681 204 681 204 658 c 256,40,41
 204 635 204 635 217.5 622 c 128,-1,42
 231 609 231 609 251 609 c 256,43,44
 271 609 271 609 284.5 622 c 128,-1,45
 298 635 298 635 298 658 c 256,34,35
EndSplineSet
EndChar

StartChar: AE
Encoding: 198 198 161
Width: 500
Flags: W
LayerCount: 2
Fore
SplineSet
263 0 m 1,0,-1
 263 162 l 1,1,-1
 145 162 l 1,2,-1
 108 0 l 1,3,-1
 27 0 l 1,4,5
 72 174 72 174 118 326.5 c 128,-1,6
 164 479 164 479 219 619 c 1,7,-1
 469 619 l 1,8,-1
 469 549 l 1,9,-1
 341 549 l 1,10,-1
 341 359 l 1,11,-1
 446 359 l 1,12,-1
 446 289 l 1,13,-1
 341 289 l 1,14,-1
 341 70 l 1,15,-1
 482 70 l 1,16,-1
 482 0 l 1,17,-1
 263 0 l 1,0,-1
263 566 m 1,18,19
 235 478 235 478 209.5 391 c 128,-1,20
 184 304 184 304 163 230 c 1,21,-1
 263 230 l 1,22,-1
 263 566 l 1,18,19
EndSplineSet
EndChar

StartChar: Ccedilla
Encoding: 199 199 162
Width: 500
Flags: W
LayerCount: 2
Fore
SplineSet
317 -33 m 1,0,1
 343 -45 343 -45 354.5 -60 c 128,-1,2
 366 -75 366 -75 366 -104 c 0,3,4
 366 -114 366 -114 361.5 -125.5 c 128,-1,5
 357 -137 357 -137 346.5 -146.5 c 128,-1,6
 336 -156 336 -156 318.5 -162.5 c 128,-1,7
 301 -169 301 -169 275 -169 c 0,8,9
 252 -169 252 -169 232 -165.5 c 128,-1,10
 212 -162 212 -162 201 -157 c 1,11,-1
 211 -106 l 1,12,13
 222 -110 222 -110 234 -112.5 c 128,-1,14
 246 -115 246 -115 261 -115 c 0,15,16
 293 -115 293 -115 293 -95 c 256,17,18
 293 -75 293 -75 256 -64 c 2,19,-1
 249 -62 l 1,20,21
 253 -51 253 -51 259 -37.5 c 128,-1,22
 265 -24 265 -24 271 -11 c 1,23,24
 222 -6 222 -6 180.5 15.5 c 128,-1,25
 139 37 139 37 109 77 c 128,-1,26
 79 117 79 117 62.5 175 c 128,-1,27
 46 233 46 233 46 310 c 0,28,29
 46 389 46 389 66.5 449 c 128,-1,30
 87 509 87 509 122 550 c 128,-1,31
 157 591 157 591 204 612 c 128,-1,32
 251 633 251 633 304 633 c 0,33,34
 341 633 341 633 379.5 623 c 128,-1,35
 418 613 418 613 455 590 c 1,36,-1
 431 522 l 1,37,38
 365 560 365 560 307 560 c 0,39,40
 266 560 266 560 233.5 542.5 c 128,-1,41
 201 525 201 525 178 492 c 128,-1,42
 155 459 155 459 142.5 413 c 128,-1,43
 130 367 130 367 130 310 c 0,44,45
 130 246 130 246 143.5 199 c 128,-1,46
 157 152 157 152 181 121 c 128,-1,47
 205 90 205 90 238.5 75 c 128,-1,48
 272 60 272 60 311 60 c 0,49,50
 340 60 340 60 372 67.5 c 128,-1,51
 404 75 404 75 438 94 c 1,52,-1
 460 26 l 1,53,54
 402 -7 402 -7 328 -12 c 1,55,-1
 317 -33 l 1,0,1
EndSplineSet
EndChar

StartChar: Eth
Encoding: 208 208 171
Width: 500
Flags: W
LayerCount: 2
Fore
SplineSet
460 310 m 0,0,1
 460 224 460 224 439.5 164 c 128,-1,2
 419 104 419 104 383.5 66.5 c 128,-1,3
 348 29 348 29 299 12 c 128,-1,4
 250 -5 250 -5 193 -5 c 0,5,6
 132 -5 132 -5 71 10 c 1,7,-1
 71 291 l 1,8,-1
 18 291 l 1,9,-1
 18 355 l 1,10,-1
 71 355 l 1,11,-1
 71 610 l 1,12,13
 132 625 132 625 193 625 c 0,14,15
 250 625 250 625 299 608 c 128,-1,16
 348 591 348 591 383.5 553 c 128,-1,17
 419 515 419 515 439.5 455 c 128,-1,18
 460 395 460 395 460 310 c 0,0,1
154 69 m 1,19,20
 165 67 165 67 177 66.5 c 128,-1,21
 189 66 189 66 200 66 c 0,22,23
 242 66 242 66 274.5 79.5 c 128,-1,24
 307 93 307 93 329.5 122.5 c 128,-1,25
 352 152 352 152 364 198.5 c 128,-1,26
 376 245 376 245 376 310 c 0,27,28
 376 436 376 436 330.5 495 c 128,-1,29
 285 554 285 554 197 554 c 0,30,31
 172 554 172 554 154 551 c 1,32,-1
 154 355 l 1,33,-1
 252 355 l 1,34,-1
 252 291 l 1,35,-1
 154 291 l 1,36,-1
 154 69 l 1,19,20
EndSplineSet
EndChar

StartChar: multiply
Encoding: 215 215 178
Width: 500
Flags: W
LayerCount: 2
Fore
SplineSet
380 82 m 1,0,-1
 250 213 l 1,1,-1
 120 82 l 1,2,-1
 70 132 l 1,3,-1
 200 263 l 1,4,-1
 70 393 l 1,5,-1
 120 443 l 1,6,-1
 250 313 l 1,7,-1
 380 443 l 1,8,-1
 430 393 l 1,9,-1
 300 263 l 1,10,-1
 430 132 l 1,11,-1
 380 82 l 1,0,-1
EndSplineSet
EndChar

StartChar: Oslash
Encoding: 216 216 179
Width: 500
Flags: W
LayerCount: 2
Fore
SplineSet
29 310 m 0,0,1
 29 393 29 393 45 454 c 128,-1,2
 61 515 61 515 90 554.5 c 128,-1,3
 119 594 119 594 159.5 613.5 c 128,-1,4
 200 633 200 633 250 633 c 0,5,6
 306 633 306 633 353 606 c 1,7,-1
 374 651 l 1,8,-1
 436 620 l 1,9,-1
 406 559 l 1,10,11
 437 518 437 518 454.5 456.5 c 128,-1,12
 472 395 472 395 472 310 c 0,13,14
 472 227 472 227 455.5 166 c 128,-1,15
 439 105 439 105 410 65 c 128,-1,16
 381 25 381 25 340 6 c 128,-1,17
 299 -13 299 -13 250 -13 c 0,18,19
 188 -13 188 -13 142 15 c 1,20,-1
 119 -33 l 1,21,-1
 58 -2 l 1,22,-1
 90 64 l 1,23,24
 60 104 60 104 44.5 164.5 c 128,-1,25
 29 225 29 225 29 310 c 0,0,1
388 310 m 0,26,27
 388 360 388 360 382.5 402 c 128,-1,28
 377 444 377 444 365 475 c 1,29,-1
 174 81 l 1,30,31
 189 68 189 68 208.5 63 c 128,-1,32
 228 58 228 58 248 58 c 0,33,34
 318 58 318 58 353 123 c 128,-1,35
 388 188 388 188 388 310 c 0,26,27
113 310 m 0,36,37
 113 262 113 262 116 220.5 c 128,-1,38
 119 179 119 179 130 148 c 1,39,-1
 320 540 l 1,40,41
 305 552 305 552 287 557 c 128,-1,42
 269 562 269 562 248 562 c 0,43,44
 179 562 179 562 146 497 c 128,-1,45
 113 432 113 432 113 310 c 0,36,37
EndSplineSet
EndChar

StartChar: Thorn
Encoding: 222 222 185
Width: 500
Flags: W
LayerCount: 2
Fore
SplineSet
73 619 m 1,0,-1
 155 619 l 1,1,-1
 155 516 l 1,2,3
 186 519 186 519 216 519 c 0,4,5
 331 519 331 519 393 473.5 c 128,-1,6
 455 428 455 428 455 340 c 0,7,8
 455 281 455 281 437.5 241 c 128,-1,9
 420 201 420 201 388 175.5 c 128,-1,10
 356 150 356 150 310.5 139 c 128,-1,11
 265 128 265 128 210 128 c 2,12,-1
 155 128 l 1,13,-1
 155 0 l 1,14,-1
 73 0 l 1,15,-1
 73 619 l 1,0,-1
229 447 m 0,16,17
 204 447 204 447 186.5 447 c 128,-1,18
 169 447 169 447 155 446 c 1,19,-1
 155 197 l 1,20,-1
 213 197 l 2,21,22
 248 197 248 197 277 203.5 c 128,-1,23
 306 210 306 210 327 226 c 128,-1,24
 348 242 348 242 359.5 268.5 c 128,-1,25
 371 295 371 295 371 336 c 0,26,27
 371 369 371 369 358.5 390.5 c 128,-1,28
 346 412 346 412 326 424.5 c 128,-1,29
 306 437 306 437 280.5 442 c 128,-1,30
 255 447 255 447 229 447 c 0,16,17
EndSplineSet
EndChar

StartChar: germandbls
Encoding: 223 223 186
Width: 500
Flags: W
LayerCount: 2
Fore
SplineSet
400 550 m 0,0,1
 400 526 400 526 392.5 506 c 128,-1,2
 385 486 385 486 374 469.5 c 128,-1,3
 363 453 363 453 349 439 c 128,-1,4
 335 425 335 425 323 412 c 0,5,6
 309 396 309 396 302.5 385.5 c 128,-1,7
 296 375 296 375 296 360 c 0,8,9
 296 340 296 340 309.5 327 c 128,-1,10
 323 314 323 314 343 302.5 c 128,-1,11
 363 291 363 291 386 279 c 128,-1,12
 409 267 409 267 429 249.5 c 128,-1,13
 449 232 449 232 462.5 206.5 c 128,-1,14
 476 181 476 181 476 142 c 0,15,16
 476 66 476 66 435 27.5 c 128,-1,17
 394 -11 394 -11 307 -11 c 0,18,19
 291 -11 291 -11 274.5 -8 c 128,-1,20
 258 -5 258 -5 243.5 -1 c 128,-1,21
 229 3 229 3 218.5 7 c 128,-1,22
 208 11 208 11 203 14 c 1,23,-1
 217 87 l 1,24,25
 222 84 222 84 232 79.5 c 128,-1,26
 242 75 242 75 255 70.5 c 128,-1,27
 268 66 268 66 283 63 c 128,-1,28
 298 60 298 60 313 60 c 0,29,30
 354 60 354 60 373 80 c 128,-1,31
 392 100 392 100 392 138 c 0,32,33
 392 165 392 165 378.5 182.5 c 128,-1,34
 365 200 365 200 345 213.5 c 128,-1,35
 325 227 325 227 301 238.5 c 128,-1,36
 277 250 277 250 257 264.5 c 128,-1,37
 237 279 237 279 223.5 298.5 c 128,-1,38
 210 318 210 318 210 348 c 0,39,40
 210 384 210 384 225 408 c 128,-1,41
 240 432 240 432 263 455 c 0,42,43
 284 475 284 475 300.5 495 c 128,-1,44
 317 515 317 515 317 538 c 0,45,46
 317 576 317 576 299 598.5 c 128,-1,47
 281 621 281 621 241 621 c 0,48,49
 199 621 199 621 176.5 587 c 128,-1,50
 154 553 154 553 154 493 c 2,51,-1
 154 0 l 1,52,-1
 71 0 l 1,53,-1
 71 495 l 2,54,55
 71 539 71 539 82.5 575.5 c 128,-1,56
 94 612 94 612 115 638 c 128,-1,57
 136 664 136 664 166.5 678.5 c 128,-1,58
 197 693 197 693 235 693 c 0,59,60
 281 693 281 693 313 681.5 c 128,-1,61
 345 670 345 670 364 650 c 128,-1,62
 383 630 383 630 391.5 604 c 128,-1,63
 400 578 400 578 400 550 c 0,0,1
EndSplineSet
EndChar

StartChar: ae
Encoding: 230 230 193
Width: 500
Flags: W
LayerCount: 2
Fore
SplineSet
150 475 m 0,0,1
 194 475 194 475 222 458 c 128,-1,2
 250 441 250 441 265 411 c 1,3,4
 281 441 281 441 302 458 c 128,-1,5
 323 475 323 475 349 475 c 0,6,7
 478 475 478 475 478 239 c 0,8,9
 478 234 478 234 478 225.5 c 128,-1,10
 478 217 478 217 477 210 c 1,11,-1
 292 210 l 1,12,13
 292 138 292 138 318 100.5 c 128,-1,14
 344 63 344 63 385 63 c 0,15,16
 417 63 417 63 454 85 c 1,17,-1
 465 15 l 1,18,19
 461 11 461 11 451.5 6.5 c 128,-1,20
 442 2 442 2 430 -2 c 128,-1,21
 418 -6 418 -6 404 -8.5 c 128,-1,22
 390 -11 390 -11 377 -11 c 0,23,24
 344 -11 344 -11 318.5 0.5 c 128,-1,25
 293 12 293 12 274 32 c 1,26,27
 247 9 247 9 219 -1 c 128,-1,28
 191 -11 191 -11 162 -11 c 0,29,30
 129 -11 129 -11 104.5 1.5 c 128,-1,31
 80 14 80 14 63.5 34 c 128,-1,32
 47 54 47 54 39 79.5 c 128,-1,33
 31 105 31 105 31 132 c 0,34,35
 31 163 31 163 39.5 190.5 c 128,-1,36
 48 218 48 218 65 238.5 c 128,-1,37
 82 259 82 259 106.5 270.5 c 128,-1,38
 131 282 131 282 164 282 c 0,39,40
 176 282 176 282 190.5 279.5 c 128,-1,41
 205 277 205 277 217 271 c 1,42,-1
 217 294 l 2,43,44
 217 341 217 341 199 373 c 128,-1,45
 181 405 181 405 143 405 c 0,46,47
 121 405 121 405 100 399 c 128,-1,48
 79 393 79 393 71 387 c 1,49,-1
 62 455 l 1,50,51
 71 463 71 463 97.5 469 c 128,-1,52
 124 475 124 475 150 475 c 0,0,1
172 215 m 0,53,54
 139 215 139 215 122.5 194 c 128,-1,55
 106 173 106 173 106 137 c 0,56,57
 106 107 106 107 121.5 83 c 128,-1,58
 137 59 137 59 169 59 c 0,59,60
 186 59 186 59 205.5 67 c 128,-1,61
 225 75 225 75 239 88 c 1,62,63
 228 113 228 113 222 142.5 c 128,-1,64
 216 172 216 172 214 204 c 1,65,66
 194 215 194 215 172 215 c 0,53,54
403 277 m 1,67,68
 403 314 403 314 398.5 338.5 c 128,-1,69
 394 363 394 363 386.5 378 c 128,-1,70
 379 393 379 393 370 399 c 128,-1,71
 361 405 361 405 353 405 c 0,72,73
 330 405 330 405 312 376 c 128,-1,74
 294 347 294 347 294 277 c 1,75,-1
 403 277 l 1,67,68
EndSplineSet
Substitution2: "'case' Case-Sensitive Forms lookup 18 subtable" AE
EndChar

StartChar: ccedilla
Encoding: 231 231 194
Width: 500
Flags: W
LayerCount: 2
Fore
SplineSet
294 -33 m 1,0,1
 320 -45 320 -45 331.5 -60 c 128,-1,2
 343 -75 343 -75 343 -104 c 0,3,4
 343 -114 343 -114 338.5 -125.5 c 128,-1,5
 334 -137 334 -137 323.5 -146.5 c 128,-1,6
 313 -156 313 -156 295.5 -162.5 c 128,-1,7
 278 -169 278 -169 252 -169 c 0,8,9
 229 -169 229 -169 209 -165.5 c 128,-1,10
 189 -162 189 -162 178 -157 c 1,11,-1
 188 -106 l 1,12,13
 199 -110 199 -110 211 -112.5 c 128,-1,14
 223 -115 223 -115 238 -115 c 0,15,16
 270 -115 270 -115 270 -95 c 256,17,18
 270 -75 270 -75 233 -64 c 2,19,-1
 226 -62 l 1,20,21
 230 -51 230 -51 236.5 -36 c 128,-1,22
 243 -21 243 -21 250 -7 c 1,23,24
 159 6 159 6 104 65.5 c 128,-1,25
 49 125 49 125 49 231 c 0,26,27
 49 294 49 294 69 340 c 128,-1,28
 89 386 89 386 124 416 c 128,-1,29
 159 446 159 446 205.5 460.5 c 128,-1,30
 252 475 252 475 305 475 c 0,31,32
 339 475 339 475 372.5 470.5 c 128,-1,33
 406 466 406 466 444 454 c 1,34,-1
 425 383 l 1,35,36
 392 395 392 395 364.5 398.5 c 128,-1,37
 337 402 337 402 309 402 c 0,38,39
 273 402 273 402 241 392.5 c 128,-1,40
 209 383 209 383 185.5 362.5 c 128,-1,41
 162 342 162 342 148 309.5 c 128,-1,42
 134 277 134 277 134 231 c 0,43,44
 134 187 134 187 147 155.5 c 128,-1,45
 160 124 160 124 183.5 103.5 c 128,-1,46
 207 83 207 83 240 73 c 128,-1,47
 273 63 273 63 313 63 c 0,48,49
 345 63 345 63 374.5 66.5 c 128,-1,50
 404 70 404 70 439 82 c 1,51,-1
 451 13 l 1,52,53
 417 1 417 1 382 -4.5 c 128,-1,54
 347 -10 347 -10 305 -11 c 1,55,-1
 294 -33 l 1,0,1
EndSplineSet
Substitution2: "'case' Case-Sensitive Forms lookup 18 subtable" Ccedilla
EndChar

StartChar: eth
Encoding: 240 240 203
Width: 500
Flags: W
LayerCount: 2
Fore
SplineSet
460 587 m 1,0,-1
 364 554 l 1,1,2
 393 505 393 505 412.5 434.5 c 128,-1,3
 432 364 432 364 432 274 c 0,4,5
 432 225 432 225 423.5 174.5 c 128,-1,6
 415 124 415 124 393 82.5 c 128,-1,7
 371 41 371 41 333 15 c 128,-1,8
 295 -11 295 -11 236 -11 c 0,9,10
 191 -11 191 -11 157 8 c 128,-1,11
 123 27 123 27 100.5 58 c 128,-1,12
 78 89 78 89 66.5 127 c 128,-1,13
 55 165 55 165 55 204 c 0,14,15
 55 318 55 318 103 378 c 128,-1,16
 151 438 151 438 234 438 c 0,17,18
 272 438 272 438 301 423.5 c 128,-1,19
 330 409 330 409 344 396 c 1,20,21
 339 432 339 432 325 465 c 128,-1,22
 311 498 311 498 291 529 c 1,23,-1
 184 492 l 1,24,-1
 163 548 l 1,25,-1
 255 580 l 1,26,27
 240 597 240 597 224.5 612.5 c 128,-1,28
 209 628 209 628 186 645 c 1,29,-1
 232 693 l 1,30,31
 252 680 252 680 277.5 658.5 c 128,-1,32
 303 637 303 637 329 605 c 1,33,-1
 439 643 l 1,34,-1
 460 587 l 1,0,-1
351 271 m 0,35,36
 351 293 351 293 350.5 302 c 128,-1,37
 350 311 350 311 350 319 c 1,38,39
 325 346 325 346 296.5 357 c 128,-1,40
 268 368 268 368 245 368 c 0,41,42
 189 368 189 368 163 323 c 128,-1,43
 137 278 137 278 137 207 c 0,44,45
 137 178 137 178 143.5 151 c 128,-1,46
 150 124 150 124 162.5 103.5 c 128,-1,47
 175 83 175 83 193.5 71 c 128,-1,48
 212 59 212 59 236 59 c 0,49,50
 270 59 270 59 292.5 77.5 c 128,-1,51
 315 96 315 96 328 126 c 128,-1,52
 341 156 341 156 346 194 c 128,-1,53
 351 232 351 232 351 271 c 0,35,36
EndSplineSet
Substitution2: "'case' Case-Sensitive Forms lookup 18 subtable" Eth
EndChar

StartChar: divide
Encoding: 247 247 210
Width: 500
Flags: W
LayerCount: 2
Fore
SplineSet
46 298 m 1,0,-1
 455 298 l 1,1,-1
 455 228 l 1,2,-1
 46 228 l 1,3,-1
 46 298 l 1,0,-1
308 96 m 0,4,5
 308 72 308 72 292 54 c 128,-1,6
 276 36 276 36 250 36 c 0,7,8
 223 36 223 36 206.5 54 c 128,-1,9
 190 72 190 72 190 96 c 0,10,11
 190 121 190 121 206.5 139.5 c 128,-1,12
 223 158 223 158 250 158 c 0,13,14
 276 158 276 158 292 139.5 c 128,-1,15
 308 121 308 121 308 96 c 0,4,5
308 428 m 0,16,17
 308 404 308 404 292 385.5 c 128,-1,18
 276 367 276 367 250 367 c 0,19,20
 223 367 223 367 206.5 385.5 c 128,-1,21
 190 404 190 404 190 428 c 0,22,23
 190 453 190 453 206.5 471 c 128,-1,24
 223 489 223 489 250 489 c 0,25,26
 276 489 276 489 292 471 c 128,-1,27
 308 453 308 453 308 428 c 0,16,17
EndSplineSet
EndChar

StartChar: oslash
Encoding: 248 248 211
Width: 500
Flags: W
LayerCount: 2
Fore
SplineSet
45 4 m 1,0,-1
 90 66 l 1,1,2
 67 98 67 98 53.5 139.5 c 128,-1,3
 40 181 40 181 40 232 c 0,4,5
 40 287 40 287 55.5 332 c 128,-1,6
 71 377 71 377 99 408.5 c 128,-1,7
 127 440 127 440 165.5 457.5 c 128,-1,8
 204 475 204 475 249 475 c 0,9,10
 318 475 318 475 366 439 c 1,11,-1
 408 496 l 1,12,-1
 455 460 l 1,13,-1
 409 397 l 1,14,15
 433 366 433 366 446.5 324.5 c 128,-1,16
 460 283 460 283 460 232 c 0,17,18
 460 177 460 177 444.5 132.5 c 128,-1,19
 429 88 429 88 401 56 c 128,-1,20
 373 24 373 24 334 6.5 c 128,-1,21
 295 -11 295 -11 249 -11 c 0,22,23
 216 -11 216 -11 187 -1.5 c 128,-1,24
 158 8 158 8 133 25 c 1,25,-1
 91 -32 l 1,26,-1
 45 4 l 1,0,-1
375 232 m 0,27,28
 375 260 375 260 371.5 285 c 128,-1,29
 368 310 368 310 359 330 c 1,30,-1
 178 85 l 1,31,32
 192 73 192 73 210 68 c 128,-1,33
 228 63 228 63 249 63 c 0,34,35
 307 63 307 63 341 108.5 c 128,-1,36
 375 154 375 154 375 232 c 0,27,28
125 232 m 0,37,38
 125 201 125 201 128.5 178 c 128,-1,39
 132 155 132 155 141 135 c 1,40,-1
 321 379 l 1,41,42
 307 391 307 391 288.5 396.5 c 128,-1,43
 270 402 270 402 249 402 c 0,44,45
 192 402 192 402 158.5 356.5 c 128,-1,46
 125 311 125 311 125 232 c 0,37,38
EndSplineSet
Substitution2: "'case' Case-Sensitive Forms lookup 18 subtable" Oslash
EndChar

StartChar: thorn
Encoding: 254 254 217
Width: 500
Flags: W
LayerCount: 2
Fore
SplineSet
460 231 m 0,0,1
 460 178 460 178 446.5 133.5 c 128,-1,2
 433 89 433 89 407.5 57 c 128,-1,3
 382 25 382 25 345 7 c 128,-1,4
 308 -11 308 -11 261 -11 c 0,5,6
 224 -11 224 -11 196 -2 c 128,-1,7
 168 7 168 7 154 18 c 1,8,-1
 154 -165 l 1,9,-1
 71 -165 l 1,10,-1
 71 679 l 1,11,-1
 154 693 l 1,12,-1
 154 447 l 1,13,14
 183 462 183 462 210 468.5 c 128,-1,15
 237 475 237 475 263 475 c 0,16,17
 305 475 305 475 341 458.5 c 128,-1,18
 377 442 377 442 403.5 410.5 c 128,-1,19
 430 379 430 379 445 334 c 128,-1,20
 460 289 460 289 460 231 c 0,0,1
375 231 m 0,21,22
 375 274 375 274 366 306.5 c 128,-1,23
 357 339 357 339 340.5 360 c 128,-1,24
 324 381 324 381 301.5 391.5 c 128,-1,25
 279 402 279 402 253 402 c 256,26,27
 227 402 227 402 203.5 393 c 128,-1,28
 180 384 180 384 154 367 c 1,29,-1
 154 98 l 1,30,31
 168 85 168 85 195 74 c 128,-1,32
 222 63 222 63 251 63 c 0,33,34
 284 63 284 63 307.5 76 c 128,-1,35
 331 89 331 89 346 111.5 c 128,-1,36
 361 134 361 134 368 164.5 c 128,-1,37
 375 195 375 195 375 231 c 0,21,22
EndSplineSet
Substitution2: "'case' Case-Sensitive Forms lookup 18 subtable" Thorn
EndChar

StartChar: Aogonek
Encoding: 260 260 223
Width: 500
Flags: W
LayerCount: 2
Fore
SplineSet
490 2 m 1,0,1
 476 -6 476 -6 465.5 -15 c 128,-1,2
 455 -24 455 -24 444 -35 c 0,3,4
 431 -49 431 -49 424 -59.5 c 128,-1,5
 417 -70 417 -70 417 -83 c 0,6,7
 417 -109 417 -109 453 -109 c 0,8,9
 459 -109 459 -109 469 -107.5 c 128,-1,10
 479 -106 479 -106 489 -103 c 1,11,-1
 496 -157 l 1,12,13
 473 -167 473 -167 437 -167 c 0,14,15
 386 -167 386 -167 364 -150 c 128,-1,16
 342 -133 342 -133 342 -101 c 0,17,18
 342 -72 342 -72 362 -47 c 128,-1,19
 382 -22 382 -22 405 -3 c 1,20,-1
 367 162 l 1,21,-1
 129 162 l 1,22,-1
 93 0 l 1,23,-1
 9 0 l 1,24,25
 26 66 26 66 47 143 c 128,-1,26
 68 220 68 220 92.5 301 c 128,-1,27
 117 382 117 382 144 463.5 c 128,-1,28
 171 545 171 545 201 619 c 1,29,-1
 303 619 l 1,30,31
 332 545 332 545 358.5 464 c 128,-1,32
 385 383 385 383 408.5 302 c 128,-1,33
 432 221 432 221 452.5 144.5 c 128,-1,34
 473 68 473 68 490 2 c 1,0,1
249 547 m 1,35,36
 226 484 226 484 199 401 c 128,-1,37
 172 318 172 318 148 230 c 1,38,-1
 348 230 l 1,39,40
 325 320 325 320 298.5 403.5 c 128,-1,41
 272 487 272 487 249 547 c 1,35,36
EndSplineSet
EndChar

StartChar: aogonek
Encoding: 261 261 224
Width: 500
Flags: W
LayerCount: 2
Fore
SplineSet
247 475 m 0,0,1
 299 475 299 475 334.5 462 c 128,-1,2
 370 449 370 449 392 426 c 128,-1,3
 414 403 414 403 423 370 c 128,-1,4
 432 337 432 337 432 298 c 2,5,-1
 432 8 l 1,6,7
 423 2 423 2 410 -8.5 c 128,-1,8
 397 -19 397 -19 385 -31.5 c 128,-1,9
 373 -44 373 -44 364 -57.5 c 128,-1,10
 355 -71 355 -71 355 -83 c 0,11,12
 355 -109 355 -109 390 -109 c 0,13,14
 396 -109 396 -109 406 -107.5 c 128,-1,15
 416 -106 416 -106 427 -103 c 1,16,-1
 433 -157 l 1,17,18
 411 -167 411 -167 374 -167 c 0,19,20
 323 -167 323 -167 299.5 -149 c 128,-1,21
 276 -131 276 -131 276 -99 c 0,22,23
 276 -78 276 -78 289.5 -57 c 128,-1,24
 303 -36 303 -36 330 -7 c 1,25,26
 313 -9 313 -9 294.5 -10 c 128,-1,27
 276 -11 276 -11 258 -11 c 0,28,29
 220 -11 220 -11 184 -4.5 c 128,-1,30
 148 2 148 2 120 18.5 c 128,-1,31
 92 35 92 35 75 64 c 128,-1,32
 58 93 58 93 58 138 c 0,33,34
 58 178 58 178 75.5 205.5 c 128,-1,35
 93 233 93 233 120.5 250 c 128,-1,36
 148 267 148 267 183.5 274.5 c 128,-1,37
 219 282 219 282 255 282 c 0,38,39
 304 282 304 282 351 271 c 1,40,-1
 351 294 l 2,41,42
 351 315 351 315 346.5 334.5 c 128,-1,43
 342 354 342 354 329.5 370 c 128,-1,44
 317 386 317 386 295.5 395.5 c 128,-1,45
 274 405 274 405 240 405 c 0,46,47
 197 405 197 405 165 399 c 128,-1,48
 133 393 133 393 116 387 c 1,49,-1
 106 455 l 1,50,51
 123 463 123 463 162.5 469 c 128,-1,52
 202 475 202 475 247 475 c 0,0,1
255 59 m 0,53,54
 286 59 286 59 310.5 61 c 128,-1,55
 335 63 335 63 351 66 c 1,56,-1
 351 204 l 1,57,58
 335 209 335 209 312.5 212 c 128,-1,59
 290 215 290 215 265 215 c 0,60,61
 242 215 242 215 220 211.5 c 128,-1,62
 198 208 198 208 181 199 c 128,-1,63
 164 190 164 190 153 175.5 c 128,-1,64
 142 161 142 161 142 139 c 0,65,66
 142 94 142 94 172.5 76.5 c 128,-1,67
 203 59 203 59 255 59 c 0,53,54
EndSplineSet
Substitution2: "'case' Case-Sensitive Forms lookup 18 subtable" Aogonek
EndChar

StartChar: dcaron
Encoding: 271 271 234
Width: 500
Flags: W
LayerCount: 2
Fore
SplineSet
281 366 m 1,0,1
 270 379 270 379 248 390.5 c 128,-1,2
 226 402 226 402 201 402 c 0,3,4
 175 402 175 402 157 389 c 128,-1,5
 139 376 139 376 127.5 353.5 c 128,-1,6
 116 331 116 331 110.5 299.5 c 128,-1,7
 105 268 105 268 105 232 c 0,8,9
 105 151 105 151 135 107 c 128,-1,10
 165 63 165 63 213 63 c 0,11,12
 238 63 238 63 255.5 66 c 128,-1,13
 273 69 273 69 281 72 c 1,14,-1
 281 366 l 1,0,1
281 679 m 1,15,-1
 363 693 l 1,16,-1
 363 13 l 1,17,18
 339 5 339 5 301.5 -3 c 128,-1,19
 264 -11 264 -11 213 -11 c 0,20,21
 169 -11 169 -11 133.5 6 c 128,-1,22
 98 23 98 23 73 54.5 c 128,-1,23
 48 86 48 86 34 131 c 128,-1,24
 20 176 20 176 20 232 c 0,25,26
 20 286 20 286 31.5 330.5 c 128,-1,27
 43 375 43 375 65 407 c 128,-1,28
 87 439 87 439 119 457 c 128,-1,29
 151 475 151 475 191 475 c 0,30,31
 223 475 223 475 246 466 c 128,-1,32
 269 457 269 457 281 447 c 1,33,-1
 281 679 l 1,15,-1
500 693 m 1,34,-1
 476 494 l 1,35,-1
 421 494 l 1,36,-1
 421 693 l 1,37,-1
 500 693 l 1,34,-1
EndSplineSet
Substitution2: "'case' Case-Sensitive Forms lookup 18 subtable" Dcaron
EndChar

StartChar: dcroat
Encoding: 273 273 236
Width: 500
Flags: W
LayerCount: 2
Fore
SplineSet
332 548 m 1,0,-1
 155 548 l 1,1,-1
 155 610 l 1,2,-1
 332 610 l 1,3,-1
 332 679 l 1,4,-1
 414 693 l 1,5,-1
 414 610 l 1,6,-1
 480 610 l 1,7,-1
 480 548 l 1,8,-1
 414 548 l 1,9,-1
 414 13 l 1,10,11
 388 5 388 5 348 -3 c 128,-1,12
 308 -11 308 -11 254 -11 c 0,13,14
 206 -11 206 -11 166.5 6 c 128,-1,15
 127 23 127 23 99 54.5 c 128,-1,16
 71 86 71 86 55.5 131 c 128,-1,17
 40 176 40 176 40 232 c 0,18,19
 40 286 40 286 53 330.5 c 128,-1,20
 66 375 66 375 91 407 c 128,-1,21
 116 439 116 439 151.5 457 c 128,-1,22
 187 475 187 475 231 475 c 0,23,24
 266 475 266 475 292 466 c 128,-1,25
 318 457 318 457 332 447 c 1,26,-1
 332 548 l 1,0,-1
332 366 m 1,27,28
 318 379 318 379 293.5 390.5 c 128,-1,29
 269 402 269 402 241 402 c 0,30,31
 210 402 210 402 188 389 c 128,-1,32
 166 376 166 376 152 353.5 c 128,-1,33
 138 331 138 331 131.5 299.5 c 128,-1,34
 125 268 125 268 125 232 c 0,35,36
 125 151 125 151 161 107 c 128,-1,37
 197 63 197 63 254 63 c 0,38,39
 283 63 283 63 303 66 c 128,-1,40
 323 69 323 69 332 72 c 1,41,-1
 332 366 l 1,27,28
EndSplineSet
Substitution2: "'case' Case-Sensitive Forms lookup 18 subtable" Dcroat
EndChar

StartChar: Eogonek
Encoding: 280 280 243
Width: 500
Flags: W
LayerCount: 2
Fore
SplineSet
460 2 m 1,0,1
 435 -12 435 -12 412 -35 c 0,2,3
 399 -49 399 -49 392 -59.5 c 128,-1,4
 385 -70 385 -70 385 -83 c 0,5,6
 385 -109 385 -109 421 -109 c 0,7,8
 427 -109 427 -109 437 -107.5 c 128,-1,9
 447 -106 447 -106 457 -103 c 1,10,-1
 463 -157 l 1,11,12
 441 -167 441 -167 405 -167 c 0,13,14
 354 -167 354 -167 332 -150 c 128,-1,15
 310 -133 310 -133 310 -101 c 0,16,17
 310 -80 310 -80 320.5 -61 c 128,-1,18
 331 -42 331 -42 347 -26 c 0,19,20
 355 -18 355 -18 362 -11 c 128,-1,21
 369 -4 369 -4 374 0 c 1,22,-1
 91 0 l 1,23,-1
 91 619 l 1,24,-1
 438 619 l 1,25,-1
 438 549 l 1,26,-1
 173 549 l 1,27,-1
 173 359 l 1,28,-1
 405 359 l 1,29,-1
 405 289 l 1,30,-1
 173 289 l 1,31,-1
 173 70 l 1,32,-1
 460 70 l 1,33,-1
 460 2 l 1,0,1
EndSplineSet
EndChar

StartChar: eogonek
Encoding: 281 281 244
Width: 500
Flags: W
LayerCount: 2
Fore
SplineSet
259 475 m 0,0,1
 353 475 353 475 404 416.5 c 128,-1,2
 455 358 455 358 455 239 c 2,3,-1
 455 210 l 1,4,-1
 123 210 l 1,5,6
 128 138 128 138 170.5 100.5 c 128,-1,7
 213 63 213 63 290 63 c 0,8,9
 334 63 334 63 365 70 c 128,-1,10
 396 77 396 77 412 85 c 1,11,-1
 423 15 l 1,12,13
 413 7 413 7 395.5 -5.5 c 128,-1,14
 378 -18 378 -18 363 -35 c 0,15,16
 350 -49 350 -49 342.5 -59.5 c 128,-1,17
 335 -70 335 -70 335 -83 c 0,18,19
 335 -109 335 -109 371 -109 c 0,20,21
 377 -109 377 -109 387 -107.5 c 128,-1,22
 397 -106 397 -106 407 -103 c 1,23,-1
 413 -157 l 1,24,25
 391 -167 391 -167 355 -167 c 0,26,27
 304 -167 304 -167 280 -149 c 128,-1,28
 256 -131 256 -131 256 -99 c 0,29,30
 256 -78 256 -78 267.5 -60 c 128,-1,31
 279 -42 279 -42 295 -26 c 0,32,33
 304 -16 304 -16 313 -9 c 1,34,35
 305 -10 305 -10 297 -10.5 c 128,-1,36
 289 -11 289 -11 281 -11 c 0,37,38
 221 -11 221 -11 175.5 7.5 c 128,-1,39
 130 26 130 26 100 58 c 128,-1,40
 70 90 70 90 55 134.5 c 128,-1,41
 40 179 40 179 40 231 c 0,42,43
 40 293 40 293 59 339 c 128,-1,44
 78 385 78 385 109 415 c 128,-1,45
 140 445 140 445 179 460 c 128,-1,46
 218 475 218 475 259 475 c 0,0,1
371 277 m 1,47,48
 372 334 372 334 340.5 369.5 c 128,-1,49
 309 405 309 405 258 405 c 0,50,51
 229 405 229 405 205.5 394 c 128,-1,52
 182 383 182 383 165 365 c 128,-1,53
 148 347 148 347 138 324 c 128,-1,54
 128 301 128 301 125 277 c 1,55,-1
 371 277 l 1,47,48
EndSplineSet
Substitution2: "'case' Case-Sensitive Forms lookup 18 subtable" Eogonek
EndChar

StartChar: hcircumflex
Encoding: 293 293 256
Width: 500
Flags: W
LayerCount: 2
Fore
SplineSet
71 0 m 1,0,-1
 71 669 l 1,1,-1
 154 683 l 1,2,-1
 154 457 l 1,3,4
 174 465 174 465 199 469.5 c 128,-1,5
 224 474 224 474 248 474 c 0,6,7
 301 474 301 474 336.5 458.5 c 128,-1,8
 372 443 372 443 393 415 c 128,-1,9
 414 387 414 387 423 348 c 128,-1,10
 432 309 432 309 432 262 c 2,11,-1
 432 0 l 1,12,-1
 350 0 l 1,13,-1
 350 244 l 2,14,15
 350 330 350 330 326 365.5 c 128,-1,16
 302 401 302 401 240 401 c 0,17,18
 214 401 214 401 189.5 395.5 c 128,-1,19
 165 390 165 390 154 385 c 1,20,-1
 154 0 l 1,21,-1
 71 0 l 1,0,-1
154 830 m 1,22,-1
 264 745 l 1,23,-1
 238 705 l 1,24,-1
 154 760 l 1,25,-1
 70 705 l 1,26,-1
 44 745 l 1,27,-1
 154 830 l 1,22,-1
EndSplineSet
Substitution2: "'case' Case-Sensitive Forms lookup 18 subtable" Hcircumflex
EndChar

StartChar: Hbar
Encoding: 294 294 257
Width: 500
Flags: W
LayerCount: 2
Fore
SplineSet
429 468 m 1,0,-1
 429 0 l 1,1,-1
 346 0 l 1,2,-1
 346 288 l 1,3,-1
 154 288 l 1,4,-1
 154 0 l 1,5,-1
 71 0 l 1,6,-1
 71 468 l 1,7,-1
 18 468 l 1,8,-1
 18 529 l 1,9,-1
 71 529 l 1,10,-1
 71 619 l 1,11,-1
 154 619 l 1,12,-1
 154 529 l 1,13,-1
 346 529 l 1,14,-1
 346 619 l 1,15,-1
 429 619 l 1,16,-1
 429 529 l 1,17,-1
 482 529 l 1,18,-1
 482 468 l 1,19,-1
 429 468 l 1,0,-1
346 468 m 1,20,-1
 154 468 l 1,21,-1
 154 358 l 1,22,-1
 346 358 l 1,23,-1
 346 468 l 1,20,-1
EndSplineSet
EndChar

StartChar: hbar
Encoding: 295 295 258
Width: 500
Flags: W
LayerCount: 2
Fore
SplineSet
20 610 m 1,0,-1
 86 610 l 1,1,-1
 86 679 l 1,2,-1
 168 693 l 1,3,-1
 168 610 l 1,4,-1
 330 610 l 1,5,-1
 330 548 l 1,6,-1
 168 548 l 1,7,-1
 168 457 l 1,8,9
 187 465 187 465 211.5 469.5 c 128,-1,10
 236 474 236 474 258 474 c 0,11,12
 307 474 307 474 340.5 458.5 c 128,-1,13
 374 443 374 443 394 415 c 128,-1,14
 414 387 414 387 423 348 c 128,-1,15
 432 309 432 309 432 262 c 2,16,-1
 432 0 l 1,17,-1
 350 0 l 1,18,-1
 350 244 l 2,19,20
 350 330 350 330 327.5 365.5 c 128,-1,21
 305 401 305 401 250 401 c 0,22,23
 227 401 227 401 202.5 395.5 c 128,-1,24
 178 390 178 390 168 385 c 1,25,-1
 168 0 l 1,26,-1
 86 0 l 1,27,-1
 86 548 l 1,28,-1
 20 548 l 1,29,-1
 20 610 l 1,0,-1
EndSplineSet
Substitution2: "'case' Case-Sensitive Forms lookup 18 subtable" Hbar
EndChar

StartChar: Iogonek
Encoding: 302 302 265
Width: 500
Flags: W
LayerCount: 2
Fore
SplineSet
291 549 m 1,0,-1
 291 70 l 1,1,-1
 411 70 l 1,2,-1
 411 0 l 1,3,-1
 292 0 l 1,4,5
 276 -12 276 -12 253 -35 c 0,6,7
 240 -49 240 -49 232 -59.5 c 128,-1,8
 224 -70 224 -70 224 -83 c 0,9,10
 224 -109 224 -109 260 -109 c 0,11,12
 266 -109 266 -109 276 -107.5 c 128,-1,13
 286 -106 286 -106 296 -103 c 1,14,-1
 303 -157 l 1,15,16
 280 -167 280 -167 244 -167 c 0,17,18
 193 -167 193 -167 169.5 -149 c 128,-1,19
 146 -131 146 -131 146 -99 c 0,20,21
 146 -78 146 -78 157 -59.5 c 128,-1,22
 168 -41 168 -41 184 -24 c 0,23,24
 197 -8 197 -8 208 0 c 1,25,-1
 89 0 l 1,26,-1
 89 70 l 1,27,-1
 209 70 l 1,28,-1
 209 549 l 1,29,-1
 89 549 l 1,30,-1
 89 619 l 1,31,-1
 411 619 l 1,32,-1
 411 549 l 1,33,-1
 291 549 l 1,0,-1
EndSplineSet
EndChar

StartChar: iogonek
Encoding: 303 303 266
Width: 500
Flags: W
LayerCount: 2
Fore
SplineSet
188 395 m 1,0,-1
 54 395 l 1,1,-1
 54 464 l 1,2,-1
 270 464 l 1,3,-1
 270 179 l 2,4,5
 270 110 270 110 289 86.5 c 128,-1,6
 308 63 308 63 346 63 c 0,7,8
 375 63 375 63 399.5 70 c 128,-1,9
 424 77 424 77 438 85 c 1,10,-1
 450 15 l 1,11,12
 420 -6 420 -6 408.5 -16.5 c 128,-1,13
 397 -27 397 -27 390 -35 c 0,14,15
 377 -49 377 -49 369.5 -59.5 c 128,-1,16
 362 -70 362 -70 362 -83 c 0,17,18
 362 -109 362 -109 397 -109 c 0,19,20
 403 -109 403 -109 413.5 -107.5 c 128,-1,21
 424 -106 424 -106 434 -103 c 1,22,-1
 440 -157 l 1,23,24
 418 -167 418 -167 381 -167 c 0,25,26
 330 -167 330 -167 306.5 -149 c 128,-1,27
 283 -131 283 -131 283 -99 c 0,28,29
 283 -78 283 -78 295 -59.5 c 128,-1,30
 307 -41 307 -41 323 -24 c 0,31,32
 327 -21 327 -21 331 -17 c 128,-1,33
 335 -13 335 -13 339 -11 c 1,34,35
 295 -11 295 -11 266 1 c 128,-1,36
 237 13 237 13 219.5 37 c 128,-1,37
 202 61 202 61 195 96.5 c 128,-1,38
 188 132 188 132 188 179 c 2,39,-1
 188 395 l 1,0,-1
209 536 m 0,40,41
 183 536 183 536 164 554 c 128,-1,42
 145 572 145 572 145 603 c 256,43,44
 145 634 145 634 164 652 c 128,-1,45
 183 670 183 670 209 670 c 0,46,47
 236 670 236 670 254.5 652 c 128,-1,48
 273 634 273 634 273 603 c 256,49,50
 273 572 273 572 254.5 554 c 128,-1,51
 236 536 236 536 209 536 c 0,40,41
EndSplineSet
Substitution2: "'case' Case-Sensitive Forms lookup 18 subtable" Iogonek
EndChar

StartChar: dotlessi
Encoding: 305 305 268
Width: 500
Flags: W
LayerCount: 2
Fore
SplineSet
188 395 m 1,0,-1
 54 395 l 1,1,-1
 54 464 l 1,2,-1
 270 464 l 1,3,-1
 270 179 l 2,4,5
 270 110 270 110 289 86.5 c 128,-1,6
 308 63 308 63 346 63 c 0,7,8
 375 63 375 63 399.5 70 c 128,-1,9
 424 77 424 77 438 85 c 1,10,-1
 450 15 l 1,11,12
 444 12 444 12 433 7.5 c 128,-1,13
 422 3 422 3 407.5 -1 c 128,-1,14
 393 -5 393 -5 375.5 -8 c 128,-1,15
 358 -11 358 -11 339 -11 c 0,16,17
 295 -11 295 -11 266 1 c 128,-1,18
 237 13 237 13 219.5 37 c 128,-1,19
 202 61 202 61 195 96.5 c 128,-1,20
 188 132 188 132 188 179 c 2,21,-1
 188 395 l 1,0,-1
EndSplineSet
EndChar

StartChar: IJ
Encoding: 306 306 270
Width: 500
Flags: W
LayerCount: 2
Fore
SplineSet
124 0 m 1,0,-1
 42 0 l 1,1,-1
 42 619 l 1,2,-1
 124 619 l 1,3,-1
 124 0 l 1,0,-1
471 619 m 1,4,-1
 471 171 l 2,5,6
 471 73 471 73 427.5 30 c 128,-1,7
 384 -13 384 -13 309 -13 c 0,8,9
 274 -13 274 -13 239 -0.5 c 128,-1,10
 204 12 204 12 177 37 c 1,11,-1
 210 104 l 1,12,13
 227 85 227 85 250.5 71.5 c 128,-1,14
 274 58 274 58 308 58 c 0,15,16
 347 58 347 58 367.5 83.5 c 128,-1,17
 388 109 388 109 388 172 c 2,18,-1
 388 619 l 1,19,-1
 471 619 l 1,4,-1
EndSplineSet
EndChar

StartChar: ij
Encoding: 307 307 271
Width: 500
Flags: W
LayerCount: 2
Fore
SplineSet
108 0 m 1,0,-1
 108 464 l 1,1,-1
 190 464 l 1,2,-1
 190 0 l 1,3,-1
 108 0 l 1,0,-1
234 -167 m 0,4,5
 223 -167 223 -167 206 -164.5 c 128,-1,6
 189 -162 189 -162 178 -157 c 1,7,-1
 188 -89 l 1,8,9
 197 -92 197 -92 208.5 -94 c 128,-1,10
 220 -96 220 -96 230 -96 c 0,11,12
 274 -96 274 -96 292.5 -69.5 c 128,-1,13
 311 -43 311 -43 311 8 c 2,14,-1
 311 464 l 1,15,-1
 393 464 l 1,16,-1
 393 9 l 2,17,18
 393 -81 393 -81 352.5 -124 c 128,-1,19
 312 -167 312 -167 234 -167 c 0,4,5
352 542 m 256,20,21
 327 542 327 542 309.5 558.5 c 128,-1,22
 292 575 292 575 292 603 c 0,23,24
 292 630 292 630 309.5 646.5 c 128,-1,25
 327 663 327 663 352 663 c 256,26,27
 377 663 377 663 394.5 646.5 c 128,-1,28
 412 630 412 630 412 603 c 0,29,30
 412 575 412 575 394.5 558.5 c 128,-1,31
 377 542 377 542 352 542 c 256,20,21
149 542 m 256,32,33
 124 542 124 542 106.5 558.5 c 128,-1,34
 89 575 89 575 89 603 c 0,35,36
 89 630 89 630 106.5 646.5 c 128,-1,37
 124 663 124 663 149 663 c 256,38,39
 174 663 174 663 191.5 646.5 c 128,-1,40
 209 630 209 630 209 603 c 0,41,42
 209 575 209 575 191.5 558.5 c 128,-1,43
 174 542 174 542 149 542 c 256,32,33
EndSplineSet
Substitution2: "'case' Case-Sensitive Forms lookup 18 subtable" IJ
EndChar

StartChar: kgreenlandic.case
Encoding: 65538 -1 276
Width: 500
Flags: W
LayerCount: 2
Fore
SplineSet
391 464 m 1,0,1
 391 475 391 475 391 484 c 128,-1,2
 391 493 391 493 392 502 c 0,3,4
 395 548 395 548 412 593.5 c 128,-1,5
 429 639 429 639 454 679 c 1,6,-1
 518 658 l 1,7,8
 499 618 499 618 489.5 578.5 c 128,-1,9
 480 539 480 539 480 504 c 0,10,11
 480 495 480 495 480.5 485 c 128,-1,12
 481 475 481 475 482 464 c 1,13,-1
 391 464 l 1,0,1
389 619 m 1,14,15
 351 542 351 542 311 474.5 c 128,-1,16
 271 407 271 407 220 330 c 1,17,18
 251 300 251 300 277 265 c 128,-1,19
 303 230 303 230 325.5 189.5 c 128,-1,20
 348 149 348 149 369 102 c 128,-1,21
 390 55 390 55 411 0 c 1,22,-1
 318 0 l 1,23,24
 284 93 284 93 240.5 172 c 128,-1,25
 197 251 197 251 146 296 c 1,26,-1
 146 0 l 1,27,-1
 64 0 l 1,28,-1
 64 619 l 1,29,-1
 146 619 l 1,30,-1
 146 343 l 1,31,32
 188 410 188 410 226.5 483 c 128,-1,33
 265 556 265 556 295 619 c 1,34,-1
 389 619 l 1,14,15
EndSplineSet
EndChar

StartChar: kgreenlandic
Encoding: 312 312 277
Width: 500
Flags: W
LayerCount: 2
Fore
SplineSet
238 255 m 1,0,1
 265 235 265 235 299 204.5 c 128,-1,2
 333 174 333 174 366.5 139 c 128,-1,3
 400 104 400 104 430 67.5 c 128,-1,4
 460 31 460 31 478 0 c 1,5,-1
 380 0 l 1,6,7
 361 31 361 31 333 63.5 c 128,-1,8
 305 96 305 96 273.5 126 c 128,-1,9
 242 156 242 156 210.5 181 c 128,-1,10
 179 206 179 206 154 223 c 1,11,-1
 154 0 l 1,12,-1
 71 0 l 1,13,-1
 71 464 l 1,14,-1
 154 464 l 1,15,-1
 154 270 l 1,16,17
 209 318 209 318 264 365.5 c 128,-1,18
 319 413 319 413 363 464 c 1,19,-1
 460 464 l 1,20,21
 417 413 417 413 356.5 359 c 128,-1,22
 296 305 296 305 238 255 c 1,0,1
EndSplineSet
Substitution2: "'case' Case-Sensitive Forms lookup 18 subtable" kgreenlandic.case
EndChar

StartChar: lacute
Encoding: 314 314 279
Width: 500
Flags: W
LayerCount: 2
Fore
SplineSet
338 -11 m 0,0,1
 294 -11 294 -11 265 1 c 128,-1,2
 236 13 236 13 219 37 c 128,-1,3
 202 61 202 61 195 96.5 c 128,-1,4
 188 132 188 132 188 179 c 2,5,-1
 188 608 l 1,6,-1
 54 608 l 1,7,-1
 54 678 l 1,8,-1
 270 678 l 1,9,-1
 270 179 l 2,10,11
 270 144 270 144 274.5 122 c 128,-1,12
 279 100 279 100 288.5 86.5 c 128,-1,13
 298 73 298 73 312 68 c 128,-1,14
 326 63 326 63 345 63 c 0,15,16
 374 63 374 63 399 70 c 128,-1,17
 424 77 424 77 438 85 c 1,18,-1
 450 15 l 1,19,20
 444 12 444 12 433 7.5 c 128,-1,21
 422 3 422 3 407 -1 c 128,-1,22
 392 -5 392 -5 374.5 -8 c 128,-1,23
 357 -11 357 -11 338 -11 c 0,0,1
325 765 m 1,24,-1
 175 711 l 1,25,-1
 156 760 l 1,26,-1
 300 830 l 1,27,-1
 325 765 l 1,24,-1
EndSplineSet
Substitution2: "'case' Case-Sensitive Forms lookup 18 subtable" Lacute
EndChar

StartChar: Lslash
Encoding: 321 321 286
Width: 500
Flags: W
LayerCount: 2
Fore
SplineSet
460 70 m 1,0,-1
 460 0 l 1,1,-1
 113 0 l 1,2,-1
 113 256 l 1,3,-1
 47 222 l 1,4,-1
 18 281 l 1,5,-1
 113 330 l 1,6,-1
 113 619 l 1,7,-1
 196 619 l 1,8,-1
 196 373 l 1,9,-1
 303 428 l 1,10,-1
 331 369 l 1,11,-1
 196 299 l 1,12,-1
 196 70 l 1,13,-1
 460 70 l 1,0,-1
EndSplineSet
EndChar

StartChar: lslash
Encoding: 322 322 287
Width: 500
Flags: W
LayerCount: 2
Fore
SplineSet
338 -11 m 0,0,1
 294 -11 294 -11 265 1 c 128,-1,2
 236 13 236 13 219 37 c 128,-1,3
 202 61 202 61 195 96.5 c 128,-1,4
 188 132 188 132 188 179 c 2,5,-1
 188 305 l 1,6,-1
 122 271 l 1,7,-1
 94 326 l 1,8,-1
 188 374 l 1,9,-1
 188 618 l 1,10,-1
 54 618 l 1,11,-1
 54 688 l 1,12,-1
 270 688 l 1,13,-1
 270 417 l 1,14,-1
 348 457 l 1,15,-1
 376 402 l 1,16,-1
 270 347 l 1,17,-1
 270 179 l 2,18,19
 270 144 270 144 274.5 122 c 128,-1,20
 279 100 279 100 288.5 86.5 c 128,-1,21
 298 73 298 73 312 68 c 128,-1,22
 326 63 326 63 345 63 c 0,23,24
 374 63 374 63 399 70 c 128,-1,25
 424 77 424 77 438 85 c 1,26,-1
 450 15 l 1,27,28
 444 12 444 12 433 7.5 c 128,-1,29
 422 3 422 3 407 -1 c 128,-1,30
 392 -5 392 -5 374.5 -8 c 128,-1,31
 357 -11 357 -11 338 -11 c 0,0,1
EndSplineSet
Substitution2: "'case' Case-Sensitive Forms lookup 18 subtable" Lslash
EndChar

StartChar: napostrophe.case
Encoding: 65539 -1 294
Width: 500
Flags: W
LayerCount: 2
Fore
SplineSet
370 0 m 1,0,1
 348 96 348 96 321.5 201.5 c 128,-1,2
 295 307 295 307 267 421 c 1,3,-1
 267 0 l 1,4,-1
 197 0 l 1,5,-1
 197 619 l 1,6,-1
 272 619 l 1,7,8
 286 569 286 569 300.5 517.5 c 128,-1,9
 315 466 315 466 328.5 415 c 128,-1,10
 342 364 342 364 354 315.5 c 128,-1,11
 366 267 366 267 375 223 c 1,12,-1
 375 619 l 1,13,-1
 445 619 l 1,14,-1
 445 0 l 1,15,-1
 370 0 l 1,0,1
141 693 m 1,16,-1
 141 684 l 2,17,18
 141 633 141 633 127 592 c 128,-1,19
 113 551 113 551 85 505 c 1,20,-1
 29 526 l 1,21,22
 46 561 46 561 53.5 592.5 c 128,-1,23
 61 624 61 624 61 659 c 0,24,25
 61 668 61 668 60.5 678 c 128,-1,26
 60 688 60 688 59 693 c 1,27,-1
 141 693 l 1,16,-1
EndSplineSet
EndChar

StartChar: Eng
Encoding: 330 330 296
Width: 500
Flags: W
LayerCount: 2
Fore
SplineSet
370 21 m 1,0,1
 350 65 350 65 322.5 122.5 c 128,-1,2
 295 180 295 180 263 243 c 128,-1,3
 231 306 231 306 196.5 370.5 c 128,-1,4
 162 435 162 435 130 494 c 1,5,-1
 130 0 l 1,6,-1
 55 0 l 1,7,-1
 55 619 l 1,8,-1
 139 619 l 1,9,10
 167 570 167 570 199 511 c 128,-1,11
 231 452 231 452 262.5 391.5 c 128,-1,12
 294 331 294 331 322 273.5 c 128,-1,13
 350 216 350 216 370 169 c 1,14,-1
 370 619 l 1,15,-1
 445 619 l 1,16,-1
 445 0 l 2,17,18
 445 -37 445 -37 441 -68 c 128,-1,19
 437 -99 437 -99 424.5 -121 c 128,-1,20
 412 -143 412 -143 387.5 -155 c 128,-1,21
 363 -167 363 -167 323 -167 c 0,22,23
 310 -167 310 -167 294 -164.5 c 128,-1,24
 278 -162 278 -162 268 -160 c 1,25,-1
 276 -95 l 1,26,27
 284 -97 284 -97 295.5 -98 c 128,-1,28
 307 -99 307 -99 314 -99 c 0,29,30
 347 -99 347 -99 358.5 -77.5 c 128,-1,31
 370 -56 370 -56 370 -15 c 2,32,-1
 370 21 l 1,0,1
EndSplineSet
EndChar

StartChar: eng
Encoding: 331 331 297
Width: 500
Flags: W
LayerCount: 2
Fore
SplineSet
71 451 m 1,0,1
 116 462 116 462 160.5 468 c 128,-1,2
 205 474 205 474 244 474 c 0,3,4
 337 474 337 474 384.5 426 c 128,-1,5
 432 378 432 378 432 272 c 2,6,-1
 432 0 l 2,7,8
 432 -41 432 -41 426.5 -72.5 c 128,-1,9
 421 -104 421 -104 406 -125 c 128,-1,10
 391 -146 391 -146 365.5 -156.5 c 128,-1,11
 340 -167 340 -167 300 -167 c 0,12,13
 287 -167 287 -167 271 -164.5 c 128,-1,14
 255 -162 255 -162 245 -160 c 1,15,-1
 253 -95 l 1,16,17
 261 -97 261 -97 272 -98 c 128,-1,18
 283 -99 283 -99 291 -99 c 0,19,20
 324 -99 324 -99 337 -77.5 c 128,-1,21
 350 -56 350 -56 350 -15 c 2,22,-1
 350 257 l 2,23,24
 350 302 350 302 342 330 c 128,-1,25
 334 358 334 358 319.5 373.5 c 128,-1,26
 305 389 305 389 284.5 395 c 128,-1,27
 264 401 264 401 240 401 c 0,28,29
 220 401 220 401 197.5 398.5 c 128,-1,30
 175 396 175 396 154 392 c 1,31,-1
 154 0 l 1,32,-1
 71 0 l 1,33,-1
 71 451 l 1,0,1
EndSplineSet
Substitution2: "'case' Case-Sensitive Forms lookup 18 subtable" Eng
EndChar

StartChar: Scedilla
Encoding: 350 350 314
Width: 500
Flags: W
LayerCount: 2
Fore
SplineSet
263 -33 m 1,0,1
 289 -45 289 -45 300.5 -60 c 128,-1,2
 312 -75 312 -75 312 -104 c 0,3,4
 312 -114 312 -114 307.5 -125.5 c 128,-1,5
 303 -137 303 -137 292.5 -146.5 c 128,-1,6
 282 -156 282 -156 264.5 -162.5 c 128,-1,7
 247 -169 247 -169 221 -169 c 0,8,9
 198 -169 198 -169 178 -165.5 c 128,-1,10
 158 -162 158 -162 147 -157 c 1,11,-1
 157 -106 l 1,12,13
 168 -110 168 -110 180 -112.5 c 128,-1,14
 192 -115 192 -115 207 -115 c 0,15,16
 239 -115 239 -115 239 -95 c 256,17,18
 239 -75 239 -75 202 -64 c 2,19,-1
 195 -62 l 1,20,21
 199 -52 199 -52 204.5 -38.5 c 128,-1,22
 210 -25 210 -25 216 -13 c 1,23,24
 156 -10 156 -10 114 4.5 c 128,-1,25
 72 19 72 19 55 30 c 1,26,-1
 80 98 l 1,27,28
 100 87 100 87 139 72.5 c 128,-1,29
 178 58 178 58 234 58 c 0,30,31
 297 58 297 58 330 82 c 128,-1,32
 363 106 363 106 363 154 c 0,33,34
 363 183 363 183 351 203.5 c 128,-1,35
 339 224 339 224 319 239.5 c 128,-1,36
 299 255 299 255 274 266.5 c 128,-1,37
 249 278 249 278 223 288 c 0,38,39
 193 300 193 300 165.5 315 c 128,-1,40
 138 330 138 330 116.5 350 c 128,-1,41
 95 370 95 370 82.5 397 c 128,-1,42
 70 424 70 424 70 461 c 0,43,44
 70 542 70 542 121 587.5 c 128,-1,45
 172 633 172 633 263 633 c 0,46,47
 288 633 288 633 312.5 629.5 c 128,-1,48
 337 626 337 626 358 621 c 128,-1,49
 379 616 379 616 395.5 609 c 128,-1,50
 412 602 412 602 422 595 c 1,51,-1
 396 526 l 1,52,53
 376 538 376 538 341 550 c 128,-1,54
 306 562 306 562 263 562 c 0,55,56
 218 562 218 562 185 539.5 c 128,-1,57
 152 517 152 517 152 472 c 0,58,59
 152 446 152 446 161.5 428 c 128,-1,60
 171 410 171 410 187.5 396.5 c 128,-1,61
 204 383 204 383 226 372 c 128,-1,62
 248 361 248 361 274 350 c 0,63,64
 312 334 312 334 343.5 318 c 128,-1,65
 375 302 375 302 397.5 280 c 128,-1,66
 420 258 420 258 432.5 228 c 128,-1,67
 445 198 445 198 445 155 c 0,68,69
 445 83 445 83 401 40 c 128,-1,70
 357 -3 357 -3 274 -11 c 1,71,-1
 263 -33 l 1,0,1
EndSplineSet
EndChar

StartChar: scedilla
Encoding: 351 351 315
Width: 500
Flags: W
LayerCount: 2
Fore
SplineSet
263 -33 m 1,0,1
 289 -45 289 -45 300.5 -60 c 128,-1,2
 312 -75 312 -75 312 -104 c 0,3,4
 312 -114 312 -114 307.5 -125.5 c 128,-1,5
 303 -137 303 -137 292.5 -146.5 c 128,-1,6
 282 -156 282 -156 264.5 -162.5 c 128,-1,7
 247 -169 247 -169 221 -169 c 0,8,9
 198 -169 198 -169 178 -165.5 c 128,-1,10
 158 -162 158 -162 147 -157 c 1,11,-1
 157 -106 l 1,12,13
 168 -110 168 -110 180 -112.5 c 128,-1,14
 192 -115 192 -115 207 -115 c 0,15,16
 239 -115 239 -115 239 -95 c 256,17,18
 239 -75 239 -75 202 -64 c 2,19,-1
 195 -62 l 1,20,21
 199 -51 199 -51 205 -37.5 c 128,-1,22
 211 -24 211 -24 217 -11 c 1,23,24
 131 -8 131 -8 66 21 c 1,25,-1
 82 96 l 1,26,27
 117 80 117 80 155.5 69.5 c 128,-1,28
 194 59 194 59 238 59 c 0,29,30
 351 59 351 59 351 116 c 0,31,32
 351 141 351 141 330.5 157 c 128,-1,33
 310 173 310 173 279.5 185 c 128,-1,34
 249 197 249 197 213 208.5 c 128,-1,35
 177 220 177 220 146.5 237 c 128,-1,36
 116 254 116 254 95.5 279 c 128,-1,37
 75 304 75 304 75 344 c 0,38,39
 75 400 75 400 120.5 437.5 c 128,-1,40
 166 475 166 475 263 475 c 0,41,42
 301 475 301 475 341.5 469.5 c 128,-1,43
 382 464 382 464 411 455 c 1,44,-1
 396 381 l 1,45,46
 388 385 388 385 374 389.5 c 128,-1,47
 360 394 360 394 342 397.5 c 128,-1,48
 324 401 324 401 303.5 403 c 128,-1,49
 283 405 283 405 264 405 c 0,50,51
 156 405 156 405 156 346 c 0,52,53
 156 325 156 325 176.5 310.5 c 128,-1,54
 197 296 197 296 228 284 c 128,-1,55
 259 272 259 272 295 259.5 c 128,-1,56
 331 247 331 247 362 229 c 128,-1,57
 393 211 393 211 413.5 185.5 c 128,-1,58
 434 160 434 160 434 121 c 0,59,60
 434 64 434 64 395.5 31 c 128,-1,61
 357 -2 357 -2 275 -9 c 1,62,-1
 263 -33 l 1,0,1
EndSplineSet
Substitution2: "'case' Case-Sensitive Forms lookup 18 subtable" Scedilla
EndChar

StartChar: uni0162
Encoding: 354 354 316
Width: 500
Flags: W
LayerCount: 2
Fore
SplineSet
263 -33 m 1,0,1
 289 -45 289 -45 300.5 -60 c 128,-1,2
 312 -75 312 -75 312 -104 c 0,3,4
 312 -114 312 -114 307.5 -125.5 c 128,-1,5
 303 -137 303 -137 292.5 -146.5 c 128,-1,6
 282 -156 282 -156 264.5 -162.5 c 128,-1,7
 247 -169 247 -169 221 -169 c 0,8,9
 198 -169 198 -169 178 -165.5 c 128,-1,10
 158 -162 158 -162 147 -157 c 1,11,-1
 157 -106 l 1,12,13
 168 -110 168 -110 180 -112.5 c 128,-1,14
 192 -115 192 -115 207 -115 c 0,15,16
 239 -115 239 -115 239 -95 c 256,17,18
 239 -75 239 -75 202 -64 c 2,19,-1
 195 -62 l 1,20,21
 200 -49 200 -49 207.5 -31.5 c 128,-1,22
 215 -14 215 -14 222 0 c 1,23,-1
 209 0 l 1,24,-1
 209 549 l 1,25,-1
 39 549 l 1,26,-1
 39 619 l 1,27,-1
 461 619 l 1,28,-1
 461 549 l 1,29,-1
 291 549 l 1,30,-1
 291 0 l 1,31,-1
 280 0 l 1,32,-1
 263 -33 l 1,0,1
EndSplineSet
EndChar

StartChar: uni0163
Encoding: 355 355 317
Width: 500
Flags: W
LayerCount: 2
Fore
SplineSet
326 -33 m 1,0,1
 352 -45 352 -45 363.5 -60 c 128,-1,2
 375 -75 375 -75 375 -104 c 0,3,4
 375 -114 375 -114 370.5 -125.5 c 128,-1,5
 366 -137 366 -137 355.5 -146.5 c 128,-1,6
 345 -156 345 -156 327.5 -162.5 c 128,-1,7
 310 -169 310 -169 284 -169 c 0,8,9
 261 -169 261 -169 241 -165.5 c 128,-1,10
 221 -162 221 -162 210 -157 c 1,11,-1
 220 -106 l 1,12,13
 231 -110 231 -110 243 -112.5 c 128,-1,14
 255 -115 255 -115 270 -115 c 0,15,16
 302 -115 302 -115 302 -95 c 256,17,18
 302 -75 302 -75 265 -64 c 2,19,-1
 258 -62 l 1,20,21
 262 -51 262 -51 268.5 -36 c 128,-1,22
 275 -21 275 -21 282 -8 c 1,23,24
 245 -3 245 -3 221.5 11.5 c 128,-1,25
 198 26 198 26 184.5 49.5 c 128,-1,26
 171 73 171 73 166 105.5 c 128,-1,27
 161 138 161 138 161 179 c 2,28,-1
 161 395 l 1,29,-1
 63 395 l 1,30,-1
 63 464 l 1,31,-1
 161 464 l 1,32,-1
 161 594 l 1,33,-1
 243 608 l 1,34,-1
 243 464 l 1,35,-1
 439 464 l 1,36,-1
 439 395 l 1,37,-1
 243 395 l 1,38,-1
 243 179 l 2,39,40
 243 144 243 144 248 122 c 128,-1,41
 253 100 253 100 264.5 86.5 c 128,-1,42
 276 73 276 73 294 68 c 128,-1,43
 312 63 312 63 338 63 c 0,44,45
 374 63 374 63 396 69 c 128,-1,46
 418 75 418 75 438 85 c 1,47,-1
 450 15 l 1,48,49
 437 9 437 9 408 0 c 128,-1,50
 379 -9 379 -9 337 -11 c 1,51,-1
 326 -33 l 1,0,1
EndSplineSet
Substitution2: "'case' Case-Sensitive Forms lookup 18 subtable" uni0162
EndChar

StartChar: Tbar
Encoding: 358 358 320
Width: 500
Flags: W
LayerCount: 2
Fore
SplineSet
461 619 m 1,0,-1
 461 549 l 1,1,-1
 291 549 l 1,2,-1
 291 349 l 1,3,-1
 409 349 l 1,4,-1
 409 285 l 1,5,-1
 291 285 l 1,6,-1
 291 0 l 1,7,-1
 209 0 l 1,8,-1
 209 285 l 1,9,-1
 90 285 l 1,10,-1
 90 349 l 1,11,-1
 209 349 l 1,12,-1
 209 549 l 1,13,-1
 39 549 l 1,14,-1
 39 619 l 1,15,-1
 461 619 l 1,0,-1
EndSplineSet
EndChar

StartChar: tbar
Encoding: 359 359 321
Width: 500
Flags: W
LayerCount: 2
Fore
SplineSet
243 464 m 1,0,-1
 439 464 l 1,1,-1
 439 395 l 1,2,-1
 243 395 l 1,3,-1
 243 273 l 1,4,-1
 439 273 l 1,5,-1
 439 211 l 1,6,-1
 243 211 l 1,7,-1
 243 179 l 2,8,9
 243 144 243 144 248 122 c 128,-1,10
 253 100 253 100 264.5 86.5 c 128,-1,11
 276 73 276 73 294 68 c 128,-1,12
 312 63 312 63 338 63 c 0,13,14
 374 63 374 63 396 69 c 128,-1,15
 418 75 418 75 438 85 c 1,16,-1
 450 15 l 1,17,18
 436 9 436 9 405.5 -1 c 128,-1,19
 375 -11 375 -11 330 -11 c 0,20,21
 278 -11 278 -11 245 1 c 128,-1,22
 212 13 212 13 193.5 37 c 128,-1,23
 175 61 175 61 168 96.5 c 128,-1,24
 161 132 161 132 161 179 c 2,25,-1
 161 211 l 1,26,-1
 63 211 l 1,27,-1
 63 273 l 1,28,-1
 161 273 l 1,29,-1
 161 395 l 1,30,-1
 63 395 l 1,31,-1
 63 464 l 1,32,-1
 161 464 l 1,33,-1
 161 594 l 1,34,-1
 243 608 l 1,35,-1
 243 464 l 1,0,-1
EndSplineSet
Substitution2: "'case' Case-Sensitive Forms lookup 18 subtable" Tbar
EndChar

StartChar: Uogonek
Encoding: 370 370 332
Width: 500
Flags: W
LayerCount: 2
Fore
SplineSet
240 -24 m 1,0,1
 185 -24 185 -24 148.5 -6.5 c 128,-1,2
 112 11 112 11 89.5 42.5 c 128,-1,3
 67 74 67 74 57.5 117.5 c 128,-1,4
 48 161 48 161 48 213 c 2,5,-1
 48 619 l 1,6,-1
 130 619 l 1,7,-1
 130 222 l 2,8,9
 130 175 130 175 138.5 143.5 c 128,-1,10
 147 112 147 112 162.5 93 c 128,-1,11
 178 74 178 74 200 66 c 128,-1,12
 222 58 222 58 250 58 c 256,13,14
 278 58 278 58 300 66 c 128,-1,15
 322 74 322 74 337.5 93 c 128,-1,16
 353 112 353 112 361.5 143.5 c 128,-1,17
 370 175 370 175 370 222 c 2,18,-1
 370 619 l 1,19,-1
 452 619 l 1,20,-1
 452 213 l 2,21,22
 452 144 452 144 433.5 94 c 128,-1,23
 415 44 415 44 372 17 c 0,24,25
 361 10 361 10 342 -4 c 128,-1,26
 323 -18 323 -18 309 -32 c 256,27,28
 295 -46 295 -46 287.5 -58 c 128,-1,29
 280 -70 280 -70 280 -83 c 0,30,31
 280 -109 280 -109 316 -109 c 0,32,33
 322 -109 322 -109 332 -107.5 c 128,-1,34
 342 -106 342 -106 353 -103 c 1,35,-1
 359 -157 l 1,36,37
 337 -167 337 -167 300 -167 c 0,38,39
 249 -167 249 -167 225.5 -149 c 128,-1,40
 202 -131 202 -131 202 -99 c 0,41,42
 202 -78 202 -78 209 -63 c 128,-1,43
 216 -48 216 -48 240 -24 c 1,0,1
EndSplineSet
EndChar

StartChar: uogonek
Encoding: 371 371 333
Width: 500
Flags: W
LayerCount: 2
Fore
SplineSet
429 13 m 1,0,1
 423 7 423 7 410 -4 c 128,-1,2
 397 -15 397 -15 383.5 -28.5 c 128,-1,3
 370 -42 370 -42 360 -56.5 c 128,-1,4
 350 -71 350 -71 350 -83 c 0,5,6
 350 -109 350 -109 386 -109 c 0,7,8
 392 -109 392 -109 402 -107.5 c 128,-1,9
 412 -106 412 -106 422 -103 c 1,10,-1
 429 -157 l 1,11,12
 406 -167 406 -167 370 -167 c 0,13,14
 319 -167 319 -167 295 -149 c 128,-1,15
 271 -131 271 -131 271 -99 c 0,16,17
 271 -78 271 -78 283 -59.5 c 128,-1,18
 295 -41 295 -41 311 -25 c 0,19,20
 323 -12 323 -12 335 -4 c 1,21,22
 312 -6 312 -6 290.5 -8 c 128,-1,23
 269 -10 269 -10 253 -10 c 0,24,25
 200 -10 200 -10 165 5.5 c 128,-1,26
 130 21 130 21 108 49.5 c 128,-1,27
 86 78 86 78 77 117 c 128,-1,28
 68 156 68 156 68 203 c 2,29,-1
 68 464 l 1,30,-1
 150 464 l 1,31,-1
 150 221 l 2,32,33
 150 135 150 135 175.5 99 c 128,-1,34
 201 63 201 63 261 63 c 0,35,36
 274 63 274 63 287.5 64 c 128,-1,37
 301 65 301 65 313 66.5 c 128,-1,38
 325 68 325 68 334 69.5 c 128,-1,39
 343 71 343 71 346 72 c 2,40,-1
 346 464 l 1,41,-1
 429 464 l 1,42,-1
 429 13 l 1,0,1
EndSplineSet
Substitution2: "'case' Case-Sensitive Forms lookup 18 subtable" Uogonek
EndChar

StartChar: longs
Encoding: 383 383 344
Width: 500
Flags: W
LayerCount: 2
Fore
SplineSet
161 0 m 1,0,-1
 161 506 l 2,1,2
 161 560 161 560 176 595.5 c 128,-1,3
 191 631 191 631 215.5 653 c 128,-1,4
 240 675 240 675 272.5 684 c 128,-1,5
 305 693 305 693 341 693 c 256,6,7
 377 693 377 693 413.5 685 c 128,-1,8
 450 677 450 677 482 666 c 1,9,-1
 467 595 l 1,10,11
 445 606 445 606 412 614 c 128,-1,12
 379 622 379 622 345 622 c 0,13,14
 324 622 324 622 305.5 616.5 c 128,-1,15
 287 611 287 611 273 597.5 c 128,-1,16
 259 584 259 584 251 561.5 c 128,-1,17
 243 539 243 539 243 505 c 2,18,-1
 243 0 l 1,19,-1
 161 0 l 1,0,-1
EndSplineSet
Substitution2: "'case' Case-Sensitive Forms lookup 17 subtable" S
EndChar

StartChar: dotlessj
Encoding: 567 567 349
Width: 500
Flags: W
LayerCount: 2
Fore
SplineSet
114 395 m 1,0,-1
 114 464 l 1,1,-1
 384 464 l 1,2,-1
 384 5 l 2,3,4
 384 -43 384 -43 370.5 -76.5 c 128,-1,5
 357 -110 357 -110 334.5 -131 c 128,-1,6
 312 -152 312 -152 282.5 -161 c 128,-1,7
 253 -170 253 -170 220 -170 c 0,8,9
 182 -170 182 -170 143.5 -162 c 128,-1,10
 105 -154 105 -154 71 -137 c 1,11,-1
 96 -67 l 1,12,13
 121 -79 121 -79 151.5 -87.5 c 128,-1,14
 182 -96 182 -96 210 -96 c 0,15,16
 250 -96 250 -96 276 -75.5 c 128,-1,17
 302 -55 302 -55 302 4 c 2,18,-1
 302 395 l 1,19,-1
 114 395 l 1,0,-1
EndSplineSet
Substitution2: "'case' Case-Sensitive Forms lookup 17 subtable" J
EndChar

StartChar: apostrophe
Encoding: 700 700 350
Width: 500
Flags: W
LayerCount: 2
Fore
SplineSet
308 693 m 1,0,1
 308 683 308 683 308 676 c 128,-1,2
 308 669 308 669 307 661 c 0,3,4
 304 615 304 615 288.5 577.5 c 128,-1,5
 273 540 273 540 252 505 c 1,6,-1
 196 526 l 1,7,8
 213 561 213 561 220.5 592.5 c 128,-1,9
 228 624 228 624 228 659 c 0,10,11
 228 668 228 668 227.5 678 c 128,-1,12
 227 688 227 688 226 693 c 1,13,-1
 308 693 l 1,0,1
EndSplineSet
EndChar

StartChar: caron
Encoding: 711 711 351
Width: 500
Flags: W
LayerCount: 2
Fore
SplineSet
129 651 m 1,0,-1
 163 690 l 1,1,-1
 250 612 l 1,2,-1
 337 690 l 1,3,-1
 371 651 l 1,4,-1
 250 523 l 1,5,-1
 129 651 l 1,0,-1
EndSplineSet
EndChar

StartChar: breve
Encoding: 728 728 353
Width: 500
Flags: W
LayerCount: 2
Fore
SplineSet
250 545 m 256,0,1
 225 545 225 545 203 553.5 c 128,-1,2
 181 562 181 562 164.5 577.5 c 128,-1,3
 148 593 148 593 139 616 c 128,-1,4
 130 639 130 639 131 669 c 1,5,-1
 185 669 l 1,6,7
 186 659 186 659 189 647.5 c 128,-1,8
 192 636 192 636 199.5 626.5 c 128,-1,9
 207 617 207 617 219 611 c 128,-1,10
 231 605 231 605 250 605 c 256,11,12
 269 605 269 605 281.5 611 c 128,-1,13
 294 617 294 617 301 626.5 c 128,-1,14
 308 636 308 636 311 647.5 c 128,-1,15
 314 659 314 659 315 669 c 1,16,-1
 369 669 l 1,17,18
 370 639 370 639 361 616 c 128,-1,19
 352 593 352 593 335.5 577.5 c 128,-1,20
 319 562 319 562 297 553.5 c 128,-1,21
 275 545 275 545 250 545 c 256,0,1
EndSplineSet
EndChar

StartChar: dotaccent
Encoding: 729 729 354
Width: 500
Flags: W
LayerCount: 2
Fore
SplineSet
250 542 m 256,0,1
 225 542 225 542 207.5 558.5 c 128,-1,2
 190 575 190 575 190 603 c 0,3,4
 190 630 190 630 207.5 646.5 c 128,-1,5
 225 663 225 663 250 663 c 256,6,7
 275 663 275 663 292.5 646.5 c 128,-1,8
 310 630 310 630 310 603 c 0,9,10
 310 575 310 575 292.5 558.5 c 128,-1,11
 275 542 275 542 250 542 c 256,0,1
EndSplineSet
EndChar

StartChar: ring
Encoding: 730 730 355
Width: 500
Flags: W
LayerCount: 2
Fore
SplineSet
342 605 m 0,0,1
 342 562 342 562 314.5 537.5 c 128,-1,2
 287 513 287 513 250 513 c 256,3,4
 213 513 213 513 185.5 537.5 c 128,-1,5
 158 562 158 562 158 605 c 0,6,7
 158 647 158 647 185.5 671.5 c 128,-1,8
 213 696 213 696 250 696 c 256,9,10
 287 696 287 696 314.5 671.5 c 128,-1,11
 342 647 342 647 342 605 c 0,0,1
297 605 m 0,12,13
 297 628 297 628 283.5 641 c 128,-1,14
 270 654 270 654 250 654 c 256,15,16
 230 654 230 654 216.5 641 c 128,-1,17
 203 628 203 628 203 605 c 0,18,19
 203 581 203 581 216.5 568 c 128,-1,20
 230 555 230 555 250 555 c 256,21,22
 270 555 270 555 283.5 568 c 128,-1,23
 297 581 297 581 297 605 c 0,12,13
EndSplineSet
EndChar

StartChar: ogonek
Encoding: 731 731 356
Width: 500
Flags: W
LayerCount: 2
Fore
SplineSet
270 -167 m 0,0,1
 219 -167 219 -167 195 -149 c 128,-1,2
 171 -131 171 -131 171 -99 c 0,3,4
 171 -78 171 -78 182.5 -59.5 c 128,-1,5
 194 -41 194 -41 210 -24 c 0,6,7
 231 -1 231 -1 245 7 c 1,8,-1
 328 7 l 1,9,10
 317 -1 317 -1 304.5 -11 c 128,-1,11
 292 -21 292 -21 279 -35 c 256,12,13
 266 -49 266 -49 258 -59.5 c 128,-1,14
 250 -70 250 -70 250 -83 c 0,15,16
 250 -109 250 -109 286 -109 c 0,17,18
 292 -109 292 -109 302 -107.5 c 128,-1,19
 312 -106 312 -106 322 -103 c 1,20,-1
 329 -157 l 1,21,22
 306 -167 306 -167 270 -167 c 0,0,1
EndSplineSet
EndChar

StartChar: hungarumlaut
Encoding: 733 733 357
Width: 500
Flags: W
LayerCount: 2
Fore
SplineSet
253 643 m 1,0,-1
 143 518 l 1,1,-1
 100 550 l 1,2,-1
 203 693 l 1,3,-1
 253 643 l 1,0,-1
400 643 m 1,4,-1
 290 518 l 1,5,-1
 247 550 l 1,6,-1
 350 693 l 1,7,-1
 400 643 l 1,4,-1
EndSplineSet
EndChar

StartChar: fraction
Encoding: 8260 8260 366
Width: 500
Flags: W
LayerCount: 2
Fore
SplineSet
95 0 m 1,0,-1
 25 0 l 1,1,-1
 404 619 l 1,2,-1
 474 619 l 1,3,-1
 95 0 l 1,0,-1
EndSplineSet
EndChar

StartChar: zerosuperior
Encoding: 8304 8304 367
Width: 500
Flags: W
LayerCount: 2
Fore
SplineSet
116 454 m 0,0,1
 116 541 116 541 151.5 587 c 128,-1,2
 187 633 187 633 250 633 c 256,3,4
 313 633 313 633 348.5 587 c 128,-1,5
 384 541 384 541 384 454 c 0,6,7
 384 366 384 366 348.5 320 c 128,-1,8
 313 274 313 274 250 274 c 256,9,10
 187 274 187 274 151.5 320 c 128,-1,11
 116 366 116 366 116 454 c 0,0,1
318 454 m 0,12,13
 318 479 318 479 315 502 c 128,-1,14
 312 525 312 525 304 541.5 c 128,-1,15
 296 558 296 558 283 568 c 128,-1,16
 270 578 270 578 250 578 c 256,17,18
 230 578 230 578 217 568 c 128,-1,19
 204 558 204 558 196 541.5 c 128,-1,20
 188 525 188 525 184.5 502 c 128,-1,21
 181 479 181 479 181 454 c 0,22,23
 181 428 181 428 184.5 405.5 c 128,-1,24
 188 383 188 383 196 366.5 c 128,-1,25
 204 350 204 350 217 340 c 128,-1,26
 230 330 230 330 250 330 c 256,27,28
 270 330 270 330 283 340 c 128,-1,29
 296 350 296 350 304 366.5 c 128,-1,30
 312 383 312 383 315 405.5 c 128,-1,31
 318 428 318 428 318 454 c 0,12,13
288 456 m 0,32,33
 288 441 288 441 277.5 429.5 c 128,-1,34
 267 418 267 418 250 418 c 256,35,36
 233 418 233 418 223 429.5 c 128,-1,37
 213 441 213 441 213 456 c 0,38,39
 213 472 213 472 223 483.5 c 128,-1,40
 233 495 233 495 250 495 c 256,41,42
 267 495 267 495 277.5 483.5 c 128,-1,43
 288 472 288 472 288 456 c 0,32,33
EndSplineSet
Substitution2: "Single Substitution lookup 22 subtable" zeroinferior
Substitution2: "'sinf' Scientific Inferiors lookup 11 subtable" zero.sinf
Substitution2: "'subs' Subscript lookup 10 subtable" zero.sinf
Substitution2: "'sups' Superscript lookup 9 subtable" zero.sups
Substitution2: "'dnom' Denominators lookup 8 subtable" zeroinferior
EndChar

StartChar: foursuperior
Encoding: 8308 8308 368
Width: 500
Flags: W
LayerCount: 2
Fore
SplineSet
339 626 m 1,0,-1
 339 418 l 1,1,-1
 384 418 l 1,2,-1
 384 365 l 1,3,-1
 339 365 l 1,4,-1
 339 281 l 1,5,-1
 279 281 l 1,6,-1
 279 365 l 1,7,-1
 105 365 l 1,8,-1
 105 406 l 1,9,10
 117 428 117 428 136.5 457 c 128,-1,11
 156 486 156 486 180 516 c 128,-1,12
 204 546 204 546 230 575 c 128,-1,13
 256 604 256 604 282 626 c 1,14,-1
 339 626 l 1,0,-1
279 552 m 1,15,16
 251 523 251 523 222 487.5 c 128,-1,17
 193 452 193 452 172 418 c 1,18,-1
 279 418 l 1,19,-1
 279 552 l 1,15,16
EndSplineSet
Substitution2: "Single Substitution lookup 22 subtable" fourinferior
Substitution2: "'sinf' Scientific Inferiors lookup 11 subtable" four.sinf
Substitution2: "'subs' Subscript lookup 10 subtable" four.sinf
Substitution2: "'sups' Superscript lookup 9 subtable" four.sups
Substitution2: "'dnom' Denominators lookup 8 subtable" fourinferior
EndChar

StartChar: fivesuperior
Encoding: 8309 8309 369
Width: 500
Flags: W
LayerCount: 2
Fore
SplineSet
375 383 m 0,0,1
 375 335 375 335 339.5 304.5 c 128,-1,2
 304 274 304 274 229 274 c 0,3,4
 200 274 200 274 171 280.5 c 128,-1,5
 142 287 142 287 127 295 c 1,6,-1
 140 348 l 1,7,8
 154 343 154 343 176.5 336.5 c 128,-1,9
 199 330 199 330 227 330 c 0,10,11
 275 330 275 330 293 345.5 c 128,-1,12
 311 361 311 361 311 381 c 0,13,14
 311 396 311 396 303.5 408.5 c 128,-1,15
 296 421 296 421 277.5 429.5 c 128,-1,16
 259 438 259 438 228.5 443 c 128,-1,17
 198 448 198 448 152 448 c 1,18,19
 158 493 158 493 162 538.5 c 128,-1,20
 166 584 166 584 168 626 c 1,21,-1
 361 626 l 1,22,-1
 361 570 l 1,23,-1
 221 570 l 1,24,25
 219 552 219 552 218.5 534 c 128,-1,26
 218 516 218 516 214 497 c 1,27,28
 299 492 299 492 337 463.5 c 128,-1,29
 375 435 375 435 375 383 c 0,0,1
EndSplineSet
Substitution2: "Single Substitution lookup 22 subtable" fiveinferior
Substitution2: "'sinf' Scientific Inferiors lookup 11 subtable" five.sinf
Substitution2: "'subs' Subscript lookup 10 subtable" five.sinf
Substitution2: "'sups' Superscript lookup 9 subtable" five.sups
Substitution2: "'dnom' Denominators lookup 8 subtable" fiveinferior
EndChar

StartChar: sixsuperior
Encoding: 8310 8310 370
Width: 500
Flags: W
LayerCount: 2
Fore
SplineSet
125 421 m 0,0,1
 125 521 125 521 187 573.5 c 128,-1,2
 249 626 249 626 356 628 c 1,3,-1
 362 573 l 1,4,5
 332 572 332 572 305 566.5 c 128,-1,6
 278 561 278 561 256 550 c 128,-1,7
 234 539 234 539 218 523.5 c 128,-1,8
 202 508 202 508 196 487 c 1,9,10
 214 495 214 495 230.5 497 c 128,-1,11
 247 499 247 499 261 499 c 0,12,13
 295 499 295 499 319 490 c 128,-1,14
 343 481 343 481 358 466 c 128,-1,15
 373 451 373 451 379.5 431 c 128,-1,16
 386 411 386 411 386 389 c 0,17,18
 386 369 386 369 378.5 349 c 128,-1,19
 371 329 371 329 355.5 312 c 128,-1,20
 340 295 340 295 316.5 284.5 c 128,-1,21
 293 274 293 274 261 274 c 0,22,23
 193 274 193 274 159 313 c 128,-1,24
 125 352 125 352 125 421 c 0,0,1
255 447 m 256,25,26
 220 447 220 447 187 436 c 1,27,28
 185 387 185 387 201 357 c 128,-1,29
 217 327 217 327 260 327 c 0,30,31
 277 327 277 327 288.5 333 c 128,-1,32
 300 339 300 339 307.5 348 c 128,-1,33
 315 357 315 357 318 368 c 128,-1,34
 321 379 321 379 321 388 c 0,35,36
 321 417 321 417 305.5 432 c 128,-1,37
 290 447 290 447 255 447 c 256,25,26
EndSplineSet
Substitution2: "Single Substitution lookup 22 subtable" sixinferior
Substitution2: "'sinf' Scientific Inferiors lookup 11 subtable" six.sinf
Substitution2: "'subs' Subscript lookup 10 subtable" six.sinf
Substitution2: "'sups' Superscript lookup 9 subtable" six.sups
Substitution2: "'dnom' Denominators lookup 8 subtable" sixinferior
EndChar

StartChar: sevensuperior
Encoding: 8311 8311 371
Width: 500
Flags: W
LayerCount: 2
Fore
SplineSet
186 281 m 1,0,1
 190 319 190 319 202 359.5 c 128,-1,2
 214 400 214 400 231 438.5 c 128,-1,3
 248 477 248 477 269 510.5 c 128,-1,4
 290 544 290 544 311 568 c 1,5,-1
 134 568 l 1,6,-1
 134 626 l 1,7,-1
 389 626 l 1,8,-1
 389 577 l 1,9,10
 371 559 371 559 348.5 527 c 128,-1,11
 326 495 326 495 306 455 c 128,-1,12
 286 415 286 415 271 370.5 c 128,-1,13
 256 326 256 326 252 281 c 1,14,-1
 186 281 l 1,0,1
EndSplineSet
Substitution2: "Single Substitution lookup 22 subtable" seveninferior
Substitution2: "'sinf' Scientific Inferiors lookup 11 subtable" seven.sinf
Substitution2: "'subs' Subscript lookup 10 subtable" seven.sinf
Substitution2: "'sups' Superscript lookup 9 subtable" seven.sups
Substitution2: "'dnom' Denominators lookup 8 subtable" seveninferior
EndChar

StartChar: eightsuperior
Encoding: 8312 8312 372
Width: 500
Flags: W
LayerCount: 2
Fore
SplineSet
381 375 m 0,0,1
 381 330 381 330 347.5 302 c 128,-1,2
 314 274 314 274 249 274 c 0,3,4
 211 274 211 274 186 283.5 c 128,-1,5
 161 293 161 293 146 307.5 c 128,-1,6
 131 322 131 322 125 339 c 128,-1,7
 119 356 119 356 119 372 c 0,8,9
 119 397 119 397 135 419 c 128,-1,10
 151 441 151 441 172 455 c 1,11,12
 152 470 152 470 140 491 c 128,-1,13
 128 512 128 512 128 535 c 0,14,15
 128 575 128 575 160.5 604 c 128,-1,16
 193 633 193 633 249 633 c 0,17,18
 282 633 282 633 305 624 c 128,-1,19
 328 615 328 615 342.5 601.5 c 128,-1,20
 357 588 357 588 364 571.5 c 128,-1,21
 371 555 371 555 371 539 c 0,22,23
 371 514 371 514 358 494 c 128,-1,24
 345 474 345 474 324 460 c 1,25,26
 356 444 356 444 367.5 424 c 128,-1,27
 379 404 379 404 381 375 c 0,0,1
181 372 m 0,28,29
 181 365 181 365 184.5 357 c 128,-1,30
 188 349 188 349 196 342.5 c 128,-1,31
 204 336 204 336 217 331.5 c 128,-1,32
 230 327 230 327 249 327 c 0,33,34
 286 327 286 327 301.5 340.5 c 128,-1,35
 317 354 317 354 317 372 c 0,36,37
 317 397 317 397 291.5 411 c 128,-1,38
 266 425 266 425 221 436 c 1,39,40
 202 422 202 422 191.5 407 c 128,-1,41
 181 392 181 392 181 372 c 0,28,29
309 540 m 0,42,43
 309 551 309 551 295.5 565.5 c 128,-1,44
 282 580 282 580 249 580 c 256,45,46
 216 580 216 580 202.5 566 c 128,-1,47
 189 552 189 552 189 538 c 0,48,49
 189 520 189 520 208 503.5 c 128,-1,50
 227 487 227 487 269 479 c 1,51,52
 287 492 287 492 298 506 c 128,-1,53
 309 520 309 520 309 540 c 0,42,43
EndSplineSet
Substitution2: "Single Substitution lookup 22 subtable" eightinferior
Substitution2: "'sinf' Scientific Inferiors lookup 11 subtable" eight.sinf
Substitution2: "'subs' Subscript lookup 10 subtable" eight.sinf
Substitution2: "'sups' Superscript lookup 9 subtable" eight.sups
Substitution2: "'dnom' Denominators lookup 8 subtable" eightinferior
EndChar

